<svg width="120" height="120" viewBox="0 0 120 120" fill="none" xmlns="http://www.w3.org/2000/svg">
<g clip-path="url(#clip0_1603_4326)">
<circle cx="60" cy="60" r="60" fill="#E1D4C9"/>
<path d="M103.701 70.4243C104.514 70.3531 105.172 70.6736 105.675 71.3856C106.241 72.0921 106.582 73.1019 106.697 74.4149C106.91 76.8533 106.485 78.8435 105.423 80.3855C102.739 84.2744 99.9532 87.3533 97.0646 89.622C94.1705 91.8283 90.6289 93.1147 86.4399 93.4812C82.3758 93.8368 78.81 93.0462 75.7425 91.1095C72.7375 89.1673 69.7207 85.6511 66.6923 80.5609C64.2571 76.4898 62.3579 73.5058 60.995 71.609C59.6265 69.6496 58.31 68.2843 57.0455 67.5129C55.8435 66.736 54.3902 66.3276 52.6856 66.2877C52.5504 67.6226 52.1924 71.8121 51.6116 78.8561C51.385 82.0261 51.2392 83.9604 51.1743 84.6591C50.8827 88.5278 49.8894 91.5758 48.1942 93.8032C46.4935 95.968 43.7362 97.2173 39.9223 97.551C35.7332 97.9175 31.9063 97.0237 28.4418 94.8697C25.0343 92.6478 22.2637 89.425 20.1302 85.2015C17.9911 80.9155 16.6754 75.959 16.1831 70.3318C15.2642 59.8279 16.2842 50.6033 19.2432 42.6581C22.2647 34.7075 26.883 28.4443 33.0979 23.8684C39.3698 19.2245 46.8199 16.5251 55.4482 15.7703C61.4504 15.2451 66.5629 15.7114 70.7856 17.169C75.0083 18.6266 78.2282 20.865 80.4454 23.8842C82.7251 26.8978 84.0401 30.4054 84.3901 34.4069C84.6965 37.9082 84.1533 41.4209 82.7605 44.9449C81.4248 48.4008 79.2122 51.5555 76.1227 54.4089C73.0333 57.2623 69.1673 59.5221 64.5249 61.1883C67.5972 61.7385 70.0254 62.8491 71.8097 64.5201C73.5939 66.1911 75.452 68.7061 77.3839 72.0652C79.4628 75.6635 81.4229 78.2641 83.2642 79.867C85.168 81.4645 87.2454 82.1648 89.4962 81.9679C91.497 81.7929 93.3465 80.9695 95.0448 79.4979C96.7377 77.9637 98.8174 75.4507 101.284 71.9588C101.958 71.0178 102.763 70.5063 103.701 70.4243ZM39.735 67.3263C37.6092 67.5122 36.0962 67.1406 35.1958 66.2113C34.358 65.2766 33.8844 64.184 33.775 62.9335C33.6437 61.433 34.0087 60.204 34.87 59.2466C35.7938 58.2837 36.8809 57.7476 38.1314 57.6382L40.476 57.4331C40.9403 51.2183 41.416 45.8529 41.9029 41.3372C42.3602 37.202 44.8084 34.9403 49.2476 34.5519C52.8114 34.2401 54.7328 35.6785 55.0118 38.8673C55.072 39.555 55.0872 40.0892 55.0575 40.4698L53.606 56.2844C56.9659 55.8014 59.9584 54.7206 62.5837 53.0418C65.2714 51.3576 67.316 49.1627 68.7173 46.457C70.1812 43.7458 70.7709 40.7646 70.4864 37.5134C70.1418 33.5744 68.5268 30.5971 65.6413 28.5815C62.7559 26.5658 58.7184 25.785 53.529 26.239C47.4017 26.7751 42.1586 28.7774 37.7999 32.2458C33.4983 35.6463 30.3283 40.4598 28.2899 46.6863C26.2461 52.8503 25.5989 60.2152 26.3483 68.781C26.6984 72.7825 27.4057 76.1857 28.4701 78.9907C29.5345 81.7957 30.7236 83.8652 32.0374 85.1993C33.3512 86.5334 34.5395 87.154 35.6024 87.061C36.4152 86.9899 37.0361 86.5261 37.4652 85.6695C37.9568 84.8075 38.2796 83.4562 38.4336 81.6156L39.735 67.3263Z" fill="#403F3D"/>
</g>
<defs>
<clipPath id="clip0_1603_4326">
<rect width="120" height="120" fill="white"/>
</clipPath>
</defs>
</svg>
