<?xml version="1.0" standalone="no"?>
<!DOCTYPE svg PUBLIC "-//W3C//DTD SVG 20010904//EN"
 "http://www.w3.org/TR/2001/REC-SVG-20010904/DTD/svg10.dtd">
<svg version="1.0" xmlns="http://www.w3.org/2000/svg"
 width="700.000000pt" height="700.000000pt" viewBox="0 0 700.000000 700.000000"
 preserveAspectRatio="xMidYMid meet">
<metadata>
Created by potrace 1.14, written by Peter Selinger 2001-2017
</metadata>
<g transform="translate(0.000000,700.000000) scale(0.100000,-0.100000)"
fill="#000000" stroke="none">
<path d="M3250 6083 c-204 -15 -523 -82 -703 -148 -486 -177 -876 -478 -1151
-888 -385 -575 -540 -1350 -446 -2224 49 -444 208 -849 444 -1125 241 -283
584 -425 935 -388 294 30 452 129 555 343 77 160 88 223 131 777 14 173 33
402 42 508 l16 192 32 0 c50 0 144 -28 207 -62 122 -65 265 -252 543 -711 144
-238 256 -391 373 -510 106 -108 183 -165 295 -217 138 -65 235 -84 417 -84
289 1 522 75 726 230 162 123 463 471 521 602 67 152 50 382 -36 472 -34 36
-43 40 -86 40 -79 0 -112 -27 -233 -189 -194 -259 -295 -362 -420 -425 -145
-73 -307 -75 -448 -3 -138 70 -255 205 -439 507 -140 230 -203 318 -305 421
-109 109 -196 161 -345 204 -49 14 -90 27 -92 29 -2 2 23 13 55 24 87 32 247
113 348 175 574 357 855 992 698 1577 -132 495 -532 803 -1129 870 -83 9 -398
11 -505 3z m263 -629 c287 -46 485 -215 569 -484 20 -66 23 -94 23 -245 0
-196 -10 -244 -81 -394 -124 -262 -343 -451 -643 -551 -94 -32 -239 -65 -247
-57 -3 3 13 204 36 448 49 521 49 597 4 685 -56 110 -171 151 -347 122 -193
-31 -308 -121 -361 -280 -18 -54 -44 -287 -81 -733 -15 -170 -27 -310 -28
-311 -1 -1 -44 -7 -94 -13 -111 -12 -168 -35 -221 -91 -55 -55 -76 -121 -70
-214 12 -171 113 -266 284 -266 l63 0 -5 -32 c-3 -18 -22 -226 -44 -463 -41
-445 -54 -524 -96 -588 -94 -143 -296 -32 -436 240 -125 241 -182 486 -209
893 -44 673 84 1247 375 1675 116 171 331 364 528 473 303 168 734 242 1081
186z"/>
</g>
</svg>
