<svg display="none" xmlns="http://www.w3.org/2000/svg">

<!-- svg arrow -->
  <symbol id="svg-arrow" viewBox="0 0 24 24">
    <g>
      <path d="M6 12H18.5M18.5 12L12.5 6M18.5 12L12.5 18" stroke-linecap="round" stroke-linejoin="round"/>
    </g>
  </symbol>

<!-- svg coffee-cup -->
  <symbol id="svg-coffee-cup" viewBox="0 0 24 24">
    <g>
      <path fill-rule="evenodd" clip-rule="evenodd" d="M13 2.25C12.5858 2.25 12.25 2.58579 12.25 3V3.5C12.25 4.19036 11.6904 4.75 11 4.75C8.92893 4.75 7.25 6.42893 7.25 8.5V9C7.25 9.41421 7.58579 9.75 8 9.75C8.41421 9.75 8.75 9.41421 8.75 9V8.5C8.75 7.25736 9.75736 6.25 11 6.25C12.5188 6.25 13.75 5.01878 13.75 3.5V3C13.75 2.58579 13.4142 2.25 13 2.25ZM16.25 3.5C16.25 3.08579 16.5858 2.75 17 2.75C17.4142 2.75 17.75 3.08579 17.75 3.5V4.14286C17.75 6.13503 16.135 7.75 14.1429 7.75C13.6147 7.75 13.2817 7.92917 13.0788 8.14224C12.8665 8.36516 12.75 8.67441 12.75 9C12.75 9.41421 12.4142 9.75 12 9.75C11.5858 9.75 11.25 9.41421 11.25 9C11.25 8.32559 11.4906 7.63484 11.9926 7.10776C12.504 6.57083 13.2424 6.25 14.1429 6.25C15.3066 6.25 16.25 5.3066 16.25 4.14286V3.5ZM16.25 15C16.25 17.8995 13.8995 20.25 11 20.25H9C6.1005 20.25 3.75 17.8995 3.75 15V11.75H16.25V15ZM17.75 11.75V15C17.75 15.0837 17.7485 15.167 17.7455 15.25H18.5C19.4665 15.25 20.25 14.4665 20.25 13.5C20.25 12.5335 19.4665 11.75 18.5 11.75H17.75ZM17.5209 16.75C16.7501 19.6296 14.1227 21.75 11 21.75H9C5.27208 21.75 2.25 18.7279 2.25 15V11.6C2.25 10.8544 2.85442 10.25 3.6 10.25H18.5C20.2949 10.25 21.75 11.7051 21.75 13.5C21.75 15.2949 20.2949 16.75 18.5 16.75H17.5209Z"/>
    </g>
  </symbol>

<!-- svg pin-alt -->
  <symbol id="svg-pin-alt" viewBox="0 0 20 20">
    <g>
      <path d="M8.41699 8.33333C8.41699 7.45888 9.12587 6.75 10.0003 6.75C10.8748 6.75 11.5837 7.45888 11.5837 8.33333C11.5837 9.20778 10.8748 9.91667 10.0003 9.91667C9.12587 9.91667 8.41699 9.20778 8.41699 8.33333Z"/>
      <path fill-rule="evenodd" clip-rule="evenodd" d="M9.48193 18.8759L9.99967 19.3666L10.5174 18.8759L10.5217 18.8719L10.5372 18.857L10.5957 18.8008C10.6463 18.7519 10.7199 18.6803 10.813 18.5884C10.9993 18.4045 11.2644 18.1386 11.5819 17.8085C12.2162 17.1489 13.064 16.2286 13.9138 15.1886C14.7613 14.1514 15.6239 12.9792 16.2782 11.817C16.9212 10.675 17.4163 9.45104 17.4163 8.33329C17.4163 4.23718 14.0958 0.916626 9.99967 0.916626C5.90356 0.916626 2.58301 4.23718 2.58301 8.33329C2.58301 9.45104 3.07812 10.675 3.72114 11.817C4.37547 12.9792 5.23808 14.1514 6.08556 15.1886C6.93536 16.2286 7.78314 17.1489 8.41744 17.8085C8.735 18.1386 9.00002 18.4045 9.18632 18.5884C9.27949 18.6803 9.35304 18.7519 9.40369 18.8008L9.4621 18.857L9.47768 18.8719L9.48193 18.8759ZM4.08301 8.33329C4.08301 5.06561 6.73199 2.41663 9.99967 2.41663C13.2674 2.41663 15.9163 5.06561 15.9163 8.33329C15.9163 9.0565 15.5781 10.003 14.9711 11.0811C14.3755 12.1391 13.5714 13.2369 12.7522 14.2395C11.9354 15.2392 11.1165 16.1285 10.5008 16.7687C10.3124 16.9646 10.1433 17.1368 9.99967 17.2812C9.85601 17.1368 9.68699 16.9646 9.49857 16.7687C8.88287 16.1285 8.06399 15.2392 7.24712 14.2395C6.42794 13.2369 5.62388 12.1391 5.02821 11.0811C4.42123 10.003 4.08301 9.0565 4.08301 8.33329Z"/>
    </g>
  </symbol>

<!-- svg phone -->
  <symbol id="svg-phone" viewBox="0 0 20 20">
    <g>
      <path d="M15.0984 12.2516L11.6665 12.9166C9.34845 11.7531 7.91654 10.4166 7.08321 8.33329L7.72483 4.89154L6.51197 1.66663L3.72946 1.66663C2.60191 1.66663 1.71466 2.59958 1.90108 3.71161C2.29888 6.08454 3.37231 10.0391 6.24987 12.9166C9.27338 15.9401 13.5661 17.3318 16.1378 17.9288C17.299 18.1983 18.3332 17.2908 18.3332 16.0988L18.3332 13.4843L15.0984 12.2516Z" stroke-width="1.5" stroke-linecap="round" stroke-linejoin="round"/>
    </g>
  </symbol>

<!-- svg clock -->
  <symbol id="svg-clock" viewBox="0 0 20 20">
    <g>
      <g clip-path="url(#clip0_217_1736)">
        <path d="M10 5L10 10L15 10" stroke-width="1.5" stroke-linecap="round" stroke-linejoin="round"/>
        <path d="M10.0003 18.3333C14.6027 18.3333 18.3337 14.6023 18.3337 9.99996C18.3337 5.39759 14.6027 1.66663 10.0003 1.66663C5.39795 1.66663 1.66699 5.39759 1.66699 9.99996C1.66699 14.6023 5.39795 18.3333 10.0003 18.3333Z" stroke-width="1.5" stroke-linecap="round" stroke-linejoin="round"/>
      </g>
      <defs>
        <clipPath id="clip0_217_1736">
          <rect width="20" height="20" fill="white"/>
        </clipPath>
      </defs>
    </g>
  </symbol>

<!-- svg info -->
  <symbol id="svg-info" viewBox="0 0 16 16">
    <g>
      <path d="M8.34117 4.62764C8.54642 4.81237 8.56304 5.12852 8.37831 5.33377L8.37164 5.34118C8.1869 5.54642 7.87076 5.56305 7.66551 5.37831C7.46026 5.19358 7.44363 4.87743 7.62837 4.67218L7.63504 4.66478C7.81977 4.45953 8.13592 4.4429 8.34117 4.62764Z"/>
      <path d="M8 7.16663C8.27614 7.16663 8.5 7.39048 8.5 7.66663V11C8.5 11.2761 8.27614 11.5 8 11.5C7.72386 11.5 7.5 11.2761 7.5 11V7.66663C7.5 7.39048 7.72386 7.16663 8 7.16663Z"/>
      <path fill-rule="evenodd" clip-rule="evenodd" d="M8.00016 0.833374C4.04212 0.833374 0.833496 4.042 0.833496 8.00004C0.833496 11.9581 4.04212 15.1667 8.00016 15.1667C11.9582 15.1667 15.1668 11.9581 15.1668 8.00004C15.1668 4.042 11.9582 0.833374 8.00016 0.833374ZM1.8335 8.00004C1.8335 4.59428 4.59441 1.83337 8.00016 1.83337C11.4059 1.83337 14.1668 4.59428 14.1668 8.00004C14.1668 11.4058 11.4059 14.1667 8.00016 14.1667C4.59441 14.1667 1.8335 11.4058 1.8335 8.00004Z"/>
    </g>
  </symbol>

<!-- svg app-store -->
  <symbol id="svg-app-store" viewBox="0 0 36 36">
    <g>
      <path d="M26.7063 18.6307C26.6694 14.6324 30.0641 12.6872 30.2193 12.5966C28.2967 9.86366 25.3169 9.49026 24.2697 9.46048C21.767 9.20369 19.3393 10.9206 18.0644 10.9206C16.764 10.9206 14.8008 9.48529 12.6848 9.52747C9.96196 9.56841 7.41468 11.1055 6.01762 13.4923C3.13444 18.359 5.28474 25.5108 8.04705 29.4446C9.42884 31.3712 11.0435 33.5223 13.1569 33.4466C15.2245 33.3635 15.9968 32.1614 18.4919 32.1614C20.9641 32.1614 21.6893 33.4466 23.8447 33.3983C26.0637 33.3635 27.4608 31.463 28.7942 29.519C30.3911 27.3108 31.0323 25.1362 31.0578 25.0245C31.0056 25.0071 26.7483 23.4229 26.7063 18.6307Z" />
      <path d="M22.6347 6.87268C23.7468 5.51675 24.5076 3.67205 24.2964 1.80005C22.6869 1.86952 20.674 2.88554 19.5149 4.21169C18.4893 5.38029 17.5732 7.29571 17.8099 9.097C19.6179 9.2285 21.4743 8.20752 22.6347 6.87268Z" />
    </g>
  </symbol>

<!-- svg gplay -->
  <symbol id="svg-gplay" viewBox="0 0 36 36">
    <g>
      <path d="M3.7558 3.20309C3.39335 3.57302 3.18359 4.14896 3.18359 4.89483V31.4995C3.18359 32.2454 3.39335 32.8213 3.7558 33.1913L3.84525 33.2725L19.1359 18.3701V18.0182L3.84525 3.11587L3.7558 3.20309Z"/>
      <path d="M26.0776 23.34L20.9863 18.3701V18.0182L26.0837 13.0482L26.1979 13.1129L32.2345 16.4618C33.9573 17.4122 33.9573 18.9761 32.2345 19.9325L26.1979 23.2754L26.0776 23.34Z" />
      <path d="M25.2733 24.2008L20.0617 19.1196L4.68164 34.1167C5.25384 34.7031 6.18695 34.7738 7.24807 34.1873L25.2733 24.2008Z" />
      <path d="M25.2733 12.1876L7.24807 2.20103C6.18695 1.62058 5.25384 1.69125 4.68164 2.27772L20.0617 17.2688L25.2733 12.1876Z" />
    </g>
  </symbol>

<!-- svg social-fb -->
  <symbol id="svg-social-fb" viewBox="0 0 24 24">
    <g>
      <path d="M17 2H14C12.6739 2 11.4021 2.52678 10.4645 3.46447C9.52678 4.40215 9 5.67392 9 7V10H6V14H9V22H13V14H16L17 10H13V7C13 6.73478 13.1054 6.48043 13.2929 6.29289C13.4804 6.10536 13.7348 6 14 6H17V2Z" stroke-linecap="round" stroke-linejoin="round"/>
    </g>
  </symbol>

<!-- svg social-inst -->
  <symbol id="svg-social-inst" viewBox="0 0 24 24">
    <g>
      <path d="M12 16C14.2091 16 16 14.2091 16 12C16 9.79086 14.2091 8 12 8C9.79086 8 8 9.79086 8 12C8 14.2091 9.79086 16 12 16Z" stroke-linecap="round" stroke-linejoin="round"/>
      <path d="M3 16V8C3 5.23858 5.23858 3 8 3H16C18.7614 3 21 5.23858 21 8V16C21 18.7614 18.7614 21 16 21H8C5.23858 21 3 18.7614 3 16Z" />
      <path d="M17.5 6.51L17.51 6.49889" stroke-linecap="round" stroke-linejoin="round"/>
    </g>
  </symbol>

<!-- svg social-tw -->
  <symbol id="svg-social-tw" viewBox="0 0 24 24">
    <g>
      <path d="M23 3.01006C23 3.01006 20.9821 4.20217 19.86 4.54006C19.2577 3.84757 18.4573 3.35675 17.567 3.13398C16.6767 2.91122 15.7395 2.96725 14.8821 3.29451C14.0247 3.62177 13.2884 4.20446 12.773 4.96377C12.2575 5.72309 11.9877 6.62239 12 7.54006V8.54006C10.2426 8.58562 8.50127 8.19587 6.93101 7.4055C5.36074 6.61513 4.01032 5.44869 3 4.01006C3 4.01006 -1 13.0101 8 17.0101C5.94053 18.408 3.48716 19.109 1 19.0101C10 24.0101 21 19.0101 21 7.51006C20.9991 7.23151 20.9723 6.95365 20.92 6.68006C21.9406 5.67355 23 3.01006 23 3.01006Z" stroke-linecap="round" stroke-linejoin="round"/>
    </g>
  </symbol>

</svg>
