<svg width="56" height="56" viewBox="0 0 56 56" fill="none" xmlns="http://www.w3.org/2000/svg">
<path d="M47.9922 18.9048C48.524 19.1851 48.9892 19.4303 49.4545 19.6756C51.3821 20.7266 53.1434 22.058 54.4728 23.9148C56.3006 26.4023 56.5001 29.2051 55.0045 31.9729C54.2402 33.4094 53.1767 34.5305 51.947 35.5115C49.521 37.4034 46.7958 38.5946 43.9377 39.5405C39.7503 40.9069 35.4631 41.6426 31.1095 41.8879C26.3903 42.1682 21.7043 41.9229 17.0184 41.1521C13.6286 40.6266 10.2719 39.7858 7.11474 38.2442C5.8851 37.6486 4.65545 36.8779 3.59197 35.9669C0.83357 33.5495 0.235363 29.8007 1.99675 26.4724C2.86083 24.8257 4.09047 23.4594 5.45306 22.2682C8.70996 19.4303 12.4654 17.6435 16.4534 16.3472C21.937 14.5604 27.5202 13.8247 33.2365 14.0349C37.0251 14.175 40.8137 14.5604 44.4694 15.6815C45.5662 15.9969 46.5964 16.4874 47.6599 16.9078C47.9258 17.0129 48.1584 17.1881 48.391 17.3632C48.9892 17.8537 48.956 18.2742 48.2913 18.7296C48.2249 18.7997 48.1252 18.8347 47.9922 18.9048ZM31.7077 15.7867C31.7077 15.7516 31.7077 15.7166 31.7077 15.6815C31.5083 15.6815 31.2757 15.6465 31.0763 15.6465C26.4568 15.6815 21.9038 16.3823 17.4504 17.7837C13.5953 18.9749 9.90638 20.6565 6.74917 23.3543C5.48629 24.4404 4.32311 25.6315 3.49227 27.1381C1.96352 29.9409 2.46202 32.9889 4.85485 34.9509C5.75216 35.6867 6.74917 36.2823 7.77942 36.7727C10.5711 38.1391 13.5289 38.8749 16.5199 39.4354C20.8403 40.2412 25.1939 40.4514 29.5475 40.3463C34.6655 40.2062 39.717 39.3654 44.5691 37.6136C46.8623 36.7727 49.0557 35.7567 51.0165 34.2502C52.2129 33.3043 53.2431 32.1831 53.9078 30.7467C54.639 29.1351 54.7054 27.4884 53.8414 25.9118C53.509 25.3162 53.077 24.7206 52.6449 24.2301C51.2159 22.6185 49.4877 21.4974 47.5602 20.6215C45.1674 19.5354 42.7081 18.7296 40.1491 18.2041C36.7592 17.4683 33.3362 17.118 29.9131 17.8537C29.7469 17.8888 29.5143 17.9588 29.3813 17.8888C29.1487 17.7486 28.8496 17.5734 28.7831 17.3632C28.7167 17.153 28.9161 16.8027 29.0822 16.6275C29.2816 16.4523 29.5807 16.3823 29.8466 16.3122C30.4781 16.0669 31.0763 15.9268 31.7077 15.7867ZM42.3425 16.9078C43.9709 17.4683 45.5662 17.9939 47.1946 18.5544C45.6991 17.5384 44.0706 17.118 42.3425 16.9078Z" fill="#F4AA19"/>
</svg>
