<svg width="24" height="24" viewBox="0 0 24 24" fill="none" xmlns="http://www.w3.org/2000/svg">
<circle cx="11.9999" cy="12" r="3.6" fill="#F4E2E3"/>
<path d="M6.99305 12C6.99305 14.761 9.23905 17.007 12 17.007C14.761 17.007 17.007 14.761 17.007 12C17.007 9.239 14.761 6.993 12 6.993C9.23905 6.993 6.99305 9.239 6.99305 12ZM12 8.993C13.658 8.993 15.007 10.342 15.007 12C15.007 13.658 13.658 15.007 12 15.007C10.342 15.007 8.99305 13.658 8.99305 12C8.99305 10.342 10.342 8.993 12 8.993ZM10.998 19H12.998V22H10.998V19ZM10.998 2H12.998V5H10.998V2ZM1.99805 11H4.99805V13H1.99805V11ZM18.998 11H21.998V13H18.998V11ZM4.21905 18.363L6.33905 16.241L7.75405 17.655L5.63405 19.777L4.21905 18.363ZM16.24 6.344L18.362 4.222L19.776 5.636L17.654 7.758L16.24 6.344ZM6.34205 7.759L4.22005 5.637L5.63505 4.223L7.75505 6.345L6.34205 7.759ZM19.776 18.364L18.362 19.778L16.24 17.656L17.654 16.242L19.776 18.364Z" fill="#F4E2E3"/>
</svg>
