<svg width="24" height="24" viewBox="0 0 24 24" fill="none" xmlns="http://www.w3.org/2000/svg">
<path d="M5 13H7.83L10 15.17V8.83002L7.83 11H5V13Z" fill="#F4E2E3"/>
<path fill-rule="evenodd" clip-rule="evenodd" d="M3 15V9H7L12 4V20L7 15H3ZM10 15.17V8.83L7.83 11H5V13H7.83L10 15.17Z" fill="#F4E2E3"/>
<path d="M14 7.96997V16.02C15.48 15.29 16.5 13.77 16.5 12C16.5 10.23 15.48 8.70997 14 7.96997Z" fill="#F4E2E3"/>
<path d="M14 3.22998V5.28998C16.89 6.14998 19 8.82998 19 12C19 15.17 16.89 17.85 14 18.71V20.77C18.01 19.86 21 16.28 21 12C21 7.71998 18.01 4.13998 14 3.22998Z" fill="#F4E2E3"/>
</svg>
