<svg width="24" height="24" viewBox="0 0 24 24" fill="none" xmlns="http://www.w3.org/2000/svg">
<g id="volume_off_24px">
<g id="&#226;&#134;&#179; Dark Color">
<path id="Mask" d="M4.33993 2.93L2.92993 4.34L7.28993 8.7L6.99993 9H2.99993V15H6.99993L11.9999 20V13.41L16.1799 17.59C15.5299 18.08 14.7999 18.47 13.9999 18.7V20.76C15.3399 20.46 16.5699 19.84 17.6099 19.01L19.6599 21.06L21.0699 19.65L4.33993 2.93Z" fill="#292929"/>
</g>
<g id="&#226;&#134;&#179; Dark Color_2">
<path id="Mask_2" d="M19 12C19 12.82 18.85 13.61 18.59 14.34L20.12 15.87C20.68 14.7 21 13.39 21 12C21 7.72 18.01 4.14 14 3.23V5.29C16.89 6.15 19 8.83 19 12Z" fill="#292929"/>
</g>
<g id="&#226;&#134;&#179; Dark Color_3">
<path id="Mask_3" d="M12.0001 4L10.1201 5.88L12.0001 7.76V4Z" fill="#292929"/>
</g>
<g id="&#226;&#134;&#179; Dark Color_4">
<path id="Mask_4" d="M16.5 12C16.5 10.23 15.48 8.71 14 7.97V9.76L16.48 12.24C16.49 12.16 16.5 12.08 16.5 12Z" fill="#292929"/>
</g>
</g>
</svg>
