<svg width="120" height="45" viewBox="0 0 120 45" fill="none" xmlns="http://www.w3.org/2000/svg">
<mask id="mask0_2_119" style="mask-type:luminance" maskUnits="userSpaceOnUse" x="0" y="0" width="120" height="45">
<path d="M120 0H0V45H120V0Z" fill="white"/>
</mask>
<g mask="url(#mask0_2_119)">
<path d="M61.9537 14.9055L67.6628 14.5329C67.793 15.4754 68.0319 16.1768 68.4226 16.6809C69.0521 17.47 69.9204 17.8646 71.0709 17.8646C71.9175 17.8646 72.5905 17.6673 73.0463 17.2509C73.4805 16.9221 73.741 16.396 73.741 15.848C73.741 15.3219 73.5022 14.8179 73.0897 14.489C72.6556 14.0945 71.6353 13.6999 70.0289 13.3493C67.4023 12.7574 65.5137 11.9683 64.4066 10.96C63.2996 10.0175 62.6701 8.63662 62.7135 7.16804C62.7135 6.15976 63.0174 5.15147 63.5817 4.31855C64.233 3.37603 65.123 2.63078 66.1867 2.21431C67.3372 1.71017 68.9435 1.44714 70.9624 1.44714C73.4371 1.44714 75.3256 1.90744 76.6281 2.84996C77.9306 3.77057 78.7121 5.26107 78.9508 7.29955L73.3068 7.62834C73.1548 6.75158 72.8509 6.11592 72.3517 5.69946C71.8524 5.28299 71.2012 5.08572 70.3546 5.08572C69.6599 5.08572 69.139 5.23915 68.7916 5.5241C68.466 5.78713 68.2489 6.18167 68.2706 6.62006C68.2706 6.94884 68.4443 7.25572 68.7048 7.45298C68.9869 7.71601 69.6599 7.95713 70.7236 8.17632C73.3502 8.74621 75.2171 9.31612 76.3676 9.90791C77.5181 10.4997 78.343 11.2231 78.8423 12.0779C79.3632 12.9547 79.6237 13.9629 79.602 14.9932C79.602 16.2206 79.2547 17.4481 78.56 18.4783C77.8437 19.5524 76.8452 20.3853 75.673 20.8894C74.4356 21.4374 72.8726 21.7224 71.0058 21.7224C67.7062 21.7224 65.4269 21.0867 64.1462 19.7934C62.8654 18.5003 62.1056 16.8782 61.9537 14.9055ZM1.36759 21.3936V1.79784H11.3749C13.2199 1.79784 14.6527 1.95128 15.6296 2.28007C16.5846 2.58693 17.4312 3.22259 17.9957 4.07744C18.6251 5.01996 18.9291 6.11592 18.9074 7.25571C18.9725 9.18456 17.9957 11.0258 16.3241 11.9903C15.673 12.3629 14.9566 12.6259 14.2185 12.7574C14.7612 12.9108 15.3039 13.1739 15.7815 13.4807C16.1505 13.7876 16.4544 14.1384 16.7366 14.511C17.0622 14.8836 17.3444 15.3001 17.5832 15.7384L20.492 21.4155H13.6759L10.4631 15.3877C10.0506 14.6206 9.70332 14.1164 9.37774 13.8753C8.94353 13.5684 8.42258 13.415 7.90159 13.415H7.38061V21.3716H1.36759V21.3936ZM7.38061 9.73259H9.92038C10.4631 9.68874 10.9841 9.60103 11.5051 9.46956C11.8958 9.40382 12.2431 9.18456 12.4819 8.85579C13.068 8.06672 12.9812 6.94884 12.2648 6.26935C11.8741 5.94056 11.1143 5.76521 10.0289 5.76521H7.38061V9.73259ZM0 38.1836L5.70911 37.811C5.83937 38.7535 6.07815 39.4549 6.46888 39.9591C7.0767 40.7482 7.96671 41.1646 9.11726 41.1646C9.96379 41.1646 10.6368 40.9674 11.0926 40.5509C11.5268 40.2001 11.7873 39.6961 11.7873 39.148C11.7873 38.622 11.5485 38.1179 11.136 37.7891C10.7019 37.3945 9.68162 37 8.05354 36.6493C5.42692 36.0575 3.53835 35.2684 2.43126 34.2601C1.32416 33.3175 0.694646 31.9366 0.738061 30.4681C0.738061 29.4598 1.04197 28.4515 1.60637 27.6186C2.2576 26.6761 3.14761 25.9308 4.21129 25.5144C5.36179 25.0102 6.96816 24.7471 8.98694 24.7471C11.4617 24.7471 13.3502 25.2075 14.6527 26.15C15.9551 27.0925 16.7149 28.5611 16.9537 30.5996L11.3097 30.9284C11.1577 30.0516 10.8538 29.4159 10.3546 28.9995C9.87697 28.583 9.20409 28.3858 8.35745 28.4077C7.66281 28.4077 7.14183 28.5611 6.7945 28.868C6.44718 29.131 6.25181 29.5255 6.27352 29.964C6.27352 30.2927 6.44718 30.5996 6.70767 30.7969C6.98987 31.0599 7.66281 31.301 8.72649 31.5202C11.3531 32.0901 13.2199 32.66 14.3704 33.2518C15.5209 33.8436 16.3459 34.5669 16.8452 35.4219C17.3661 36.2986 17.6266 37.3068 17.6266 38.3152C17.6266 39.5426 17.2576 40.7482 16.5846 41.7783C15.8683 42.8524 14.8698 43.6854 13.6976 44.1894C12.4602 44.7375 10.8972 45.0224 9.03035 45.0224C5.73082 45.0224 3.45152 44.3867 2.17076 43.0935C0.890012 41.7783 0.173661 40.1564 0 38.1836Z" fill="#F7F7F7"/>
<path d="M28.871 36.649L34.1242 38.2491C33.842 39.5862 33.2559 40.8575 32.4527 41.9753C31.7146 42.9617 30.7378 43.7289 29.6308 44.233C28.5019 44.7372 27.0692 45.0002 25.3326 45.0002C23.227 45.0002 21.4903 44.6933 20.1662 44.0796C18.8203 43.4659 17.6698 42.3699 16.6929 40.8136C15.7161 39.2574 15.2385 37.2628 15.2385 34.8297C15.2385 31.5857 16.0851 29.0869 17.8 27.3553C19.5149 25.6237 21.9245 24.7469 25.0504 24.7469C27.5034 24.7469 29.4136 25.251 30.8247 26.2374C32.2139 27.2457 33.2559 28.78 33.9506 30.8405L28.6539 32.0241C28.5236 31.5637 28.3282 31.1035 28.0678 30.7089C27.7422 30.2486 27.3297 29.8979 26.8304 29.6349C26.3311 29.3719 25.7668 29.2623 25.2023 29.2623C23.8348 29.2623 22.7928 29.8102 22.0764 30.9281C21.5338 31.7392 21.2516 33.0323 21.2516 34.7859C21.2516 36.9559 21.5772 38.4464 22.2284 39.2574C22.8796 40.0684 23.7913 40.463 24.9853 40.463C26.1358 40.463 27.0041 40.1341 27.5902 39.4985C28.1763 38.819 28.6105 37.8764 28.871 36.649ZM41.1358 25.0757H47.1271V31.9364H53.6828V25.0757H59.7176V44.6714H53.6828V36.7367H47.1271V44.6714H41.1358V25.0757Z" fill="#F7F7F7"/>
<path d="M58.8926 34.8735C58.8926 31.6733 59.7825 29.1745 61.5409 27.3991C63.2992 25.6237 65.7739 24.725 68.9215 24.725C72.1559 24.725 74.6306 25.6018 76.3889 27.3553C78.1473 29.1088 79.0155 31.5637 79.0155 34.7201C79.0155 37.0216 78.6248 38.8847 77.865 40.3533C77.127 41.8 75.9765 42.9836 74.5655 43.7727C73.1111 44.5837 71.3093 45.0002 69.1603 45.0002C66.9678 45.0002 65.1661 44.6495 63.7333 43.948C62.2573 43.2028 61.0416 42.0411 60.2384 40.6163C59.3484 39.082 58.8926 37.1751 58.8926 34.8735ZM64.8838 34.8954C64.8838 36.8682 65.2529 38.2929 65.9692 39.1697C66.6856 40.0245 67.6842 40.4629 68.9432 40.4629C70.2239 40.4629 71.2225 40.0464 71.9389 39.1916C72.6552 38.3368 73.0026 36.8243 73.0026 34.6324C73.0026 32.7912 72.6336 31.4322 71.8955 30.5993C71.1574 29.7444 70.1588 29.3279 68.8998 29.3279C67.7927 29.2842 66.729 29.7664 65.9909 30.6212C65.2529 31.476 64.8838 32.9008 64.8838 34.8954ZM85.1588 34.8735C85.1588 31.6733 86.0488 29.1745 87.8072 27.3991C89.5655 25.6237 92.0405 24.725 95.1878 24.725C98.4225 24.725 100.919 25.6018 102.655 27.3553C104.392 29.1088 105.282 31.5637 105.282 34.7201C105.282 37.0216 104.891 38.8847 104.131 40.3533C103.394 41.8 102.243 42.9836 100.831 43.7727C99.3772 44.5837 97.5755 45.0002 95.4269 45.0002C93.2343 45.0002 91.4325 44.6495 89.9996 43.948C88.5234 43.2028 87.3079 42.0411 86.5047 40.6163C85.6147 39.082 85.1588 37.1751 85.1588 34.8735ZM91.1502 34.8954C91.1502 36.8682 91.519 38.2929 92.2355 39.1697C92.9519 40.0245 93.9508 40.4629 95.2099 40.4629C96.4902 40.4629 97.489 40.0464 98.2055 39.1916C98.9219 38.3368 99.2687 36.8243 99.2687 34.6324C99.2687 32.7912 98.8999 31.4322 98.1613 30.5993C97.4237 29.7444 96.4249 29.3279 95.1658 29.3279C94.0593 29.2842 92.974 29.7664 92.2575 30.6212C91.519 31.476 91.1502 32.9008 91.1502 34.8954Z" fill="#F7F7F7"/>
<path d="M104.653 25.076H110.645V39.8495H120V44.6717H104.631V25.076H104.653Z" fill="#F7F7F7"/>
<path d="M98.0498 23.945C104.082 19.3552 105.942 11.5746 102.204 6.56667C98.4662 1.55873 90.5471 1.21981 84.5148 5.80968C78.4829 10.3996 76.6228 18.1801 80.3603 23.1881C84.0977 28.196 92.0171 28.5349 98.0498 23.945Z" fill="black"/>
<mask id="mask1_2_119" style="mask-type:luminance" maskUnits="userSpaceOnUse" x="78" y="2" width="27" height="26">
<path d="M98.0498 23.945C104.082 19.3551 105.942 11.5746 102.204 6.56667C98.4662 1.55872 90.5471 1.21981 84.5148 5.80968C78.4829 10.3995 76.6228 18.1801 80.3603 23.1881C84.0977 28.196 92.0171 28.5349 98.0498 23.945Z" fill="white"/>
</mask>
<g mask="url(#mask1_2_119)">
<path d="M64.978 12.3942L96.1486 -11.3243L117.718 17.5768L86.5472 41.2952L64.978 12.3942Z" fill="black"/>
<mask id="mask2_2_119" style="mask-type:luminance" maskUnits="userSpaceOnUse" x="64" y="-12" width="54" height="54">
<path d="M64.978 12.3941L96.1486 -11.3244L117.718 17.5767L86.5472 41.2952L64.978 12.3941Z" fill="white"/>
</mask>
<g mask="url(#mask2_2_119)">
<path d="M98.0512 23.945C104.083 19.3551 105.943 11.5746 102.205 6.56667C98.4677 1.55872 90.5486 1.21981 84.5163 5.80968C78.4843 10.3995 76.6243 18.1801 80.3617 23.1881C84.0992 28.196 92.0186 28.5349 98.0512 23.945Z" fill="black"/>
<mask id="mask3_2_119" style="mask-type:luminance" maskUnits="userSpaceOnUse" x="78" y="2" width="27" height="26">
<path d="M98.0515 23.9451C104.083 19.3552 105.943 11.5747 102.206 6.56673C98.4679 1.55879 90.5488 1.21987 84.5165 5.80974C78.4846 10.3996 76.6245 18.1802 80.362 23.1881C84.0994 28.196 92.0188 28.5349 98.0515 23.9451Z" fill="white"/>
</mask>
<g mask="url(#mask3_2_119)">
<path d="M73.6582 14.3237L95.4847 -2.28406L109.032 15.869L87.2056 32.4768L73.6582 14.3237Z" fill="black"/>
<mask id="mask4_2_119" style="mask-type:luminance" maskUnits="userSpaceOnUse" x="73" y="-3" width="37" height="36">
<path d="M73.6575 14.3244L95.484 -2.28345L109.032 15.8696L87.2049 32.4775L73.6575 14.3244Z" fill="white"/>
</mask>
<g mask="url(#mask4_2_119)">
<path d="M98.0493 23.9458C104.081 19.3559 105.941 11.5754 102.204 6.5674C98.4667 1.55946 90.5467 1.22055 84.5148 5.81041C78.4829 10.4003 76.6228 18.1808 80.3603 23.1888C84.0977 28.1967 92.0176 28.5356 98.0493 23.9458Z" fill="black" stroke="black" stroke-width="3.52941" stroke-miterlimit="10"/>
</g>
<mask id="mask5_2_119" style="mask-type:luminance" maskUnits="userSpaceOnUse" x="76" y="-2" width="30" height="34">
<path d="M76.77 25.2512L84.3313 -1.30145L105.942 4.93828L98.3804 31.491L76.77 25.2512Z" fill="white"/>
</mask>
<g mask="url(#mask5_2_119)">
<path d="M73.6602 14.3467L95.5089 -2.28436L109.034 15.8456L87.1851 32.4765L73.6602 14.3467Z" stroke="black" stroke-width="3.52941" stroke-miterlimit="10"/>
</g>
<path d="M98.052 23.9452C104.084 19.3553 105.944 11.5748 102.206 6.56679C98.4684 1.55885 90.5493 1.21994 84.517 5.8098C78.4851 10.3996 76.625 18.1802 80.3625 23.1882C84.0999 28.1961 92.0193 28.535 98.052 23.9452Z" stroke="black" stroke-width="3.52941" stroke-miterlimit="10"/>
<path d="M73.6582 14.3237L95.4847 -2.28406L109.032 15.869L87.2056 32.4768L73.6582 14.3237Z" fill="black"/>
<mask id="mask6_2_119" style="mask-type:luminance" maskUnits="userSpaceOnUse" x="73" y="-3" width="37" height="36">
<path d="M73.6575 14.3244L95.484 -2.28345L109.032 15.8696L87.2049 32.4775L73.6575 14.3244Z" fill="white"/>
</mask>
<g mask="url(#mask6_2_119)">
<path d="M98.0493 23.9458C104.081 19.3559 105.941 11.5754 102.204 6.5674C98.4667 1.55946 90.5467 1.22055 84.5148 5.81041C78.4829 10.4003 76.6228 18.1808 80.3603 23.1888C84.0977 28.1967 92.0176 28.5356 98.0493 23.9458Z" fill="black" stroke="black" stroke-width="3.52941" stroke-miterlimit="10"/>
</g>
<mask id="mask7_2_119" style="mask-type:luminance" maskUnits="userSpaceOnUse" x="76" y="-2" width="30" height="34">
<path d="M76.77 25.2512L84.3313 -1.30145L105.942 4.93828L98.3804 31.491L76.77 25.2512Z" fill="white"/>
</mask>
<g mask="url(#mask7_2_119)">
<path d="M73.6602 14.3467L95.5089 -2.28436L109.034 15.8456L87.1851 32.4765L73.6602 14.3467Z" stroke="black" stroke-width="3.52941" stroke-miterlimit="10"/>
</g>
<path d="M64.9785 12.3943L96.1491 -11.3243L117.718 17.5768L86.5477 41.2953L64.9785 12.3943Z" stroke="black" stroke-width="3.52941" stroke-miterlimit="10"/>
</g>
<path d="M98.0512 23.945C104.083 19.3551 105.943 11.5746 102.205 6.56667C98.4677 1.55872 90.5486 1.21981 84.5163 5.80968C78.4843 10.3995 76.6243 18.1801 80.3617 23.1881C84.0992 28.196 92.0186 28.5349 98.0512 23.945Z" fill="black" stroke="#F7F7F7" stroke-width="2.64706" stroke-miterlimit="10"/>
<path d="M85.183 13.4371L87.3537 11.9028L90.0237 15.7387C90.4799 16.3524 90.8267 17.01 91.0879 17.7333C91.2396 18.2813 91.1964 18.8731 90.9793 19.3992C90.697 20.0567 90.2408 20.6048 89.6328 20.9993C88.9164 21.5034 88.3084 21.7883 87.7878 21.8761C87.2886 21.9638 86.7676 21.8761 86.2901 21.6569C85.769 21.3938 85.3132 21.0212 84.9658 20.539L86.8327 18.7854C86.9846 19.0266 87.1801 19.2458 87.3971 19.4211C87.5491 19.5307 87.7227 19.5965 87.9181 19.5965C88.07 19.5965 88.2221 19.5307 88.3305 19.4431C88.5476 19.3115 88.6993 19.0485 88.6781 18.7854C88.6128 18.4128 88.4611 18.0402 88.2221 17.7553L85.183 13.4371ZM91.6949 15.8702L93.6705 14.2921C93.8876 14.5551 94.1699 14.7523 94.4734 14.862C94.9076 14.9934 95.3637 14.9057 95.7326 14.6208C95.9937 14.4455 96.2108 14.2043 96.2973 13.8975C96.4279 13.503 96.2108 13.0645 95.8199 12.9331C95.7546 12.9111 95.6893 12.8892 95.624 12.8892C95.3637 12.8673 94.9076 12.9769 94.2352 13.2618C93.1278 13.7221 92.2596 13.8975 91.6084 13.8317C90.9793 13.766 90.3926 13.4371 90.0458 12.8892C89.7846 12.5166 89.6549 12.0782 89.6328 11.6398C89.6328 11.1357 89.7634 10.6315 90.0458 10.2151C90.4579 9.62326 90.9573 9.11908 91.5652 8.72456C92.4767 8.08891 93.2796 7.78204 93.9749 7.78204C94.6693 7.78204 95.3205 8.11083 95.9284 8.79032L93.9749 10.3466C93.584 9.84243 92.8455 9.73285 92.3461 10.1273L92.2817 10.1932C92.0646 10.3246 91.912 10.5219 91.8255 10.7631C91.7602 10.9384 91.8034 11.1357 91.912 11.2891C91.9993 11.3987 92.129 11.4863 92.2817 11.4863C92.4546 11.5083 92.759 11.4206 93.1931 11.2233C94.2784 10.7631 95.1034 10.5001 95.6681 10.4123C96.1455 10.3246 96.6449 10.3685 97.1002 10.5658C97.5131 10.7411 97.8599 11.048 98.099 11.4206C98.4026 11.859 98.5764 12.385 98.5984 12.9331C98.6196 13.503 98.4678 14.0509 98.1643 14.5331C97.7734 15.125 97.274 15.6291 96.6881 16.0237C95.4943 16.8565 94.5176 17.2073 93.7358 17.0758C92.8887 16.9442 92.1943 16.5059 91.6949 15.8702Z" fill="#F7F7F7"/>
</g>
</g>
</g>
</svg>
