<svg width="36" height="36" viewBox="0 0 36 36" fill="none" xmlns="http://www.w3.org/2000/svg">
<rect width="36" height="36" rx="6" fill="#C7F5B5"/>
<path d="M24.532 11.028C24.412 10.644 23.944 10.308 23.128 10.02C22.336 9.70799 21.292 9.55199 19.996 9.55199C18.58 9.55199 17.476 9.94799 16.684 10.74C15.892 11.532 15.496 12.528 15.496 13.728C15.496 14.472 15.76 15.048 16.288 15.456C16.84 15.84 17.68 16.272 18.808 16.752L20.104 17.292L21.184 17.796C22.48 18.372 23.5 18.9 24.244 19.38C25.012 19.836 25.66 20.472 26.188 21.288C26.716 22.104 26.98 23.148 26.98 24.42C26.98 25.788 26.524 26.976 25.612 27.984C24.724 28.968 23.476 29.712 21.868 30.216C20.26 30.744 18.388 31.008 16.252 31.008C14.668 31.008 13.18 30.756 11.788 30.252C10.42 29.772 9.32797 29.16 8.51197 28.416C7.71997 27.672 7.32397 26.94 7.32397 26.22C7.32397 25.524 7.62397 24.96 8.22397 24.528C8.82397 24.072 9.67597 23.76 10.78 23.592C10.9 24.288 11.308 24.912 12.004 25.464C12.7 26.016 13.504 26.46 14.416 26.796C15.352 27.108 16.168 27.264 16.864 27.264C18.136 27.264 19.264 27.012 20.248 26.508C21.256 26.004 21.76 25.308 21.76 24.42C21.76 23.676 21.4 23.064 20.68 22.584C19.984 22.08 18.928 21.54 17.512 20.964L15.604 20.1C14.044 19.332 12.808 18.468 11.896 17.508C10.984 16.548 10.528 15.276 10.528 13.692C10.528 11.94 11.02 10.524 12.004 9.44399C12.988 8.33999 14.176 7.54799 15.568 7.06799C16.984 6.58799 18.364 6.34799 19.708 6.34799C21.844 6.34799 23.596 6.62399 24.964 7.17599C26.356 7.72799 27.364 8.42399 27.988 9.26399C28.612 10.104 28.924 10.968 28.924 11.856C28.924 12.36 28.792 12.972 28.528 13.692C28.288 14.412 27.916 15.036 27.412 15.564C26.932 16.092 26.344 16.356 25.648 16.356C24.448 16.356 23.848 15.732 23.848 14.484C23.896 14.1 24.004 13.476 24.172 12.612C24.34 11.724 24.46 11.196 24.532 11.028Z" fill="#143C3C"/>
<path d="M24.532 11.028C24.412 10.644 23.944 10.308 23.128 10.02C22.336 9.70799 21.292 9.55199 19.996 9.55199C18.58 9.55199 17.476 9.94799 16.684 10.74C15.892 11.532 15.496 12.528 15.496 13.728C15.496 14.472 15.76 15.048 16.288 15.456C16.84 15.84 17.68 16.272 18.808 16.752L20.104 17.292L21.184 17.796C22.48 18.372 23.5 18.9 24.244 19.38C25.012 19.836 25.66 20.472 26.188 21.288C26.716 22.104 26.98 23.148 26.98 24.42C26.98 25.788 26.524 26.976 25.612 27.984C24.724 28.968 23.476 29.712 21.868 30.216C20.26 30.744 18.388 31.008 16.252 31.008C14.668 31.008 13.18 30.756 11.788 30.252C10.42 29.772 9.32797 29.16 8.51197 28.416C7.71997 27.672 7.32397 26.94 7.32397 26.22C7.32397 25.524 7.62397 24.96 8.22397 24.528C8.82397 24.072 9.67597 23.76 10.78 23.592C10.9 24.288 11.308 24.912 12.004 25.464C12.7 26.016 13.504 26.46 14.416 26.796C15.352 27.108 16.168 27.264 16.864 27.264C18.136 27.264 19.264 27.012 20.248 26.508C21.256 26.004 21.76 25.308 21.76 24.42C21.76 23.676 21.4 23.064 20.68 22.584C19.984 22.08 18.928 21.54 17.512 20.964L15.604 20.1C14.044 19.332 12.808 18.468 11.896 17.508C10.984 16.548 10.528 15.276 10.528 13.692C10.528 11.94 11.02 10.524 12.004 9.44399C12.988 8.33999 14.176 7.54799 15.568 7.06799C16.984 6.58799 18.364 6.34799 19.708 6.34799C21.844 6.34799 23.596 6.62399 24.964 7.17599C26.356 7.72799 27.364 8.42399 27.988 9.26399C28.612 10.104 28.924 10.968 28.924 11.856C28.924 12.36 28.792 12.972 28.528 13.692C28.288 14.412 27.916 15.036 27.412 15.564C26.932 16.092 26.344 16.356 25.648 16.356C24.448 16.356 23.848 15.732 23.848 14.484C23.896 14.1 24.004 13.476 24.172 12.612C24.34 11.724 24.46 11.196 24.532 11.028Z" fill="url(#paint0_linear_36_750)" fill-opacity="0.31"/>
<defs>
<linearGradient id="paint0_linear_36_750" x1="8.21787" y1="3.85714" x2="27.0852" y2="6.20263" gradientUnits="userSpaceOnUse">
<stop stop-color="#ACF572"/>
<stop offset="0.995" stop-color="#005E86"/>
</linearGradient>
</defs>
</svg>
