<svg width="48" height="48" viewBox="0 0 48 48" fill="none" xmlns="http://www.w3.org/2000/svg">
<rect width="48" height="48" fill="white"/>
<path d="M30.1074 28.5254L35.1523 30.125C34.3789 32.9375 33.0898 35.0293 31.2852 36.4004C29.4922 37.7598 27.2129 38.4395 24.4473 38.4395C21.0254 38.4395 18.2129 37.2734 16.0098 34.9414C13.8066 32.5977 12.7051 29.3984 12.7051 25.3438C12.7051 21.0547 13.8125 17.7266 16.0273 15.3594C18.2422 12.9805 21.1543 11.791 24.7637 11.791C27.916 11.791 30.4766 12.7227 32.4453 14.5859C33.6172 15.6875 34.4961 17.2695 35.082 19.332L29.9316 20.5625C29.627 19.2266 28.9883 18.1719 28.0156 17.3984C27.0547 16.625 25.8828 16.2383 24.5 16.2383C22.5898 16.2383 21.0371 16.9238 19.8418 18.2949C18.6582 19.666 18.0664 21.8867 18.0664 24.957C18.0664 28.2148 18.6523 30.5352 19.8242 31.918C20.9961 33.3008 22.5195 33.9922 24.3945 33.9922C25.7773 33.9922 26.9668 33.5527 27.9629 32.6738C28.959 31.7949 29.6738 30.4121 30.1074 28.5254Z" fill="black"/>
</svg>
