<svg width="0" height="0">
  <defs>
    <clipPath id="puzzle" clipPathUnits="objectBoundingBox">
      <path id="curve" transform="scale(0.00135, 0.00254)" d="M0 0H67V15C68.0506 15 69.0909 15.2069 70.0615 15.609C71.0321 16.011 71.914 16.6003 72.6569 17.3431C73.3997 18.086 73.989 18.9679 74.391 19.9385C74.7931 20.9091 75 21.9494 75 23C75 24.0506 74.7931 25.0909 74.391 26.0615C73.989 27.0321 73.3997 27.914 72.6569 28.6569C71.914 29.3997 71.0321 29.989 70.0615 30.391C69.0909 30.7931 68.0506 31 67 31V46H0V31C1.05057 31 2.09086 30.7931 3.06147 30.391C4.03207 29.989 4.91399 29.3997 5.65685 28.6569C6.39972 27.914 6.989 27.0321 7.39104 26.0615C7.79307 25.0909 8 24.0506 8 23C8 21.9494 7.79307 20.9091 7.39104 19.9385C6.989 18.9679 6.39972 18.086 5.65685 17.3431C4.91399 16.6003 4.03207 16.011 3.06147 15.609C2.09086 15.2069 1.05058 15 0 15V0Z" fill="white"/>
    </clipPath>
  </defs>
</svg>