<?xml version="1.0" encoding="UTF-8" standalone="no"?>
<!-- Created with Inkscape (http://www.inkscape.org/) -->

<svg
   version="1.1"
   id="svg2"
   width="666.66669"
   height="666.66669"
   viewBox="0 0 666.66669 666.66669"
   sodipodi:docname="8161039.ai"
   xmlns:inkscape="http://www.inkscape.org/namespaces/inkscape"
   xmlns:sodipodi="http://sodipodi.sourceforge.net/DTD/sodipodi-0.dtd"
   xmlns="http://www.w3.org/2000/svg"
   xmlns:svg="http://www.w3.org/2000/svg">
  <defs
     id="defs6">
    <clipPath
       clipPathUnits="userSpaceOnUse"
       id="clipPath16">
      <path
         d="M 0,500 H 500 V 0 H 0 Z"
         id="path14" />
    </clipPath>
    <clipPath
       clipPathUnits="userSpaceOnUse"
       id="clipPath28">
      <path
         d="M 6.35873,475.992 H 485.693 V 23.9483 H 6.35873 Z"
         id="path26" />
    </clipPath>
    <clipPath
       clipPathUnits="userSpaceOnUse"
       id="clipPath44">
      <path
         d="M 0,500 H 500 V 0 H 0 Z"
         id="path42" />
    </clipPath>
    <clipPath
       clipPathUnits="userSpaceOnUse"
       id="clipPath76">
      <path
         d="M 0,500 H 500 V 0 H 0 Z"
         id="path74" />
    </clipPath>
    <clipPath
       clipPathUnits="userSpaceOnUse"
       id="clipPath114">
      <path
         d="M 0,500 H 500 V 0 H 0 Z"
         id="path112" />
    </clipPath>
    <clipPath
       clipPathUnits="userSpaceOnUse"
       id="clipPath174">
      <path
         d="M 0,500 H 500 V 0 H 0 Z"
         id="path172" />
    </clipPath>
    <clipPath
       clipPathUnits="userSpaceOnUse"
       id="clipPath210">
      <path
         d="M 0,500 H 500 V 0 H 0 Z"
         id="path208" />
    </clipPath>
    <clipPath
       clipPathUnits="userSpaceOnUse"
       id="clipPath238">
      <path
         d="M 0,500 H 500 V 0 H 0 Z"
         id="path236" />
    </clipPath>
    <clipPath
       clipPathUnits="userSpaceOnUse"
       id="clipPath282">
      <path
         d="M 0,500 H 500 V 0 H 0 Z"
         id="path280" />
    </clipPath>
  </defs>
  <sodipodi:namedview
     id="namedview4"
     pagecolor="#ffffff"
     bordercolor="#000000"
     borderopacity="0.25"
     inkscape:showpageshadow="2"
     inkscape:pageopacity="0.0"
     inkscape:pagecheckerboard="0"
     inkscape:deskcolor="#d1d1d1" />
  <g
     id="g8"
     inkscape:groupmode="layer"
     inkscape:label="8161039"
     transform="matrix(1.3333333,0,0,-1.3333333,0,666.66667)">
    <g
       id="g10">
      <g
         id="g12"
         clip-path="url(#clipPath16)">
        <g
           id="g18"
           transform="translate(380.6954,469.2295)">
          <path
             d="m 0,0 c 0,0 -305.368,-53.826 -367.781,-90.823 -32,-18.968 62.398,-343.057 84.31,-351.543 21.912,-8.486 328.75,3.176 345.488,14.229 16.738,11.052 47.543,385.707 42.412,407.677 C 99.297,1.508 74.367,15.936 0,0"
             style="fill:#5ae4a7;fill-opacity:1;fill-rule:nonzero;stroke:none"
             id="path20" />
        </g>
        <g
           id="g22">
          <g
             id="g24" />
          <g
             id="g36">
            <g
               clip-path="url(#clipPath28)"
               opacity="0.699997"
               id="g34">
              <g
                 transform="translate(380.6954,469.2295)"
                 id="g32">
                <path
                   d="m 0,0 c 0,0 -305.368,-53.826 -367.781,-90.823 -32,-18.968 62.398,-343.057 84.31,-351.543 21.912,-8.486 328.75,3.176 345.488,14.229 16.738,11.052 47.543,385.707 42.412,407.677 C 99.297,1.508 74.367,15.936 0,0"
                   style="fill:#ffffff;fill-opacity:1;fill-rule:nonzero;stroke:none"
                   id="path30" />
              </g>
            </g>
          </g>
        </g>
      </g>
    </g>
    <g
       id="g38">
      <g
         id="g40"
         clip-path="url(#clipPath44)">
        <g
           id="g46"
           transform="translate(388.7921,285.0937)">
          <path
             d="m 0,0 v -90.028 c -4.448,-0.696 -15.174,-2.38 -19.837,-3.156 -5.946,-0.999 -18.339,0 -15.37,5.947 2.978,5.946 3.478,19.338 -8.425,20.327 -11.902,0.989 -13.39,-7.436 -8.925,-15.37 4.458,-7.935 -2.478,-11.903 -12.401,-11.404 -6.134,0.313 -17.572,0.803 -29.278,0.438 2.175,17.492 4.77,36.473 2.505,38.737 -3.967,3.968 -13.391,-4.467 -18.838,-1.988 -5.456,2.478 -8.925,15.37 -2.978,19.338 5.947,3.967 11.902,-0.99 17.35,-1.489 5.456,-0.491 6.446,0.999 7.444,6.945 0.58,3.459 -0.865,20.184 -2.461,34.155 24.473,-0.072 37.526,1.426 36.179,-4.904 -1.488,-6.936 -5.955,-17.349 2.478,-21.317 8.426,-3.967 15.861,-0.989 16.86,6.446 0.989,7.436 -6.946,14.381 -1.989,18.348 C -34.966,3.201 -17.153,1.498 0,0"
             style="fill:#1a2e35;fill-opacity:1;fill-rule:nonzero;stroke:none"
             id="path48" />
        </g>
        <g
           id="g50"
           transform="translate(388.7921,285.0937)">
          <path
             d="m 0,0 v -90.028 c -4.448,-0.696 -15.174,-2.38 -19.837,-3.156 -5.946,-0.999 -18.339,0 -15.37,5.947 2.978,5.946 3.478,19.338 -8.425,20.327 -11.902,0.989 -13.39,-7.436 -8.925,-15.37 4.458,-7.935 -2.478,-11.903 -12.401,-11.404 -6.134,0.313 -17.572,0.803 -29.278,0.438 2.175,17.492 4.77,36.473 2.505,38.737 -3.967,3.968 -13.391,-4.467 -18.838,-1.988 -5.456,2.478 -8.925,15.37 -2.978,19.338 5.947,3.967 11.902,-0.99 17.35,-1.489 5.456,-0.491 6.446,0.999 7.444,6.945 0.58,3.459 -0.865,20.184 -2.461,34.155 24.473,-0.072 37.526,1.426 36.179,-4.904 -1.488,-6.936 -5.955,-17.349 2.478,-21.317 8.426,-3.967 15.861,-0.989 16.86,6.446 0.989,7.436 -6.946,14.381 -1.989,18.348 C -34.966,3.201 -17.153,1.498 0,0 Z"
             style="fill:none;stroke:#1a2e35;stroke-width:1;stroke-linecap:round;stroke-linejoin:round;stroke-miterlimit:10;stroke-dasharray:none;stroke-opacity:1"
             id="path52" />
        </g>
        <g
           id="g54"
           transform="translate(178.5573,148.2686)">
          <path
             d="m 0,0 c -1.489,-8.924 6.936,-14.871 12.393,-11.893 5.456,2.969 13.881,5.448 13.881,-3.477 0,-4.601 -0.526,-18.179 -1.034,-30.241 H -63.968 V 44.97 c 3.343,-0.339 8.166,-0.285 14.381,1.15 12.891,2.969 22.315,5.946 21.325,-2.478 -0.998,-8.435 -6.446,-20.828 5.448,-21.826 11.901,-0.99 15.37,5.456 14.38,13.89 -0.989,8.426 1.489,14.381 9.424,13.383 4.021,-0.5 14.915,-2.025 25.596,-3.46 C 27.344,31.472 28.485,17.813 28.262,14.381 27.763,6.945 22.806,5.956 15.861,7.935 8.924,9.923 1.489,8.925 0,0"
             style="fill:#5ae4a7;fill-opacity:1;fill-rule:nonzero;stroke:none"
             id="path56" />
        </g>
        <g
           id="g58"
           transform="translate(178.5573,148.2686)">
          <path
             d="m 0,0 c -1.489,-8.924 6.936,-14.871 12.393,-11.893 5.456,2.969 13.881,5.448 13.881,-3.477 0,-4.601 -0.526,-18.179 -1.034,-30.241 H -63.968 V 44.97 c 3.343,-0.339 8.166,-0.285 14.381,1.15 12.891,2.969 22.315,5.946 21.325,-2.478 -0.998,-8.435 -6.446,-20.828 5.448,-21.826 11.901,-0.99 15.37,5.456 14.38,13.89 -0.989,8.426 1.489,14.381 9.424,13.383 4.021,-0.5 14.915,-2.025 25.596,-3.46 C 27.344,31.472 28.485,17.813 28.262,14.381 27.763,6.945 22.806,5.956 15.861,7.935 8.924,9.923 1.489,8.925 0,0 Z"
             style="fill:none;stroke:#1a2e35;stroke-width:1;stroke-linecap:round;stroke-linejoin:round;stroke-miterlimit:10;stroke-dasharray:none;stroke-opacity:1"
             id="path60" />
        </g>
        <g
           id="g62"
           transform="translate(299.8844,253.2085)">
          <path
             d="m 0,0 c -0.999,-5.95 -1.989,-7.44 -7.448,-6.949 -5.45,0.499 -11.409,5.459 -17.359,1.49 -5.95,-3.97 -2.48,-16.869 2.979,-19.348 5.451,-2.481 14.879,5.958 18.849,1.989 2.266,-2.265 -0.33,-21.257 -2.507,-38.759 -7.234,-0.222 -14.567,-0.785 -20.811,-1.926 -16.369,-2.98 -15.378,5.459 -11.908,12.898 3.478,7.439 -0.491,15.878 -13.39,13.889 -12.898,-1.98 -8.438,-9.919 -5.958,-17.359 2.479,-7.439 -6.449,-8.928 -13.389,-8.438 -3.435,0.25 -13.622,1.579 -24.005,2.988 -0.892,16.556 -1.266,33.808 1.677,36.207 5.459,4.469 8.43,-3.97 15.378,-2.979 6.95,0.999 8.93,5.459 7.44,15.379 -1.49,9.928 -8.43,8.938 -15.878,5.959 -7.44,-2.98 -11.899,0 -12.399,8.429 -0.286,4.825 1.052,18.563 2.444,30.837 5.825,-0.401 11.24,-0.571 15.414,-0.071 12.408,1.48 25.797,1.98 26.297,-4.469 0.5,-6.45 -5.459,-10.419 -4.469,-16.369 0.999,-5.959 13.398,-9.429 19.848,-3.969 6.449,5.459 -3.97,15.868 0.499,22.318 4.46,6.449 -0.499,2.979 28.768,2.489 2.595,-0.045 5.084,-0.063 7.466,-0.063 C -0.865,20.195 0.58,3.461 0,0"
             style="fill:#5ae4a7;fill-opacity:1;fill-rule:nonzero;stroke:none"
             id="path64" />
        </g>
        <g
           id="g66"
           transform="translate(299.8844,253.2085)">
          <path
             d="m 0,0 c -0.999,-5.95 -1.989,-7.44 -7.448,-6.949 -5.45,0.499 -11.409,5.459 -17.359,1.49 -5.95,-3.97 -2.48,-16.869 2.979,-19.348 5.451,-2.481 14.879,5.958 18.849,1.989 2.266,-2.265 -0.33,-21.257 -2.507,-38.759 -7.234,-0.222 -14.567,-0.785 -20.811,-1.926 -16.369,-2.98 -15.378,5.459 -11.908,12.898 3.478,7.439 -0.491,15.878 -13.39,13.889 -12.898,-1.98 -8.438,-9.919 -5.958,-17.359 2.479,-7.439 -6.449,-8.928 -13.389,-8.438 -3.435,0.25 -13.622,1.579 -24.005,2.988 -0.892,16.556 -1.266,33.808 1.677,36.207 5.459,4.469 8.43,-3.97 15.378,-2.979 6.95,0.999 8.93,5.459 7.44,15.379 -1.49,9.928 -8.43,8.938 -15.878,5.959 -7.44,-2.98 -11.899,0 -12.399,8.429 -0.286,4.825 1.052,18.563 2.444,30.837 5.825,-0.401 11.24,-0.571 15.414,-0.071 12.408,1.48 25.797,1.98 26.297,-4.469 0.5,-6.45 -5.459,-10.419 -4.469,-16.369 0.999,-5.959 13.398,-9.429 19.848,-3.969 6.449,5.459 -3.97,15.868 0.499,22.318 4.46,6.449 -0.499,2.979 28.768,2.489 2.595,-0.045 5.084,-0.063 7.466,-0.063 C -0.865,20.195 0.58,3.461 0,0 Z"
             style="fill:none;stroke:#1a2e35;stroke-width:1;stroke-linecap:round;stroke-linejoin:round;stroke-miterlimit:10;stroke-dasharray:none;stroke-opacity:1"
             id="path68" />
        </g>
      </g>
    </g>
    <g
       id="g70">
      <g
         id="g72"
         clip-path="url(#clipPath76)">
        <g
           id="g78"
           transform="translate(240.0939,35.2588)">
          <path
             d="m 0,0 c 0,0 -1.081,9.003 -4.322,21.249 -3.241,12.245 -10.804,24.13 -10.804,29.893 0,5.761 11.884,39.616 13.325,41.777 1.441,2.161 9.364,15.126 11.525,14.406 2.161,-0.721 3.241,-3.962 3.241,-3.962 0,0 5.042,6.483 7.924,5.403 2.881,-1.08 2.161,-3.242 2.161,-3.242 0,0 5.762,0.72 7.203,-1.8 1.44,-2.522 0.36,-5.763 0.36,-5.763 0,0 5.402,-3.602 5.402,-7.564 0,-3.96 -2.521,-33.133 -2.521,-35.294 0,-2.161 2.881,-18.007 1.081,-28.452 C 32.774,16.206 30.973,10.444 30.973,10.444 l 1.801,-11.165 z"
             style="fill:#ffffff;fill-opacity:1;fill-rule:nonzero;stroke:none"
             id="path80" />
        </g>
        <g
           id="g82"
           transform="translate(240.0939,35.2588)">
          <path
             d="m 0,0 c 0,0 -1.081,9.003 -4.322,21.249 -3.241,12.245 -10.804,24.13 -10.804,29.893 0,5.761 11.884,39.616 13.325,41.777 1.441,2.161 9.364,15.126 11.525,14.406 2.161,-0.721 3.241,-3.962 3.241,-3.962 0,0 5.042,6.483 7.924,5.403 2.881,-1.08 2.161,-3.242 2.161,-3.242 0,0 5.762,0.72 7.203,-1.8 1.44,-2.522 0.36,-5.763 0.36,-5.763 0,0 5.402,-3.602 5.402,-7.564 0,-3.96 -2.521,-33.133 -2.521,-35.294 0,-2.161 2.881,-18.007 1.081,-28.452 C 32.774,16.206 30.973,10.444 30.973,10.444 l 1.801,-11.165 z"
             style="fill:none;stroke:#1a2e35;stroke-width:1;stroke-linecap:round;stroke-linejoin:round;stroke-miterlimit:10;stroke-dasharray:none;stroke-opacity:1"
             id="path84" />
        </g>
        <g
           id="g86"
           transform="translate(311.9415,131.6221)">
          <path
             d="m 0,0 c -5.956,-0.499 -8.435,6.937 -13.891,3.469 -5.456,-3.469 -5.456,-5.456 -4.957,-14.871 0.357,-6.776 1.739,-16.111 2.488,-20.827 h -91.785 c 0.509,12.063 1.035,25.641 1.035,30.242 0,8.924 -8.426,6.445 -13.882,3.476 -5.456,-2.977 -13.881,2.969 -12.392,11.894 1.489,8.924 8.924,9.923 15.861,7.934 6.944,-1.979 11.901,-0.99 12.401,6.446 0.223,3.432 -0.919,17.091 -1.676,31.249 10.377,-1.408 20.559,-2.738 23.991,-2.987 6.936,-0.491 15.861,0.998 13.382,8.434 -2.478,7.436 -6.936,15.37 5.956,17.35 12.891,1.988 16.859,-6.447 13.382,-13.882 -3.469,-7.436 -4.458,-15.869 11.902,-12.892 6.241,1.142 13.569,1.703 20.8,1.926 -1.632,-13.106 -3.023,-25.373 -1.962,-29.198 2.488,-8.924 7.445,-9.414 12.402,-7.436 4.957,1.98 13.881,2.479 15.37,-5.946 C 9.913,5.947 5.946,0.491 0,0"
             style="fill:#1a2e35;fill-opacity:1;fill-rule:nonzero;stroke:none"
             id="path88" />
        </g>
        <g
           id="g90"
           transform="translate(311.9415,131.6221)">
          <path
             d="m 0,0 c -5.956,-0.499 -8.435,6.937 -13.891,3.469 -5.456,-3.469 -5.456,-5.456 -4.957,-14.871 0.357,-6.776 1.739,-16.111 2.488,-20.827 h -91.785 c 0.509,12.063 1.035,25.641 1.035,30.242 0,8.924 -8.426,6.445 -13.882,3.476 -5.456,-2.977 -13.881,2.969 -12.392,11.894 1.489,8.924 8.924,9.923 15.861,7.934 6.944,-1.979 11.901,-0.99 12.401,6.446 0.223,3.432 -0.919,17.091 -1.676,31.249 10.377,-1.408 20.559,-2.738 23.991,-2.987 6.936,-0.491 15.861,0.998 13.382,8.434 -2.478,7.436 -6.936,15.37 5.956,17.35 12.891,1.988 16.859,-6.447 13.382,-13.882 -3.469,-7.436 -4.458,-15.869 11.902,-12.892 6.241,1.142 13.569,1.703 20.8,1.926 -1.632,-13.106 -3.023,-25.373 -1.962,-29.198 2.488,-8.924 7.445,-9.414 12.402,-7.436 4.957,1.98 13.881,2.479 15.37,-5.946 C 9.913,5.947 5.946,0.491 0,0 Z"
             style="fill:none;stroke:#1a2e35;stroke-width:1;stroke-linecap:round;stroke-linejoin:round;stroke-miterlimit:10;stroke-dasharray:none;stroke-opacity:1"
             id="path92" />
        </g>
        <g
           id="g94"
           transform="translate(236.8522,77.0361)">
          <path
             d="m 0,0 c 0,0 0.36,10.444 1.801,15.126 1.441,4.683 4.322,13.326 4.682,18.368 0.36,5.042 -1.441,13.686 2.521,12.966 3.962,-0.721 7.203,-5.402 8.284,-11.525 1.08,-6.123 -2.162,-15.487 -1.801,-18.008 0.36,-2.521 7.203,-9.724 7.923,-16.206 0.72,-6.484 -0.36,-14.047 -0.72,-15.847"
             style="fill:#ffffff;fill-opacity:1;fill-rule:nonzero;stroke:#1a2e35;stroke-width:1;stroke-linecap:round;stroke-linejoin:round;stroke-miterlimit:10;stroke-dasharray:none;stroke-opacity:1"
             id="path96" />
        </g>
        <g
           id="g98"
           transform="translate(236.132,39.9404)">
          <path
             d="M 0,0 H 43.579 V -20.528 L 0,-18.728 Z"
             style="fill:#ffffff;fill-opacity:1;fill-rule:nonzero;stroke:none"
             id="path100" />
        </g>
        <g
           id="g102"
           transform="translate(236.132,39.9404)">
          <path
             d="M 0,0 H 43.579 V -20.528 L 0,-18.728 Z"
             style="fill:none;stroke:#1a2e35;stroke-width:1;stroke-linecap:round;stroke-linejoin:round;stroke-miterlimit:10;stroke-dasharray:none;stroke-opacity:1"
             id="path104" />
        </g>
        <path
           d="m 234.692,21.213 h 50.421 V -0.61 h -50.421 z"
           style="fill:#1a2e35;fill-opacity:1;fill-rule:nonzero;stroke:#1a2e35;stroke-width:1;stroke-linecap:round;stroke-linejoin:round;stroke-miterlimit:10;stroke-dasharray:none;stroke-opacity:1"
           id="path106" />
      </g>
    </g>
    <g
       id="g108">
      <g
         id="g110"
         clip-path="url(#clipPath114)">
        <g
           id="g116"
           transform="translate(399.049,188.0488)">
          <path
             d="m 0,0 -10.875,-91.767 -92.563,10.97 c -0.188,4.772 -0.462,14.204 -0.019,20.975 0.612,9.408 0.846,11.382 6.672,14.183 5.827,2.802 7.413,-4.873 13.386,-5.078 5.963,-0.213 10.545,4.738 10.059,13.289 -0.487,8.542 -9.408,9.097 -14.563,7.714 -5.156,-1.382 -10.021,-0.311 -11.441,8.844 -0.603,3.923 2.221,15.941 5.384,28.764 11.668,-1.015 22.969,-2.848 29.023,-3.879 9.795,-1.664 17.151,1.46 13.658,9.864 -3.502,8.405 -1.033,16.597 10.671,14.213 11.703,-2.384 9.63,-15.622 5.974,-21.178 C -38.282,1.358 -26.093,-1.092 -20.07,-0.8 -15.349,-0.578 -4.5,-0.167 0,0"
             style="fill:#5ae4a7;fill-opacity:1;fill-rule:nonzero;stroke:none"
             id="path118" />
        </g>
        <g
           id="g120"
           transform="translate(399.049,188.0488)">
          <path
             d="m 0,0 -10.875,-91.767 -92.563,10.97 c -0.188,4.772 -0.462,14.204 -0.019,20.975 0.612,9.408 0.846,11.382 6.672,14.183 5.827,2.802 7.413,-4.873 13.386,-5.078 5.963,-0.213 10.545,4.738 10.059,13.289 -0.487,8.542 -9.408,9.097 -14.563,7.714 -5.156,-1.382 -10.021,-0.311 -11.441,8.844 -0.603,3.923 2.221,15.941 5.384,28.764 11.668,-1.015 22.969,-2.848 29.023,-3.879 9.795,-1.664 17.151,1.46 13.658,9.864 -3.502,8.405 -1.033,16.597 10.671,14.213 11.703,-2.384 9.63,-15.622 5.974,-21.178 C -38.282,1.358 -26.093,-1.092 -20.07,-0.8 -15.349,-0.578 -4.5,-0.167 0,0 Z"
             style="fill:none;stroke:#1a2e35;stroke-width:1;stroke-linecap:round;stroke-linejoin:round;stroke-miterlimit:10;stroke-dasharray:none;stroke-opacity:1"
             id="path122" />
        </g>
        <g
           id="g124"
           transform="translate(417.674,171.5918)">
          <path
             d="m 0,0 c 0,0 10.668,-3.854 16.017,-2.668 5.348,1.187 9.816,3.589 9.816,3.589 L 15.764,9.194 3.685,4.892 Z"
             style="fill:#d7d7d7;fill-opacity:1;fill-rule:nonzero;stroke:none"
             id="path126" />
        </g>
        <g
           id="g128"
           transform="translate(417.674,171.5918)">
          <path
             d="m 0,0 c 0,0 10.668,-3.854 16.017,-2.668 5.348,1.187 9.816,3.589 9.816,3.589 L 15.764,9.194 3.685,4.892 Z"
             style="fill:none;stroke:#1a2e35;stroke-width:1;stroke-linecap:round;stroke-linejoin:round;stroke-miterlimit:10;stroke-dasharray:none;stroke-opacity:1"
             id="path130" />
        </g>
        <g
           id="g132"
           transform="translate(499.8048,217.0605)">
          <path
             d="m 0,0 c -13.844,-4.44 -25.055,-8.704 -26.943,-9.299 -4.117,-1.296 -24.04,0.085 -29.171,0.905 -5.131,0.821 -27.997,11.542 -31.629,10.92 -3.633,-0.622 -4.04,0.12 -6.332,-1.994 -2.293,-2.114 -21.499,-20.692 -22.643,-23.14 -1.142,-2.448 -8.22,-20.86 -8.924,-25.258 -0.703,-4.398 -0.981,-8.488 0.626,-9.722 1.607,-1.233 3.489,-1.684 5.24,-0.611 1.75,1.073 2.684,3.63 3.827,6.077 1.143,2.448 0.97,4.656 0.97,4.656 0,0 9.649,-6.88 11.432,-7.014 1.782,-0.135 4.699,1.654 4.699,1.654 0,0 2.873,-0.835 4.448,-0.862 1.574,-0.026 11.237,0.234 13.987,1.448 2.75,1.214 5.001,4.011 5.027,5.585 0.027,1.575 -0.505,4.365 -0.505,4.365 l 8.074,2.543 c 0,0 12.012,-9.963 20.901,-8.903 8.89,1.058 16.348,4.452 17.464,5.325 1.117,0.874 4.599,1.971 4.599,1.971 L 0,-38.516 Z"
             style="fill:#d7d7d7;fill-opacity:1;fill-rule:nonzero;stroke:none"
             id="path134" />
        </g>
        <g
           id="g136"
           transform="translate(499.8048,217.0605)">
          <path
             d="m 0,0 c -13.844,-4.44 -25.055,-8.704 -26.943,-9.299 -4.117,-1.296 -24.04,0.085 -29.171,0.905 -5.131,0.821 -27.997,11.542 -31.629,10.92 -3.633,-0.622 -4.04,0.12 -6.332,-1.994 -2.293,-2.114 -21.499,-20.692 -22.643,-23.14 -1.142,-2.448 -8.22,-20.86 -8.924,-25.258 -0.703,-4.398 -0.981,-8.488 0.626,-9.722 1.607,-1.233 3.489,-1.684 5.24,-0.611 1.75,1.073 2.684,3.63 3.827,6.077 1.143,2.448 0.97,4.656 0.97,4.656 0,0 9.649,-6.88 11.432,-7.014 1.782,-0.135 4.699,1.654 4.699,1.654 0,0 2.873,-0.835 4.448,-0.862 1.574,-0.026 11.237,0.234 13.987,1.448 2.75,1.214 5.001,4.011 5.027,5.585 0.027,1.575 -0.505,4.365 -0.505,4.365 l 8.074,2.543 c 0,0 12.012,-9.963 20.901,-8.903 8.89,1.058 16.348,4.452 17.464,5.325 1.117,0.874 4.599,1.971 4.599,1.971 L 0,-38.516 Z"
             style="fill:none;stroke:#1a2e35;stroke-width:1;stroke-linecap:round;stroke-linejoin:round;stroke-miterlimit:10;stroke-dasharray:none;stroke-opacity:1"
             id="path138" />
        </g>
        <g
           id="g140"
           transform="translate(415.8361,187.7139)">
          <path
             d="m 0,0 c 0,0 -12.037,-10.403 -11.597,-12.354 0.44,-1.949 1.895,-6.015 3.443,-7.616 1.548,-1.6 3.928,-3.634 5.92,-3.878 1.99,-0.243 5.115,1.438 5.675,3.529 0.56,2.09 -0.106,3.098 -0.106,3.098"
             style="fill:none;stroke:#1a2e35;stroke-width:1;stroke-linecap:round;stroke-linejoin:round;stroke-miterlimit:10;stroke-dasharray:none;stroke-opacity:1"
             id="path142" />
        </g>
        <g
           id="g144"
           transform="translate(416.5616,168.2793)">
          <path
             d="M 0,0 C 0,0 6.793,4.401 7.353,6.491"
             style="fill:none;stroke:#1a2e35;stroke-width:1;stroke-linecap:round;stroke-linejoin:round;stroke-miterlimit:10;stroke-dasharray:none;stroke-opacity:1"
             id="path146" />
        </g>
        <g
           id="g148"
           transform="translate(407.2794,197.1992)">
          <path
             d="m 0,0 c 0,0 -15.268,-8.984 -15.369,-11.975 -0.103,-2.99 0.922,-13.978 1.995,-15.728 0,0 2.862,-4.667 7.052,-5.262"
             style="fill:none;stroke:#1a2e35;stroke-width:1;stroke-linecap:round;stroke-linejoin:round;stroke-miterlimit:10;stroke-dasharray:none;stroke-opacity:1"
             id="path150" />
        </g>
        <g
           id="g152"
           transform="translate(403.9308,207.2812)">
          <path
             d="m 0,0 c 0,0 -18.076,-10.565 -19.51,-11.538 -1.433,-0.974 -2.602,-4.996 -2.347,-8.57 0.255,-3.574 0.798,-11.929 1.081,-13.929 0.281,-1.999 0.739,-2.9 1.672,-3.65"
             style="fill:none;stroke:#1a2e35;stroke-width:1;stroke-linecap:round;stroke-linejoin:round;stroke-miterlimit:10;stroke-dasharray:none;stroke-opacity:1"
             id="path154" />
        </g>
        <g
           id="g156"
           transform="translate(420.379,214.7246)">
          <path
             d="M 0,0 C 0,0 -3.28,1.576 -5.723,-0.062 -8.164,-1.702 -9.606,-3.2 -9.606,-3.2"
             style="fill:none;stroke:#1a2e35;stroke-width:1;stroke-linecap:round;stroke-linejoin:round;stroke-miterlimit:10;stroke-dasharray:none;stroke-opacity:1"
             id="path158" />
        </g>
        <g
           id="g160"
           transform="translate(427.3116,205.4229)">
          <path
             d="M 0,0 C -0.613,1.323 -5.189,0.831 -6.433,-1.678"
             style="fill:none;stroke:#1a2e35;stroke-width:1;stroke-linecap:round;stroke-linejoin:round;stroke-miterlimit:10;stroke-dasharray:none;stroke-opacity:1"
             id="path162" />
        </g>
        <g
           id="g164"
           transform="translate(431.3439,195.3818)">
          <path
             d="M 0,0 C 0,0 -2.308,0.144 -3.642,-1.146 L -4.976,-2.437"
             style="fill:none;stroke:#1a2e35;stroke-width:1;stroke-linecap:round;stroke-linejoin:round;stroke-miterlimit:10;stroke-dasharray:none;stroke-opacity:1"
             id="path166" />
        </g>
      </g>
    </g>
    <g
       id="g168">
      <g
         id="g170"
         clip-path="url(#clipPath174)">
        <g
           id="g176"
           transform="translate(400.297,403.1895)">
          <path
             d="m 0,0 7.116,-92.974 c -17.218,0.184 -35.109,0.522 -37.654,-1.854 -4.64,-4.334 3.802,-10.653 3.383,-18.143 -0.429,-7.49 -7.616,-11.027 -16.319,-7.714 -8.712,3.313 -5.052,14.037 -4.097,21.066 0.859,6.414 -12.041,3.925 -36.448,2.128 -1.903,9.914 -3.788,18.407 -4.504,19.604 -1.712,2.856 -3.38,11.679 0.799,15.476 4.189,3.808 12.592,-2.013 16.924,-0.197 4.34,1.825 5.138,4.372 4.992,12.819 -0.154,8.438 -8.63,8.791 -13.308,4.946 -4.678,-3.837 -12.551,-4.94 -13.46,6.927 -0.661,8.641 0.314,23.478 0.899,30.899 z"
             style="fill:#5ae4a7;fill-opacity:1;fill-rule:nonzero;stroke:none"
             id="path178" />
        </g>
        <g
           id="g180"
           transform="translate(400.297,403.1895)">
          <path
             d="m 0,0 7.116,-92.974 c -17.218,0.184 -35.109,0.522 -37.654,-1.854 -4.64,-4.334 3.802,-10.653 3.383,-18.143 -0.429,-7.49 -7.616,-11.027 -16.319,-7.714 -8.712,3.313 -5.052,14.037 -4.097,21.066 0.859,6.414 -12.041,3.925 -36.448,2.128 -1.903,9.914 -3.788,18.407 -4.504,19.604 -1.712,2.856 -3.38,11.679 0.799,15.476 4.189,3.808 12.592,-2.013 16.924,-0.197 4.34,1.825 5.138,4.372 4.992,12.819 -0.154,8.438 -8.63,8.791 -13.308,4.946 -4.678,-3.837 -12.551,-4.94 -13.46,6.927 -0.661,8.641 0.314,23.478 0.899,30.899 z"
             style="fill:none;stroke:#1a2e35;stroke-width:1;stroke-linecap:round;stroke-linejoin:round;stroke-miterlimit:10;stroke-dasharray:none;stroke-opacity:1"
             id="path182" />
        </g>
        <g
           id="g184"
           transform="translate(495.8214,500.1216)">
          <path
             d="m 0,0 c -19.467,-18.149 -44.947,-41.877 -47.316,-43.937 -3.878,-3.37 -30.613,-4.738 -32.413,-4.835 -1.8,-0.099 -9.573,1.734 -9.573,1.734 0,0 -8.106,-1.977 -9.271,-2.13 -1.165,-0.154 -19.289,-5.475 -21.459,-5.413 -2.169,0.062 -6.669,-0.183 -6.306,-1.878 0.363,-1.695 0.308,-2.331 2.261,-3.397 1.954,-1.067 6.823,-0.982 6.823,-0.982 0,0 -12.256,-6.987 -15.116,-7.504 -2.86,-0.517 -8.839,-0.121 -8.483,-3.351 0.357,-3.23 6.071,-3.731 8.561,-3.054 2.491,0.678 18.976,6.27 18.976,6.27 0,0 -11.042,-7.732 -14.754,-9.199 -3.711,-1.466 -9.697,-2.605 -10.653,-3.288 -0.955,-0.684 -2.795,-9.992 7.913,-6.068 10.708,3.924 21.856,11.391 21.856,11.391 0,0 -5.106,-5.694 -5.377,-7.334 -0.223,-1.339 -2.22,-10.88 -3.506,-15.855 l 9.885,0.79 c 2.248,4.063 4.293,8.774 4.659,9.62 0.481,1.109 12.004,9.952 12.004,9.952 l 5.839,3.838 c 0,0 5.953,-6.536 5.786,-8.44 -0.167,-1.905 -1.882,-6.872 -3.64,-9.406 -1.758,-2.533 -5.112,-7.229 -9.353,-8.904 -4.241,-1.676 -9.255,-10.705 -9.052,-12.77 0.202,-2.065 3.985,-8.538 7.124,-4.847 3.139,3.692 23.861,22.604 31.814,25.746 7.953,3.141 21.066,12.612 25.272,18.257 4.205,5.645 8.027,8.381 8.027,8.381 L 4.162,-49.565 V 0 Z"
             style="fill:#ffffff;fill-opacity:1;fill-rule:nonzero;stroke:none"
             id="path186" />
        </g>
        <g
           id="g188"
           transform="translate(495.8214,500.1216)">
          <path
             d="m 0,0 c -19.467,-18.149 -44.947,-41.877 -47.316,-43.937 -3.878,-3.37 -30.613,-4.738 -32.413,-4.835 -1.8,-0.099 -9.573,1.734 -9.573,1.734 0,0 -8.106,-1.977 -9.271,-2.13 -1.165,-0.154 -19.289,-5.475 -21.459,-5.413 -2.169,0.062 -6.669,-0.183 -6.306,-1.878 0.363,-1.695 0.308,-2.331 2.261,-3.397 1.954,-1.067 6.823,-0.982 6.823,-0.982 0,0 -12.256,-6.987 -15.116,-7.504 -2.86,-0.517 -8.839,-0.121 -8.483,-3.351 0.357,-3.23 6.071,-3.731 8.561,-3.054 2.491,0.678 18.976,6.27 18.976,6.27 0,0 -11.042,-7.732 -14.754,-9.199 -3.711,-1.466 -9.697,-2.605 -10.653,-3.288 -0.955,-0.684 -2.795,-9.992 7.913,-6.068 10.708,3.924 21.856,11.391 21.856,11.391 0,0 -5.106,-5.694 -5.377,-7.334 -0.223,-1.339 -2.22,-10.88 -3.506,-15.855 l 9.885,0.79 c 2.248,4.063 4.293,8.774 4.659,9.62 0.481,1.109 12.004,9.952 12.004,9.952 l 5.839,3.838 c 0,0 5.953,-6.536 5.786,-8.44 -0.167,-1.905 -1.882,-6.872 -3.64,-9.406 -1.758,-2.533 -5.112,-7.229 -9.353,-8.904 -4.241,-1.676 -9.255,-10.705 -9.052,-12.77 0.202,-2.065 3.985,-8.538 7.124,-4.847 3.139,3.692 23.861,22.604 31.814,25.746 7.953,3.141 21.066,12.612 25.272,18.257 4.205,5.645 8.027,8.381 8.027,8.381 L 4.162,-49.565 V 0 Z"
             style="fill:none;stroke:#1a2e35;stroke-width:1;stroke-linecap:round;stroke-linejoin:round;stroke-miterlimit:10;stroke-dasharray:none;stroke-opacity:1"
             id="path190" />
        </g>
        <g
           id="g192"
           transform="translate(386.8673,424.481)">
          <path
             d="M 0,0 C 0,0 8.496,6.421 14.668,14.069"
             style="fill:#ffffff;fill-opacity:1;fill-rule:nonzero;stroke:#1a2e35;stroke-width:1;stroke-linecap:round;stroke-linejoin:round;stroke-miterlimit:10;stroke-dasharray:none;stroke-opacity:1"
             id="path194" />
        </g>
        <g
           id="g196"
           transform="translate(382.505,431.645)">
          <path
             d="M 0,0 C 0,0 10.296,6.519 14.927,12.639"
             style="fill:#ffffff;fill-opacity:1;fill-rule:nonzero;stroke:#1a2e35;stroke-width:1;stroke-linecap:round;stroke-linejoin:round;stroke-miterlimit:10;stroke-dasharray:none;stroke-opacity:1"
             id="path198" />
        </g>
        <g
           id="g200"
           transform="translate(378.5675,439.2832)">
          <path
             d="M 0,0 C 0,0 13.248,3.701 18.828,8.97"
             style="fill:#ffffff;fill-opacity:1;fill-rule:nonzero;stroke:#1a2e35;stroke-width:1;stroke-linecap:round;stroke-linejoin:round;stroke-miterlimit:10;stroke-dasharray:none;stroke-opacity:1"
             id="path202" />
        </g>
      </g>
    </g>
    <g
       id="g204">
      <g
         id="g206"
         clip-path="url(#clipPath210)">
        <g
           id="g212"
           transform="translate(289.1671,382.6992)">
          <path
             d="m 0,0 c -0.721,3.241 -2.521,5.762 -2.521,5.762 0,0 1.8,-0.72 0.36,3.602 -1.441,4.322 -14.046,20.168 -14.046,20.168 0,0 2.521,18.008 0.72,25.211 -1.801,7.203 -5.042,11.525 -5.042,11.525 l 1.012,50.491 h -33.651 c 0.058,-17.809 10.882,-41.383 2.386,-68.138 -1.667,-5.251 -5.762,-19.809 -3.961,-25.211 1.801,-5.403 13.325,-27.372 15.847,-29.173 2.521,-1.8 25.57,-12.245 29.532,-11.884 3.962,0.359 3.241,4.321 2.881,5.762 l -0.36,1.44 c 0,0 5.762,-1.44 6.122,1.441 0.361,2.881 -2.16,5.042 -2.16,5.042 0,0 3.601,0.72 2.881,3.962"
             style="fill:#ffffff;fill-opacity:1;fill-rule:nonzero;stroke:none"
             id="path214" />
        </g>
        <g
           id="g216"
           transform="translate(289.1671,382.6992)">
          <path
             d="m 0,0 c -0.721,3.241 -2.521,5.762 -2.521,5.762 0,0 1.8,-0.72 0.36,3.602 -1.441,4.322 -14.046,20.168 -14.046,20.168 0,0 2.521,18.008 0.72,25.211 -1.801,7.203 -5.042,11.525 -5.042,11.525 l 1.012,50.491 h -33.651 c 0.058,-17.809 10.882,-41.383 2.386,-68.138 -1.667,-5.251 -5.762,-19.809 -3.961,-25.211 1.801,-5.403 13.325,-27.372 15.847,-29.173 2.521,-1.8 25.57,-12.245 29.532,-11.884 3.962,0.359 3.241,4.321 2.881,5.762 l -0.36,1.44 c 0,0 5.762,-1.44 6.122,1.441 0.361,2.881 -2.16,5.042 -2.16,5.042 0,0 3.601,0.72 2.881,3.962 z"
             style="fill:none;stroke:#1a2e35;stroke-width:1;stroke-linecap:round;stroke-linejoin:round;stroke-miterlimit:10;stroke-dasharray:none;stroke-opacity:1"
             id="path218" />
        </g>
        <g
           id="g220"
           transform="translate(322.0968,351.6714)">
          <path
             d="m 0,0 c -0.499,-8.434 -1.489,-10.913 -5.955,-12.401 -4.458,-1.48 -12.393,4.965 -16.859,1.488 -4.458,-3.467 -3.469,-12.392 -1.98,-15.37 0.624,-1.248 1.855,-9.86 2.996,-19.89 -2.381,0 -4.868,0.018 -7.463,0.063 -29.251,0.49 -24.294,3.958 -28.752,-2.488 -4.466,-6.446 5.947,-16.85 -0.499,-22.306 -6.446,-5.456 -18.839,-1.989 -19.837,3.967 -0.989,5.947 4.966,9.914 4.467,16.36 -0.499,6.446 -13.882,5.947 -26.283,4.467 -4.172,-0.5 -9.584,-0.33 -15.406,0.071 1.034,9.192 2.095,17.563 2.514,20.746 0.99,7.444 1.989,13.89 -1.488,16.859 -3.469,2.978 -15.861,-5.447 -20.328,-3.468 -4.458,1.988 -5.456,17.359 0.99,22.806 6.446,5.456 13.391,-1.98 16.368,-1.48 2.97,0.49 4.458,0 4.957,7.435 0.384,5.795 -1.943,21.237 -2.977,27.763 h 93.006 c -1.15,-7.355 -3.255,-22.075 -3.255,-30.741 0,-11.902 7.935,-11.402 12.892,-7.934 C -7.935,9.424 0.49,8.425 0,0"
             style="fill:#1a2e35;fill-opacity:1;fill-rule:nonzero;stroke:none"
             id="path222" />
        </g>
        <g
           id="g224"
           transform="translate(322.0968,351.6714)">
          <path
             d="m 0,0 c -0.499,-8.434 -1.489,-10.913 -5.955,-12.401 -4.458,-1.48 -12.393,4.965 -16.859,1.488 -4.458,-3.467 -3.469,-12.392 -1.98,-15.37 0.624,-1.248 1.855,-9.86 2.996,-19.89 -2.381,0 -4.868,0.018 -7.463,0.063 -29.251,0.49 -24.294,3.958 -28.752,-2.488 -4.466,-6.446 5.947,-16.85 -0.499,-22.306 -6.446,-5.456 -18.839,-1.989 -19.837,3.967 -0.989,5.947 4.966,9.914 4.467,16.36 -0.499,6.446 -13.882,5.947 -26.283,4.467 -4.172,-0.5 -9.584,-0.33 -15.406,0.071 1.034,9.192 2.095,17.563 2.514,20.746 0.99,7.444 1.989,13.89 -1.488,16.859 -3.469,2.978 -15.861,-5.447 -20.328,-3.468 -4.458,1.988 -5.456,17.359 0.99,22.806 6.446,5.456 13.391,-1.98 16.368,-1.48 2.97,0.49 4.458,0 4.957,7.435 0.384,5.795 -1.943,21.237 -2.977,27.763 h 93.006 c -1.15,-7.355 -3.255,-22.075 -3.255,-30.741 0,-11.902 7.935,-11.402 12.892,-7.934 C -7.935,9.424 0.49,8.425 0,0 Z"
             style="fill:none;stroke:#1a2e35;stroke-width:1;stroke-linecap:round;stroke-linejoin:round;stroke-miterlimit:10;stroke-dasharray:none;stroke-opacity:1"
             id="path226" />
        </g>
        <g
           id="g228"
           transform="translate(249.9103,414.7524)">
          <path
             d="m 0,0 c 0,0 6.123,-23.049 6.843,-24.85 0.72,-1.801 3.962,-7.203 5.762,-10.445 1.801,-3.241 7.563,0.36 8.284,5.043 0.72,4.681 -6.483,16.206 -6.483,16.206 l -1.08,8.644 c 0,0 6.842,8.283 6.842,15.846 0,7.564 -7.203,15.847 -7.203,15.847"
             style="fill:#ffffff;fill-opacity:1;fill-rule:nonzero;stroke:#1a2e35;stroke-width:1;stroke-linecap:round;stroke-linejoin:round;stroke-miterlimit:10;stroke-dasharray:none;stroke-opacity:1"
             id="path230" />
        </g>
      </g>
    </g>
    <g
       id="g232">
      <g
         id="g234"
         clip-path="url(#clipPath238)">
        <g
           id="g240"
           transform="translate(70.028,402.8799)">
          <path
             d="m 0,0 c 0,0 15.65,-0.295 18.509,-0.295 2.858,0 26.953,10.618 31.037,10.21 4.084,-0.409 29.813,-14.702 31.447,-16.336 1.633,-1.633 13.885,-20.419 12.66,-23.278 -1.226,-2.859 -4.901,-3.676 -4.901,-3.676 l -2.859,1.226 c 0,0 -1.633,-2.042 -4.492,-2.451 -2.859,-0.408 -6.126,1.225 -6.126,1.225 0,0 -2.859,-1.633 -5.309,-1.633 -2.45,0 -5.309,2.859 -5.309,2.859 h -5.718 c 0,0 2.859,-3.268 2.451,-4.493 -0.409,-1.225 -2.451,-2.45 -5.309,-1.225 -2.859,1.225 -5.718,4.901 -5.718,4.901 l -12.66,6.126 c 0,0 -7.76,-2.859 -14.702,-3.267 -6.943,-0.409 -17.969,3.267 -17.969,3.267 l -15.404,5.337 z"
             style="fill:#a5a4a5;fill-opacity:1;fill-rule:nonzero;stroke:none"
             id="path242" />
        </g>
        <g
           id="g244"
           transform="translate(70.028,402.8799)">
          <path
             d="m 0,0 c 0,0 15.65,-0.295 18.509,-0.295 2.858,0 26.953,10.618 31.037,10.21 4.084,-0.409 29.813,-14.702 31.447,-16.336 1.633,-1.633 13.885,-20.419 12.66,-23.278 -1.226,-2.859 -4.901,-3.676 -4.901,-3.676 l -2.859,1.226 c 0,0 -1.633,-2.042 -4.492,-2.451 -2.859,-0.408 -6.126,1.225 -6.126,1.225 0,0 -2.859,-1.633 -5.309,-1.633 -2.45,0 -5.309,2.859 -5.309,2.859 h -5.718 c 0,0 2.859,-3.268 2.451,-4.493 -0.409,-1.225 -2.451,-2.45 -5.309,-1.225 -2.859,1.225 -5.718,4.901 -5.718,4.901 l -12.66,6.126 c 0,0 -7.76,-2.859 -14.702,-3.267 -6.943,-0.409 -17.969,3.267 -17.969,3.267 l -15.404,5.337 z"
             style="fill:none;stroke:#1a2e35;stroke-width:1;stroke-linecap:round;stroke-linejoin:round;stroke-miterlimit:10;stroke-dasharray:none;stroke-opacity:1"
             id="path246" />
        </g>
        <g
           id="g248"
           transform="translate(195.0954,321.4824)">
          <path
             d="m 0,0 c -0.419,-3.183 -1.48,-11.555 -2.514,-20.747 -11.448,0.768 -24.473,2.399 -32.693,1.409 -12.393,-1.48 -4.458,-11.403 -5.947,-18.838 -1.489,-7.435 -6.446,-11.902 -14.871,-7.935 -8.433,3.967 -4.966,10.913 -0.499,18.847 4.466,7.926 -3.468,6.936 -13.391,6.446 -6.526,-0.329 -16.065,-1.087 -21.816,-1.569 V 69.915 H -2.479 C -1.444,63.389 0.882,47.947 0.499,42.152 0,34.716 -1.489,35.207 -4.458,34.716 c -2.978,-0.499 -9.923,6.937 -16.369,1.48 -6.445,-5.447 -5.447,-20.817 -0.989,-22.805 4.466,-1.979 16.859,6.445 20.327,3.468 C 1.988,13.89 0.989,7.444 0,0"
             style="fill:#5ae4a7;fill-opacity:1;fill-rule:nonzero;stroke:none"
             id="path250" />
        </g>
        <g
           id="g252"
           transform="translate(195.0954,321.4824)">
          <path
             d="m 0,0 c -0.419,-3.183 -1.48,-11.555 -2.514,-20.747 -11.448,0.768 -24.473,2.399 -32.693,1.409 -12.393,-1.48 -4.458,-11.403 -5.947,-18.838 -1.489,-7.435 -6.446,-11.902 -14.871,-7.935 -8.433,3.967 -4.966,10.913 -0.499,18.847 4.466,7.926 -3.468,6.936 -13.391,6.446 -6.526,-0.329 -16.065,-1.087 -21.816,-1.569 V 69.915 H -2.479 C -1.444,63.389 0.882,47.947 0.499,42.152 0,34.716 -1.489,35.207 -4.458,34.716 c -2.978,-0.499 -9.923,6.937 -16.369,1.48 -6.445,-5.447 -5.447,-20.817 -0.989,-22.805 4.466,-1.979 16.859,6.445 20.327,3.468 C 1.988,13.89 0.989,7.444 0,0 Z"
             style="fill:none;stroke:#1a2e35;stroke-width:1;stroke-linecap:round;stroke-linejoin:round;stroke-miterlimit:10;stroke-dasharray:none;stroke-opacity:1"
             id="path254" />
        </g>
        <g
           id="g256"
           transform="translate(117.5324,400.543)">
          <path
             d="m 0,0 c 0,0 8.985,-4.084 12.66,-5.717 3.675,-1.634 10.21,-4.901 10.21,-4.901 0,0 8.984,-6.126 10.21,-6.534 1.225,-0.409 1.225,-3.676 -4.084,-4.901 -5.309,-1.225 -14.294,5.309 -15.928,5.718 -1.633,0.408 -12.251,-2.451 -13.885,-2.451 -1.633,0 -11.435,-3.675 -18.377,-3.267 -6.943,0.408 -11.027,4.084 -12.66,6.943"
             style="fill:#a5a4a5;fill-opacity:1;fill-rule:nonzero;stroke:#1a2e35;stroke-width:1;stroke-linecap:round;stroke-linejoin:round;stroke-miterlimit:10;stroke-dasharray:none;stroke-opacity:1"
             id="path258" />
        </g>
        <g
           id="g260"
           transform="translate(77.4411,412.0469)">
          <path
             d="M 0,0 -19.615,-37.461 -32.194,-32.74 -9.732,4.832 Z"
             style="fill:#ffffff;fill-opacity:1;fill-rule:nonzero;stroke:none"
             id="path262" />
        </g>
        <g
           id="g264"
           transform="translate(77.4411,412.0469)">
          <path
             d="M 0,0 -19.615,-37.461 -32.194,-32.74 -9.732,4.832 Z"
             style="fill:none;stroke:#1a2e35;stroke-width:1;stroke-linecap:round;stroke-linejoin:round;stroke-miterlimit:10;stroke-dasharray:none;stroke-opacity:1"
             id="path266" />
        </g>
        <g
           id="g268"
           transform="translate(-0.0331,459.9902)">
          <path
             d="m 0,0 v -64.983 l 45.913,-22.906 23.871,46.411 z"
             style="fill:#5ae4a7;fill-opacity:1;fill-rule:nonzero;stroke:none"
             id="path270" />
        </g>
        <g
           id="g272"
           transform="translate(-0.0331,459.9902)">
          <path
             d="m 0,0 v -64.983 l 45.913,-22.906 23.871,46.411 z"
             style="fill:none;stroke:#1a2e35;stroke-width:1;stroke-linecap:round;stroke-linejoin:round;stroke-miterlimit:10;stroke-dasharray:none;stroke-opacity:1"
             id="path274" />
        </g>
      </g>
    </g>
    <g
       id="g276">
      <g
         id="g278"
         clip-path="url(#clipPath282)">
        <g
           id="g284"
           transform="translate(105.5695,183.666)">
          <path
             d="m 0,0 c -0.36,3.208 -1.831,5.729 -5.008,7.871 -3.177,2.143 -26.307,17.849 -27.103,18.26 -0.796,0.41 -5.216,-0.836 -5.216,-0.836 0,0 -24.899,-13.606 -36.665,-17.863 -11.767,-4.258 -20.811,-14.957 -21.921,-15.645 -0.282,-0.175 -1.421,-1.153 -9.424,-7.592 v -47.659 l 30.593,34.764 c 0,0 9.811,-0.023 12.73,1.242 2.919,1.266 9.694,6.587 11.22,8.57 1.526,1.984 3.939,2.754 6.858,4.019 2.919,1.265 4.735,2.344 4.735,2.344 0,0 7.162,-3.694 8.054,-4.406 0.892,-0.712 -0.551,-3.998 -0.551,-3.998 0,0 -6.332,-2.023 -8.045,-2.902 -1.713,-0.88 -4.138,-2.651 -3.958,-4.256 0.18,-1.604 3.671,-2.648 3.671,-2.648 0,0 -0.646,-3.697 1.132,-5.621 1.777,-1.924 2.399,-0.231 5.825,1.529 3.426,1.759 20.652,10.254 20.652,10.254 0,0 1.56,-3.323 4.159,-3.656 2.599,-0.333 2.661,4.672 3.936,10.563 C -3.051,-11.775 0.36,-3.208 0,0"
             style="fill:#ffffff;fill-opacity:1;fill-rule:nonzero;stroke:none"
             id="path286" />
        </g>
        <g
           id="g288"
           transform="translate(105.5695,183.666)">
          <path
             d="m 0,0 c -0.36,3.208 -1.831,5.729 -5.008,7.871 -3.177,2.143 -26.307,17.849 -27.103,18.26 -0.796,0.41 -5.216,-0.836 -5.216,-0.836 0,0 -24.899,-13.606 -36.665,-17.863 -11.767,-4.258 -20.811,-14.957 -21.921,-15.645 -0.282,-0.175 -1.421,-1.153 -9.424,-7.592 v -47.659 l 30.593,34.764 c 0,0 9.811,-0.023 12.73,1.242 2.919,1.266 9.694,6.587 11.22,8.57 1.526,1.984 3.939,2.754 6.858,4.019 2.919,1.265 4.735,2.344 4.735,2.344 0,0 7.162,-3.694 8.054,-4.406 0.892,-0.712 -0.551,-3.998 -0.551,-3.998 0,0 -6.332,-2.023 -8.045,-2.902 -1.713,-0.88 -4.138,-2.651 -3.958,-4.256 0.18,-1.604 3.671,-2.648 3.671,-2.648 0,0 -0.646,-3.697 1.132,-5.621 1.777,-1.924 2.399,-0.231 5.825,1.529 3.426,1.759 20.652,10.254 20.652,10.254 0,0 1.56,-3.323 4.159,-3.656 2.599,-0.333 2.661,4.672 3.936,10.563 C -3.051,-11.775 0.36,-3.208 0,0 Z"
             style="fill:none;stroke:#1a2e35;stroke-width:1;stroke-linecap:round;stroke-linejoin:round;stroke-miterlimit:10;stroke-dasharray:none;stroke-opacity:1"
             id="path290" />
        </g>
        <g
           id="g292"
           transform="translate(72.3073,197.7969)">
          <path
             d="M 0,0 C 0,0 1.536,-5.325 -0.42,-9.605"
             style="fill:none;stroke:#1a2e35;stroke-width:1;stroke-linecap:round;stroke-linejoin:round;stroke-miterlimit:10;stroke-dasharray:none;stroke-opacity:1"
             id="path294" />
        </g>
        <g
           id="g296"
           transform="translate(81.7018,196.4785)">
          <path
             d="M 0,0 C 0,0 1.85,-4.228 -0.087,-7.007"
             style="fill:none;stroke:#1a2e35;stroke-width:1;stroke-linecap:round;stroke-linejoin:round;stroke-miterlimit:10;stroke-dasharray:none;stroke-opacity:1"
             id="path298" />
        </g>
        <g
           id="g300"
           transform="translate(93.3297,173.6074)">
          <path
             d="m 0,0 1.085,-1.315 c 0,0 -3.488,-6.764 -1.266,-13.2"
             style="fill:none;stroke:#1a2e35;stroke-width:1;stroke-linecap:round;stroke-linejoin:round;stroke-miterlimit:10;stroke-dasharray:none;stroke-opacity:1"
             id="path302" />
        </g>
        <g
           id="g304"
           transform="translate(87.6129,172.7773)">
          <path
             d="m 0,0 -0.967,-5.294 c 0,0 -5.78,-5.834 -7.287,-6.316 -1.508,-0.482 -12.152,-3.052 -13.819,-8.237"
             style="fill:none;stroke:#1a2e35;stroke-width:1;stroke-linecap:round;stroke-linejoin:round;stroke-miterlimit:10;stroke-dasharray:none;stroke-opacity:1"
             id="path306" />
        </g>
        <g
           id="g308"
           transform="translate(73.8717,162.7373)">
          <path
             d="m 0,0 3.233,2.362 2.758,4.371 c 0,0 -3.889,1.25 -3.954,4.054"
             style="fill:none;stroke:#1a2e35;stroke-width:1;stroke-linecap:round;stroke-linejoin:round;stroke-miterlimit:10;stroke-dasharray:none;stroke-opacity:1"
             id="path310" />
        </g>
        <g
           id="g312"
           transform="translate(79.3585,161.167)">
          <path
             d="m 0,0 c 0,0 -4.234,-2.35 -3.174,-5.667 1.059,-3.316 3.857,-3.752 3.857,-3.752"
             style="fill:none;stroke:#1a2e35;stroke-width:1;stroke-linecap:round;stroke-linejoin:round;stroke-miterlimit:10;stroke-dasharray:none;stroke-opacity:1"
             id="path314" />
        </g>
        <g
           id="g316"
           transform="translate(192.0827,219.4062)">
          <path
             d="m 0,0 c -6.735,-1.963 -10.868,5.966 -15.637,0.772 -2.573,-2.791 0.239,-19.806 3.464,-36.06 -10.776,-0.092 -21.777,-0.125 -25.828,-0.2 -7.996,-0.135 -9.606,-6.381 -7.435,-14.581 2.174,-8.209 -0.346,-15.081 -12.269,-15.786 -11.914,-0.696 -8.276,12.343 -8.482,20.834 -0.213,8.48 -9.12,4.198 -21.461,-0.566 -5.949,-2.301 -10.716,-3.036 -14.074,-3.175 l -13.137,91.866 c 5.624,1.292 14.96,3.392 21.374,4.643 9.753,1.89 17.468,3.993 14.168,-4.486 -3.298,-8.487 -5.748,-15.853 3.163,-18.586 8.902,-2.735 13.176,2.388 13.598,9.96 0.421,7.571 -8.839,16.271 3.22,19.49 7.997,2.144 21.122,2.373 32.563,3.234 0.359,-12.341 0.979,-26.122 1.944,-30.856 1.687,-8.27 6.522,-10.586 13.461,-6.586 C -4.42,23.919 2.306,25.881 5.185,16.269 8.062,6.665 6.734,1.972 0,0"
             style="fill:#1a2e35;fill-opacity:1;fill-rule:nonzero;stroke:none"
             id="path318" />
        </g>
        <g
           id="g320"
           transform="translate(192.0827,219.4062)">
          <path
             d="m 0,0 c -6.735,-1.963 -10.868,5.966 -15.637,0.772 -2.573,-2.791 0.239,-19.806 3.464,-36.06 -10.776,-0.092 -21.777,-0.125 -25.828,-0.2 -7.996,-0.135 -9.606,-6.381 -7.435,-14.581 2.174,-8.209 -0.346,-15.081 -12.269,-15.786 -11.914,-0.696 -8.276,12.343 -8.482,20.834 -0.213,8.48 -9.12,4.198 -21.461,-0.566 -5.949,-2.301 -10.716,-3.036 -14.074,-3.175 l -13.137,91.866 c 5.624,1.292 14.96,3.392 21.374,4.643 9.753,1.89 17.468,3.993 14.168,-4.486 -3.298,-8.487 -5.748,-15.853 3.163,-18.586 8.902,-2.735 13.176,2.388 13.598,9.96 0.421,7.571 -8.839,16.271 3.22,19.49 7.997,2.144 21.122,2.373 32.563,3.234 0.359,-12.341 0.979,-26.122 1.944,-30.856 1.687,-8.27 6.522,-10.586 13.461,-6.586 C -4.42,23.919 2.306,25.881 5.185,16.269 8.062,6.665 6.734,1.972 0,0 Z"
             style="fill:none;stroke:#1a2e35;stroke-width:1;stroke-linecap:round;stroke-linejoin:round;stroke-miterlimit:10;stroke-dasharray:none;stroke-opacity:1"
             id="path322" />
        </g>
        <g
           id="g324"
           transform="translate(61.4918,189.5225)">
          <path
             d="m 0,0 c 0,0 3.768,-2.95 10.396,-1.331 6.627,1.619 13.025,0.839 19.236,1.161 6.211,0.323 14.502,-1.183 14.446,-5.686 -0.057,-4.505 -4.798,-7.349 -10.72,-8.577 -5.922,-1.227 -22.323,0.179 -25.858,-2.28 -3.535,-2.458 -9.886,-5.983 -14.216,-8.031 -4.331,-2.049 -9.74,-2.281 -16.849,-2.393"
             style="fill:#ffffff;fill-opacity:1;fill-rule:nonzero;stroke:#1a2e35;stroke-width:1;stroke-linecap:round;stroke-linejoin:round;stroke-miterlimit:10;stroke-dasharray:none;stroke-opacity:1"
             id="path326" />
        </g>
      </g>
    </g>
  </g>
</svg>
