<svg width="72" height="46" viewBox="0 0 72 46" fill="none" xmlns="http://www.w3.org/2000/svg">
<path fill-rule="evenodd" clip-rule="evenodd" d="M0 0H67V18C67.6566 18 68.3068 18.1294 68.9135 18.3804C69.52 18.6318 70.0713 19 70.5355 19.4644C70.9999 19.9287 71.3682 20.48 71.6194 21.0864C71.8707 21.6934 72 22.3433 72 23C72 23.6567 71.8707 24.3066 71.6194 24.9136C71.3682 25.52 70.9999 26.0713 70.5355 26.5356C70.0713 27 69.52 27.3682 68.9135 27.6196C68.3068 27.8706 67.6566 28 67 28V46H0V28C0.656616 28 1.30676 27.8706 1.91345 27.6196C2.52002 27.3682 3.07129 27 3.53552 26.5356C3.99988 26.0713 4.36816 25.52 4.61938 24.9136C4.87073 24.3066 5 23.6567 5 23C5 22.3433 4.87073 21.6934 4.61938 21.0864C4.36816 20.48 3.99988 19.9287 3.53552 19.4644C3.07129 19 2.52002 18.6318 1.91345 18.3804C1.30676 18.1294 0.656616 18 0 18V0Z" fill="#D9D9D9"/>
</svg>
