<svg width="64" height="24" viewBox="0 0 64 24" fill="none" xmlns="http://www.w3.org/2000/svg">
<mask id="mask0_7_114" style="mask-type:luminance" maskUnits="userSpaceOnUse" x="0" y="0" width="64" height="24">
<path d="M64 0H0V24H64V0Z" fill="white"/>
</mask>
<g mask="url(#mask0_7_114)">
<path d="M33.042 7.9495L36.0868 7.75077C36.1563 8.25346 36.2837 8.62753 36.492 8.89642C36.8278 9.31727 37.2909 9.52771 37.9045 9.52771C38.356 9.52771 38.7149 9.42249 38.958 9.20037C39.1896 9.02503 39.3285 8.74447 39.3285 8.45219C39.3285 8.17162 39.2012 7.90277 38.9812 7.72739C38.7496 7.51698 38.2055 7.30654 37.3488 7.11953C35.9479 6.80386 34.9407 6.38301 34.3502 5.84527C33.7598 5.34259 33.424 4.60611 33.4472 3.82287C33.4472 3.28512 33.6093 2.74737 33.9103 2.30315C34.2576 1.80047 34.7323 1.403 35.2996 1.18089C35.9132 0.912011 36.7699 0.771729 37.8466 0.771729C39.1665 0.771729 40.1736 1.01722 40.8683 1.5199C41.563 2.01089 41.9798 2.80582 42.1071 3.89301L39.0969 4.06836C39.0159 3.60076 38.8538 3.26174 38.5876 3.03963C38.3213 2.81751 37.974 2.7123 37.5224 2.7123C37.152 2.7123 36.8741 2.79413 36.6888 2.94611C36.5152 3.08639 36.3994 3.29681 36.411 3.53062C36.411 3.70597 36.5036 3.86963 36.6425 3.97484C36.793 4.11513 37.152 4.24372 37.7192 4.36062C39.1201 4.66457 40.1158 4.96851 40.7294 5.28414C41.343 5.59976 41.7829 5.98555 42.0492 6.44146C42.3271 6.90908 42.466 7.44682 42.4544 7.99628C42.4544 8.65091 42.2692 9.3056 41.8987 9.85501C41.5167 10.4279 40.9841 10.8721 40.3589 11.1409C39.699 11.4332 38.8654 11.5852 37.8697 11.5852C36.11 11.5852 34.8944 11.2462 34.2113 10.5564C33.5282 9.86673 33.123 9.00164 33.042 7.9495ZM0.729379 11.4098V0.958769H6.06659C7.05064 0.958769 7.81478 1.0406 8.33576 1.21595C8.84513 1.37962 9.29666 1.71863 9.59769 2.17455C9.93341 2.67723 10.0955 3.26174 10.084 3.86963C10.1187 4.89835 9.59769 5.88033 8.70621 6.39473C8.35892 6.59346 7.97685 6.73374 7.5832 6.80386C7.87266 6.88569 8.16207 7.02597 8.4168 7.18964C8.6136 7.35331 8.77567 7.54037 8.92621 7.7391C9.09986 7.93783 9.25035 8.15995 9.37769 8.39374L10.9291 11.4215H7.29379L5.58033 8.20668C5.36033 7.79755 5.17511 7.52866 5.00146 7.40009C4.76988 7.23642 4.49204 7.15459 4.21418 7.15459H3.93632V11.3981H0.729379V11.4098ZM3.93632 5.19063H5.29087C5.58033 5.16724 5.85816 5.12047 6.13605 5.05035C6.34442 5.01529 6.52965 4.89835 6.65704 4.72301C6.9696 4.30217 6.92329 3.70597 6.54122 3.34357C6.33285 3.16822 5.92762 3.0747 5.34875 3.0747H3.93632V5.19063ZM0 20.3645L3.04486 20.1658C3.11433 20.6685 3.24168 21.0425 3.45007 21.3114C3.77424 21.7323 4.24891 21.9544 4.86254 21.9544C5.31402 21.9544 5.67294 21.8492 5.91605 21.6271C6.14762 21.44 6.28654 21.1712 6.28654 20.8789C6.28654 20.5983 6.1592 20.3295 5.9392 20.1541C5.70767 19.9437 5.16353 19.7333 4.29522 19.5462C2.89436 19.2306 1.88712 18.8097 1.29667 18.2719C0.706221 17.7693 0.370478 17.0328 0.393632 16.2496C0.393632 15.7118 0.555718 15.1741 0.856729 14.7298C1.20405 14.2272 1.67872 13.8297 2.24602 13.6076C2.85962 13.3387 3.71635 13.1984 4.79304 13.1984C6.11289 13.1984 7.12009 13.4439 7.81478 13.9466C8.50941 14.4493 8.91463 15.2325 9.04198 16.3197L6.03186 16.4951C5.95078 16.0274 5.78871 15.6884 5.52245 15.4663C5.26772 15.2442 4.90885 15.139 4.45731 15.1507C4.08683 15.1507 3.80897 15.2325 3.62373 15.3962C3.43849 15.5365 3.3343 15.7469 3.34588 15.9807C3.34588 16.156 3.43849 16.3197 3.57743 16.4249C3.72793 16.5652 4.08683 16.6938 4.65413 16.8107C6.05501 17.1146 7.05064 17.4186 7.66424 17.7342C8.27784 18.0498 8.71779 18.4356 8.98409 18.8916C9.26193 19.3591 9.40085 19.8969 9.40085 20.4347C9.40085 21.0893 9.20405 21.7323 8.84513 22.2817C8.46311 22.8545 7.93054 23.2988 7.30536 23.5676C6.64546 23.8599 5.81186 24.0119 4.81619 24.0119C3.05644 24.0119 1.84081 23.6728 1.15774 22.9831C0.474673 22.2817 0.0926193 21.4167 0 20.3645Z" fill="white"/>
<path d="M15.3978 19.546L18.1995 20.3994C18.049 21.1125 17.7364 21.7905 17.308 22.3867C16.9144 22.9128 16.3934 23.322 15.803 23.5908C15.2009 23.8597 14.4368 24 13.5106 24C12.3876 24 11.4614 23.8363 10.7552 23.509C10.0374 23.1817 9.42378 22.5972 8.90279 21.7671C8.38185 20.9372 8.12712 19.8733 8.12712 18.5757C8.12712 16.8456 8.57865 15.5129 9.49324 14.5893C10.4079 13.6658 11.693 13.1982 13.3601 13.1982C14.6684 13.1982 15.6872 13.4671 16.4397 13.9932C17.1807 14.5309 17.7364 15.3492 18.1069 16.4481L15.282 17.0794C15.2125 16.8339 15.1083 16.5884 14.9694 16.378C14.7957 16.1325 14.5757 15.9454 14.3095 15.8052C14.0432 15.6649 13.7422 15.6064 13.4411 15.6064C12.7118 15.6064 12.1561 15.8987 11.774 16.4949C11.4846 16.9274 11.3341 17.6171 11.3341 18.5524C11.3341 19.7097 11.5077 20.5046 11.8551 20.9372C12.2024 21.3697 12.6886 21.5801 13.3254 21.5801C13.939 21.5801 14.4021 21.4047 14.7147 21.0657C15.0273 20.7033 15.2588 20.2006 15.3978 19.546ZM21.939 13.3736H25.1344V17.0326H28.6307V13.3736H31.8493V23.8246H28.6307V19.5928H25.1344V23.8246H21.939V13.3736Z" fill="white"/>
<path d="M31.4093 18.5991C31.4093 16.8923 31.884 15.5596 32.8218 14.6127C33.7596 13.6658 35.0794 13.1865 36.7581 13.1865C38.4831 13.1865 39.8029 13.6541 40.7407 14.5893C41.6785 15.5245 42.1416 16.8339 42.1416 18.5173C42.1416 19.7447 41.9332 20.7384 41.528 21.5216C41.1344 22.2932 40.5208 22.9245 39.7682 23.3453C38.9925 23.7779 38.0316 24 36.8854 24C35.7161 24 34.7552 23.8129 33.9911 23.4388C33.2038 23.0413 32.5555 22.4218 32.1271 21.6619C31.6525 20.8436 31.4093 19.8266 31.4093 18.5991ZM34.6047 18.6108C34.6047 19.6629 34.8015 20.4228 35.1836 20.8904C35.5656 21.3463 36.0982 21.5801 36.7697 21.5801C37.4527 21.5801 37.9853 21.358 38.3674 20.9021C38.7494 20.4461 38.9347 19.6395 38.9347 18.4705C38.9347 17.4885 38.7379 16.7637 38.3442 16.3195C37.9506 15.8636 37.418 15.6414 36.7465 15.6414C36.1561 15.6181 35.5888 15.8753 35.1951 16.3312C34.8015 16.7871 34.6047 17.5469 34.6047 18.6108ZM45.418 18.5991C45.418 16.8923 45.8927 15.5596 46.8305 14.6127C47.7682 13.6658 49.0882 13.1865 50.7668 13.1865C52.492 13.1865 53.8233 13.6541 54.7494 14.5893C55.6755 15.5245 56.1503 16.8339 56.1503 18.5173C56.1503 19.7447 55.9419 20.7384 55.5367 21.5216C55.1433 22.2932 54.5296 22.9245 53.7767 23.3453C53.0012 23.7779 52.0402 24 50.8943 24C49.7249 24 48.764 23.8129 47.9997 23.4388C47.2125 23.0413 46.5642 22.4218 46.1358 21.6619C45.6612 20.8436 45.418 19.8266 45.418 18.5991ZM48.6134 18.6108C48.6134 19.6629 48.8101 20.4228 49.1922 20.8904C49.5743 21.3463 50.107 21.5801 50.7786 21.5801C51.4614 21.5801 51.9941 21.358 52.3762 20.9021C52.7583 20.4461 52.9433 19.6395 52.9433 18.4705C52.9433 17.4885 52.7466 16.7637 52.3527 16.3195C51.9593 15.8636 51.4266 15.6414 50.755 15.6414C50.1649 15.6181 49.5861 15.8753 49.204 16.3312C48.8101 16.7871 48.6134 17.5469 48.6134 18.6108Z" fill="white"/>
<path d="M55.8152 13.3738H59.0105V21.253H64.0001V23.8248H55.8034V13.3738H55.8152Z" fill="white"/>
<mask id="mask1_7_114" style="mask-type:luminance" maskUnits="userSpaceOnUse" x="41" y="1" width="15" height="14">
<path d="M52.2931 12.7707C55.5101 10.3227 56.5021 6.17311 54.5086 3.50219C52.5152 0.831287 48.2917 0.650535 45.0745 3.09846C41.8574 5.54638 40.8654 9.69603 42.8587 12.3669C44.852 15.0378 49.0757 15.2186 52.2931 12.7707Z" fill="white"/>
</mask>
<g mask="url(#mask1_7_114)">
<mask id="mask2_7_114" style="mask-type:luminance" maskUnits="userSpaceOnUse" x="34" y="-7" width="29" height="30">
<path d="M34.6549 6.61009L51.2792 -6.03979L62.7827 9.37414L46.1585 22.024L34.6549 6.61009Z" fill="white"/>
</mask>
<g mask="url(#mask2_7_114)">
<path d="M52.2938 12.7707C55.5107 10.3227 56.5027 6.17311 54.5093 3.50219C52.5159 0.831287 48.2924 0.650535 45.0751 3.09846C41.8581 5.54638 40.8661 9.69603 42.8594 12.3669C44.8527 15.0378 49.0764 15.2186 52.2938 12.7707Z" stroke="white" stroke-width="2" stroke-miterlimit="10"/>
<path d="M45.4308 7.16644L46.5885 6.34814L48.0125 8.39392C48.2558 8.72127 48.4407 9.07195 48.58 9.45774C48.661 9.75002 48.6379 10.0656 48.5222 10.3462C48.3716 10.6969 48.1283 10.9892 47.804 11.1996C47.4219 11.4685 47.0977 11.6204 46.82 11.6672C46.5538 11.714 46.2759 11.6672 46.0212 11.5503C45.7433 11.41 45.5002 11.2113 45.315 10.9541L46.3106 10.0189C46.3917 10.1475 46.4959 10.2644 46.6117 10.3579C46.6927 10.4163 46.7853 10.4514 46.8895 10.4514C46.9705 10.4514 47.0516 10.4163 47.1095 10.3696C47.2252 10.2994 47.3062 10.1591 47.2949 10.0189C47.26 9.82014 47.1791 9.62141 47.0516 9.46945L45.4308 7.16644ZM48.9038 8.46409L49.9574 7.6224C50.0732 7.76268 50.2238 7.86785 50.3857 7.92635C50.6172 7.99647 50.8605 7.94969 51.0572 7.79774C51.1965 7.70423 51.3123 7.57562 51.3584 7.41195C51.428 7.20155 51.3123 6.96771 51.1038 6.8976C51.069 6.88588 51.0342 6.87421 50.9993 6.87421C50.8605 6.86254 50.6172 6.92098 50.2586 7.07294C49.668 7.31844 49.205 7.41195 48.8577 7.37689C48.5222 7.34183 48.2092 7.16644 48.0243 6.87421C47.885 6.67548 47.8158 6.44169 47.804 6.20785C47.804 5.93901 47.8737 5.67011 48.0243 5.44799C48.244 5.13237 48.5104 4.86348 48.8346 4.65307C49.3207 4.31405 49.749 4.15039 50.1198 4.15039C50.4902 4.15039 50.8375 4.32574 51.1617 4.68814L50.1198 5.51816C49.9113 5.24927 49.5174 5.19082 49.2511 5.40122L49.2167 5.43632C49.101 5.50644 49.0196 5.61167 48.9735 5.74028C48.9386 5.83378 48.9617 5.93901 49.0196 6.02084C49.0662 6.07929 49.1353 6.12602 49.2167 6.12602C49.309 6.13774 49.4713 6.09096 49.7029 5.98574C50.2817 5.74028 50.7217 5.6 51.0229 5.55322C51.2774 5.50644 51.5438 5.52983 51.7866 5.63505C52.0069 5.72856 52.1918 5.89223 52.3193 6.09096C52.4812 6.32475 52.5739 6.60531 52.5857 6.8976C52.597 7.20155 52.516 7.49378 52.3542 7.75096C52.1457 8.06663 51.8793 8.33548 51.5669 8.54592C50.9302 8.99011 50.4092 9.17717 49.9923 9.10705C49.5405 9.03689 49.1702 8.8031 48.9038 8.46409Z" fill="white"/>
</g>
</g>
</g>
</svg>
