<svg width="731" height="280" viewBox="0 0 731 280" fill="none" xmlns="http://www.w3.org/2000/svg">
<path d="M375.603 246.954C386.896 219.234 409.923 163.265 411.683 161.153C413.883 158.513 420.043 155.433 422.683 153.673C425.323 151.913 427.963 151.913 427.523 147.953C427.083 143.993 418.723 128.593 418.283 125.953C417.843 123.313 417.403 119.793 420.483 122.873C422.947 125.337 432.07 139.74 436.323 146.633C434.856 141.207 431.483 129.473 429.723 125.953C427.523 121.553 422.243 110.553 427.523 113.193C431.747 115.305 443.656 138.713 449.083 150.153C449.083 141.353 449.083 122.873 449.083 119.353C449.083 114.953 448.643 104.393 451.723 109.673C454.187 113.897 460.523 148.833 460.523 148.833C460.523 148.833 468.883 132.201 470.643 127.273C472.843 121.113 472.843 114.073 476.803 116.713C480.763 119.353 477.243 139.153 472.843 148.833C468.443 158.513 463.603 164.544 457.883 167.628C444.243 174.983 443.803 171.713 436.323 179.194C428.843 186.674 420.483 226.714 416.523 239.914" stroke="#79D6BF" stroke-width="3.52002" stroke-linecap="round"/>
<path fill-rule="evenodd" clip-rule="evenodd" d="M374.07 21.0729C374.527 10.3903 383.557 2.10061 394.239 2.5573L512.443 7.61054C523.125 8.06723 531.415 17.0974 530.959 27.7799L529.448 63.1141C526.384 61.6231 522.97 60.725 519.349 60.5746C505.266 59.9898 493.376 70.9317 492.792 85.014C492.207 99.0963 503.149 110.986 517.231 111.571C520.831 111.72 524.287 111.117 527.448 109.9L525.905 145.984C525.449 156.666 516.418 164.956 505.736 164.499L387.532 159.446C376.85 158.989 368.56 149.959 369.017 139.277L370.503 104.513C372.691 105.233 375.015 105.666 377.43 105.766C391.513 106.351 403.403 95.4087 403.987 81.3265C404.572 67.2442 393.63 55.3542 379.548 54.7695C377.154 54.6701 374.824 54.9038 372.601 55.4294L374.07 21.0729Z" fill="#27A787"/>
<mask id="mask0_24_294" style="mask-type:alpha" maskUnits="userSpaceOnUse" x="368" y="2" width="163" height="163">
<path fill-rule="evenodd" clip-rule="evenodd" d="M374.07 21.0729C374.527 10.3903 383.557 2.10061 394.239 2.5573L512.443 7.61054C523.125 8.06723 531.415 17.0974 530.959 27.7799L529.448 63.1141C526.384 61.6231 522.97 60.725 519.349 60.5746C505.266 59.9898 493.376 70.9317 492.792 85.014C492.207 99.0963 503.149 110.986 517.231 111.571C520.831 111.72 524.287 111.117 527.448 109.9L525.905 145.984C525.449 156.666 516.418 164.956 505.736 164.499L387.532 159.446C376.85 158.989 368.56 149.959 369.017 139.277L370.503 104.513C372.691 105.233 375.015 105.666 377.43 105.766C391.513 106.351 403.403 95.4087 403.987 81.3265C404.572 67.2442 393.63 55.3542 379.548 54.7695C377.154 54.6701 374.824 54.9038 372.601 55.4294L374.07 21.0729Z" fill="#27A787"/>
</mask>
<g mask="url(#mask0_24_294)">
<path d="M375.603 246.954C386.896 219.234 409.923 163.265 411.683 161.153C413.883 158.513 420.043 155.433 422.683 153.673C425.323 151.913 427.963 151.913 427.523 147.953C427.083 143.993 418.723 128.593 418.283 125.953C417.843 123.313 417.403 119.793 420.483 122.873C422.947 125.337 432.07 139.74 436.323 146.633C434.856 141.207 431.483 129.473 429.723 125.953C427.523 121.553 422.243 110.553 427.523 113.193C431.747 115.305 443.656 138.713 449.083 150.153C449.083 141.353 449.083 122.873 449.083 119.353C449.083 114.953 448.643 104.393 451.723 109.673C454.187 113.897 458.323 137.54 460.083 148.833C462.87 143.7 468.883 132.201 470.643 127.273C472.843 121.113 472.843 114.073 476.803 116.713C480.763 119.353 477.243 139.153 472.843 148.833C468.443 158.513 460.963 166.873 459.203 168.633C457.443 170.393 443.803 171.713 436.323 179.194C428.843 186.674 420.483 226.714 416.523 239.914" stroke="#121E24" stroke-width="3.52002" stroke-linecap="round"/>
</g>
<path d="M471.627 46.4138C469.984 47.1246 468.152 46.4579 466.809 45.4803C464.355 43.6923 464.461 39.4748 466.88 37.7482C467.036 37.6357 467.21 37.558 467.379 37.4711C467.428 37.4409 467.469 37.3957 467.519 37.3679C467.813 37.2055 468.104 37.1012 468.394 37.0281C468.75 36.8855 469.12 36.7869 469.503 36.7382C469.752 36.4796 470.064 36.2674 470.462 36.1352C471.626 35.7491 473.285 36.3822 473.567 37.6925C473.633 37.9998 473.726 38.2921 473.829 38.5808C474.97 39.9653 475.372 41.8845 474.607 43.7015C474.045 45.0385 472.915 45.8561 471.627 46.4138Z" fill="#085743"/>
<path d="M436.142 36.899C438.451 38.185 439.338 40.5749 441.99 41.3657C445.361 42.3711 447.097 40.3163 449.303 38.2743C450.311 37.3408 451.677 37.1738 452.772 38.0945C452.926 38.2244 453.08 38.3543 453.234 38.4842C455.048 40.0113 453.666 42.4279 451.842 42.7039C451.069 43.5504 450.314 44.4178 449.376 45.0463C447.999 45.9681 446.131 46.2441 444.529 46.49C442.459 46.8088 440.272 46.025 438.389 45.2701C436.339 44.4491 435.683 42.2633 433.885 41.2625C431.127 39.7249 433.366 35.3533 436.142 36.899Z" fill="#085743"/>
<path d="M413.128 37.7251C413.672 36.2258 415.551 35.203 417.012 36.6432C417.319 36.9447 417.616 37.2404 417.902 37.5384C418.479 37.8063 419.009 38.2005 419.439 38.778C421.237 41.1946 420.397 44.8264 417.967 46.4301C414.966 48.4119 410.878 46.4081 410.481 42.9154C410.231 40.7134 411.351 38.6632 413.128 37.7251Z" fill="#085743"/>
<path fill-rule="evenodd" clip-rule="evenodd" d="M45.5131 20.9044C34.8932 22.1465 27.291 31.7626 28.5331 42.3825L42.2774 159.893C43.5196 170.513 53.1357 178.115 63.7556 176.873L181.266 163.129C191.886 161.887 199.488 152.271 198.246 141.651L193.957 104.981C190.116 107.371 185.582 108.752 180.725 108.752C166.874 108.752 155.645 97.5229 155.645 83.6715C155.645 69.8201 166.874 58.5913 180.725 58.5913C183.506 58.5913 186.182 59.044 188.682 59.8798L184.502 24.14C183.26 13.5201 173.644 5.9179 163.024 7.16003L45.5131 20.9044Z" fill="#5BE4A8"/>
<path d="M2 251.197C13.1467 244.89 35.7922 231.397 37.2002 227.877C38.9603 223.477 41.6003 212.477 40.7203 201.917C39.8403 191.356 33.2402 174.196 34.1202 161.876C35.0002 149.556 45.1203 127.996 49.9603 120.956C54.8004 113.916 57.0004 116.556 58.3204 116.996C59.6404 117.436 59.6404 123.596 55.6804 135.036C52.5123 144.188 52.6003 154.396 53.0403 158.356M53.0403 158.356L47.3203 160.996M53.0403 158.356C56.1204 157.476 63.4244 155.804 68.0005 156.156C73.7205 156.596 81.2005 157.036 84.7206 165.836C87.5366 172.876 85.1606 171.116 85.1606 171.116M85.1606 171.116C83.2539 170.09 78.2085 167.948 73.2805 167.596C67.1204 167.156 57.8804 167.596 53.9204 170.236M85.1606 171.116C86.9206 173.17 90.5286 177.98 90.8806 180.796C91.2326 183.612 88.6806 189.156 88.6806 189.156M88.6806 189.156C87.6539 187.396 84.9846 183.436 82.5206 181.676C79.4405 179.476 67.1204 179.036 67.1204 179.036M88.6806 189.156C88.8273 191.796 88.5926 197.692 86.4806 200.157C84.3686 202.621 80.6139 204.41 79.0005 204.997" stroke="#39976E" stroke-width="3.52002" stroke-linecap="round" stroke-linejoin="round"/>
<path d="M77.6805 191.356V212.037C77.5338 213.797 76.8005 218.109 75.0405 221.277C72.8405 225.237 38.9602 270.557 36.7602 277.597" stroke="#39976E" stroke-width="3.52002" stroke-linecap="round" stroke-linejoin="round"/>
<mask id="mask1_24_294" style="mask-type:alpha" maskUnits="userSpaceOnUse" x="28" y="7" width="171" height="171">
<path fill-rule="evenodd" clip-rule="evenodd" d="M45.5131 20.9044C34.8932 22.1465 27.291 31.7626 28.5331 42.3825L42.2774 159.893C43.5196 170.513 53.1357 178.115 63.7556 176.873L181.266 163.129C191.886 161.887 199.488 152.271 198.246 141.651L193.957 104.981C190.116 107.371 185.582 108.752 180.725 108.752C166.874 108.752 155.645 97.5229 155.645 83.6715C155.645 69.8201 166.874 58.5913 180.725 58.5913C183.506 58.5913 186.182 59.044 188.682 59.8798L184.502 24.14C183.26 13.5201 173.644 5.9179 163.024 7.16003L45.5131 20.9044Z" fill="#5BE4A8"/>
</mask>
<g mask="url(#mask1_24_294)">
<path d="M2 251.197C13.1467 244.89 35.7922 231.397 37.2002 227.877C38.9603 223.477 41.6003 212.477 40.7203 201.917C39.8403 191.356 33.2402 174.196 34.1202 161.876C35.0002 149.556 45.1203 127.996 49.9603 120.956C54.8004 113.916 57.0004 116.556 58.3204 116.996C59.6404 117.436 59.6404 123.596 55.6804 135.036C52.5123 144.188 52.6003 154.396 53.0403 158.356M53.0403 158.356L47.3203 160.996M53.0403 158.356C56.1204 157.476 63.4244 155.804 68.0005 156.156C73.7205 156.596 81.2005 157.036 84.7206 165.836C87.5366 172.876 85.1606 171.116 85.1606 171.116M85.1606 171.116C83.2539 170.09 78.2085 167.948 73.2805 167.596C67.1204 167.156 57.8804 167.596 53.9204 170.236M85.1606 171.116C86.9206 173.17 90.5286 177.98 90.8806 180.796C91.2326 183.612 88.6806 189.156 88.6806 189.156M88.6806 189.156C87.6539 187.396 84.9846 183.436 82.5206 181.676C79.4405 179.476 67.1204 179.036 67.1204 179.036M88.6806 189.156C88.8273 191.796 88.5926 197.692 86.4806 200.157C84.3686 202.621 80.6139 204.41 79.0005 204.997" stroke="#121E24" stroke-width="3.52002" stroke-linecap="round" stroke-linejoin="round"/>
</g>
<path d="M76.3411 61.0365C76.8993 62.5861 79.3649 69.4202 75.8841 68.6848C74.4792 68.3878 73.5455 68.124 72.6652 66.9317C71.537 65.4027 71.9107 63.5522 71.6856 61.7753C71.3226 58.9115 66.8038 58.987 67.1696 61.8709C67.5462 64.8445 67.2992 67.2458 69.1815 69.7959C70.8631 72.0723 73.372 73.0076 76.1165 73.2894C79.2617 73.6117 81.011 71.2542 81.9791 68.565C82.9903 65.7554 81.6123 62.3667 80.6684 59.7445C79.6853 57.0156 75.3534 58.2933 76.3411 61.0365Z" fill="#358662"/>
<path d="M100.063 58.1286C99.1734 60.0963 98.7459 61.5824 96.5698 62.4296C95.0073 63.0381 92.4979 63.1895 91.9455 61.1237C91.1915 58.3082 86.8659 59.6074 87.6182 62.4157C88.5085 65.7402 91.9848 67.5271 95.2638 67.4128C97.0496 67.3502 98.9903 66.3981 100.492 65.5037C102.466 64.3273 103.148 62.2413 104.036 60.2749C105.23 57.6337 101.265 55.4702 100.063 58.1286Z" fill="#358662"/>
<path d="M120.579 48.4307C119.924 50.0766 120.076 51.2821 120.785 52.8925C121.595 54.7329 121.163 56.8832 120.254 58.5911C119.311 60.3621 117.565 60.4413 116.503 58.8971C115.938 58.0736 115.515 57.1824 115.203 56.2381C114.778 54.962 115.198 53.6326 115.062 52.331C114.762 49.4497 110.245 49.5314 110.545 52.4269C110.697 53.876 110.366 55.2706 110.693 56.724C111.067 58.3843 111.779 59.8535 112.674 61.2936C114.125 63.6264 116.674 65.1817 119.475 64.4126C122.177 63.6709 124.087 61.6572 124.996 59.0307C125.538 57.4651 125.75 55.8768 125.682 54.2229C125.653 53.5219 125.468 52.7934 125.304 52.1168C125.244 51.8669 124.601 50.4577 124.553 50.5769C125.618 47.9025 121.656 45.726 120.579 48.4307Z" fill="#358662"/>
<path d="M164.801 256.069C178.591 245.764 208.169 222.873 216.158 213.742C226.144 202.328 232.326 192.341 234.228 181.878C235.75 173.508 238.033 157.929 238.033 157.929M248.494 215.169C258.956 212.315 265.613 203.28 270.369 196.621C274.173 191.295 279.879 181.086 282.257 176.647C289.39 171.099 302.419 157.453 306.984 153.649C310.204 150.966 311.74 144.308 306.984 144.308C302.731 144.308 293.194 150.966 293.194 150.966C293.194 150.966 276.551 165.233 270.369 165.233C264.187 165.233 264.187 157.929 264.187 157.929" stroke="#87C2B3" stroke-width="3.52002" stroke-linecap="round"/>
<path fill-rule="evenodd" clip-rule="evenodd" d="M205.094 20.2034C205.107 9.5111 213.785 0.853871 224.478 0.866958L342.789 1.01179C353.481 1.02487 362.139 9.70331 362.126 20.3956L362.082 56.2186C364.926 55.1238 368.016 54.5236 371.246 54.5236C385.341 54.5236 396.767 65.9494 396.767 80.0438C396.767 94.1382 385.341 105.564 371.246 105.564C367.994 105.564 364.884 104.956 362.023 103.846L361.981 138.707C361.968 149.399 353.289 158.057 342.597 158.044L224.285 157.899C213.593 157.886 204.936 149.207 204.949 138.515L204.991 103.982C202.23 105.005 199.243 105.564 196.125 105.564C182.031 105.564 170.605 94.1382 170.605 80.0438C170.605 65.9494 182.031 54.5236 196.125 54.5236C199.265 54.5236 202.272 55.0905 205.05 56.1276L205.094 20.2034Z" fill="#CCF1E8"/>
<mask id="mask2_24_294" style="mask-type:alpha" maskUnits="userSpaceOnUse" x="170" y="0" width="227" height="159">
<path fill-rule="evenodd" clip-rule="evenodd" d="M205.094 20.2034C205.107 9.5111 213.785 0.853871 224.478 0.866958L342.789 1.01179C353.481 1.02487 362.139 9.70331 362.126 20.3956L362.082 56.2186C364.926 55.1238 368.016 54.5236 371.246 54.5236C385.341 54.5236 396.767 65.9494 396.767 80.0438C396.767 94.1382 385.341 105.564 371.246 105.564C367.994 105.564 364.884 104.956 362.023 103.846L361.981 138.707C361.968 149.399 353.289 158.057 342.597 158.044L224.285 157.899C213.593 157.886 204.936 149.207 204.949 138.515L204.991 103.982C202.23 105.005 199.243 105.564 196.125 105.564C182.031 105.564 170.605 94.1382 170.605 80.0438C170.605 65.9494 182.031 54.5236 196.125 54.5236C199.265 54.5236 202.272 55.0905 205.05 56.1276L205.094 20.2034Z" fill="#CCF1E8"/>
</mask>
<g mask="url(#mask2_24_294)">
<path d="M164.801 258.709C178.591 248.404 208.169 225.513 216.158 216.382C226.144 204.968 232.326 194.981 234.228 184.518C235.75 176.148 238.033 160.569 238.033 160.569M248.494 217.809C258.956 214.955 265.613 205.919 270.369 199.261C274.173 193.935 279.879 183.726 282.257 179.287C289.39 173.739 303.943 157.596 307 152.5C308.5 150 311.5 143 307 142C302.848 141.077 298 146.817 292.5 152.5C285.132 160.113 276.551 167.873 270.369 167.873C264.187 167.873 264.187 160.569 264.187 160.569" stroke="#121E24" stroke-width="3.52002" stroke-linecap="round"/>
</g>
<path d="M311.762 162.788C307.162 167.733 296.913 178.197 292.725 180.494C287.49 183.365 284.635 193.892 278.448 204.42C272.261 214.948 257.983 225.954 255.603 227.868C253.7 229.399 230.062 254.347 218.481 266.629" stroke="#87C2B3" stroke-width="3.52002" stroke-linecap="round"/>
<path d="M247.585 69.4008C250.238 67.1935 251.297 63.1637 249.717 60.0471C248.896 58.4247 247.302 57.6082 245.55 57.4852C245.414 57.4761 245.265 57.4813 245.121 57.4813C244.123 56.9253 242.75 57.1346 241.806 57.8097C238.77 59.9764 236.344 63.3037 238.529 66.9881C240.402 70.1453 244.452 72.0058 247.585 69.4008Z" fill="#1B2D36"/>
<path d="M284.621 66.4651C285.891 63.7646 286.21 60.1547 282.736 59.0897C279.817 58.1934 278.13 61.8949 279.825 63.6481C279.618 64.2173 279.311 64.7472 279.004 65.264C278.087 66.8184 276.437 67.784 274.77 68.3845C270.455 69.9376 266.704 65.9103 266.619 61.8635C266.545 58.3125 261.01 58.0011 261.085 61.5769C261.257 69.8054 268.702 76.4115 276.958 73.4402C280.457 72.1802 283.055 69.7963 284.621 66.4651Z" fill="#1B2D36"/>
<path d="M301.698 58.2732C301.274 58.3007 300.845 58.4524 300.429 58.7311C297.181 60.3954 296.306 64.8832 297.902 67.8873C298.639 70.4596 300.582 72.3542 303.904 71.7379C305.349 71.4697 307.151 70.4988 308.284 69.5633C309.842 68.2772 310.253 66.4297 309.861 64.5064C309.115 60.8507 305.606 57.3338 301.698 58.2732Z" fill="#1B2D36"/>
<path fill-rule="evenodd" clip-rule="evenodd" d="M562.469 8.02933C551.843 6.83765 542.263 14.4854 541.071 25.1111L537.331 58.4615C535.441 58.0235 533.471 57.7919 531.447 57.7919C517.11 57.7919 505.487 69.4147 505.487 83.7521C505.487 98.0895 517.11 109.712 531.447 109.712C531.493 109.712 531.538 109.712 531.583 109.712L527.885 142.686C526.693 153.311 534.341 162.891 544.967 164.083L662.541 177.269C673.167 178.461 682.747 170.813 683.939 160.187L697.125 42.6128C698.317 31.9871 690.669 22.4072 680.043 21.2155L562.469 8.02933Z" fill="#5BE4A8"/>
<path d="M728.726 208.627C722.859 203.494 710.246 191.467 706.726 184.427C702.326 175.627 697.046 165.947 697.926 154.067C698.806 142.187 701.645 115.708 700.325 110.868C699.005 106.028 697.926 96.7357 683.165 90.6274C675.624 87.5071 668.644 87.1075 662.044 87.1074C654.704 87.1073 647.084 90.6276 643.564 94.1476C642.684 95.0276 641.804 99.8676 651.044 99.4276" stroke="#4BA77F" stroke-width="3.52002" stroke-linecap="round"/>
<path d="M686.046 105.667C681.646 102.587 675.729 97.9179 671.526 96.8662C668.006 95.9856 662.286 94.6669 654.805 97.747C648.372 100.396 640.285 103.907 638.965 109.627C637.909 114.203 640.579 116.52 642.045 117.107" stroke="#CCF1E8" stroke-width="3.52002" stroke-linecap="round"/>
<path d="M699.246 239.867L673.286 175.187C671.232 174.013 666.774 170.787 665.366 167.267C663.606 162.866 666.686 154.506 667.126 148.786C667.566 143.066 667.126 129.866 658.765 130.746C650.405 131.626 648.957 137.994 646.005 136.026C644.685 135.146 644.245 129.866 646.005 127.226C647.765 124.586 655.293 118.125 658.765 117.546C664.045 116.666 675.045 125.026 675.045 125.026" stroke="#4BA77F" stroke-width="3.52002" stroke-linecap="round"/>
<path d="M681.206 115.347C676.512 110.947 668.446 104.786 661.846 105.226C656.707 105.569 646.005 110.507 642.485 117.987C638.965 125.467 642.045 129.427 643.365 129.867" stroke="#CCF1E8" stroke-width="3.52002" stroke-linecap="round"/>
<mask id="mask3_24_294" style="mask-type:alpha" maskUnits="userSpaceOnUse" x="505" y="7" width="193" height="171">
<path fill-rule="evenodd" clip-rule="evenodd" d="M562.469 8.02933C551.843 6.83765 542.263 14.4854 541.071 25.1111L537.331 58.4615C535.441 58.0235 533.471 57.7919 531.447 57.7919C517.11 57.7919 505.487 69.4147 505.487 83.7521C505.487 98.0895 517.11 109.712 531.447 109.712C531.493 109.712 531.538 109.712 531.583 109.712L527.885 142.686C526.693 153.311 534.341 162.891 544.967 164.083L662.541 177.269C673.167 178.461 682.747 170.813 683.939 160.187L697.125 42.6128C698.317 31.9871 690.669 22.4072 680.043 21.2155L562.469 8.02933Z" fill="#5BE4A8"/>
</mask>
<g mask="url(#mask3_24_294)">
<path d="M728.726 208.627C722.859 203.494 710.246 191.467 706.726 184.427C702.326 175.627 697.046 165.947 697.926 154.067C698.806 142.187 701.645 115.708 700.325 110.868C699.005 106.028 697.926 96.7357 683.165 90.6274C675.624 87.5071 668.644 87.1075 662.044 87.1074C654.704 87.1073 647.084 90.6276 643.564 94.1476C642.684 95.0276 641.804 99.8676 651.044 99.4276" stroke="#121E24" stroke-width="3.52002" stroke-linecap="round"/>
<path d="M686.046 105.667C681.646 102.587 675.729 97.9179 671.526 96.8662C668.006 95.9856 662.286 94.6669 654.805 97.747C648.372 100.396 640.285 103.907 638.965 109.627C637.909 114.203 640.579 116.52 642.045 117.107" stroke="#121E24" stroke-width="3.52002" stroke-linecap="round"/>
<path d="M699.246 239.867L673.286 175.187C671.232 174.013 666.774 170.787 665.366 167.267C663.606 162.866 666.686 154.506 667.126 148.786C667.566 143.066 667.126 129.866 658.765 130.746C650.405 131.626 648.957 137.994 646.005 136.026C644.685 135.146 644.245 129.866 646.005 127.226C647.765 124.586 655.293 118.125 658.765 117.546C664.045 116.666 675.045 125.026 675.045 125.026" stroke="#121E24" stroke-width="3.52002" stroke-linecap="round"/>
<path d="M681.206 115.347C676.512 110.947 668.446 104.786 661.846 105.226C656.707 105.569 646.005 110.507 642.485 117.987C638.965 125.467 642.045 129.427 643.365 129.867" stroke="#121E24" stroke-width="3.52002" stroke-linecap="round"/>
</g>
<path d="M572.018 68.9444C572.319 68.6752 572.561 68.3866 572.756 68.0848C573.131 67.7748 573.483 67.4291 573.773 67.0191C575.36 64.7706 574.687 61.5054 572.285 60.1644C571.589 59.7769 570.808 59.5658 570.003 59.4812C569.433 59.2334 568.768 59.1875 568.058 59.4741C568.002 59.4965 567.952 59.5312 567.897 59.5556C566.956 59.7239 566.049 60.0543 565.268 60.5193C562.675 62.0642 562.367 64.8104 564.031 67.1741C565.674 69.5073 569.651 71.0685 572.018 68.9444Z" fill="#20342B"/>
<path d="M600.515 67.8518C601.236 66.9881 601.855 65.8154 601.82 64.7192C601.902 64.6927 601.975 64.6641 602.038 64.6355C602.037 64.6498 602.034 64.661 602.033 64.6763C601.958 66.2478 601.244 67.4205 600.2 68.2291C600.198 68.2189 600.197 68.2087 600.193 68.1985C600.301 68.0853 600.408 67.9803 600.515 67.8518ZM591.143 73.1259C596.091 75.2215 601.944 73.5889 605.01 69.2305C606.059 67.7376 606.978 63.9278 605.991 61.7262C606.217 60.6912 605.834 59.5409 604.616 59.3013C601.864 58.7598 598.88 59.7194 596.086 60.0018C594.191 60.1935 592.282 59.9702 590.402 60.1813C590.092 60.217 589.784 60.2782 589.476 60.3384C588.799 60.2925 588.124 60.2405 587.477 60.1528C586.408 60.0069 585.727 60.5678 585.448 61.3295C585.406 61.3387 585.364 61.351 585.322 61.3591C584.413 61.5488 583.639 62.4115 583.631 63.3578C583.594 67.757 587.369 71.527 591.143 73.1259Z" fill="#20342B"/>
<path d="M619.149 66.6533C620.096 66.6726 621.069 66.4605 621.911 66.0975C623.942 65.2256 624.762 63.0189 624.486 60.9621C624.214 58.9318 622.487 57.3858 620.54 57.0555C618.266 56.669 616.197 58.3658 615.003 60.1218C613.428 62.4356 614.017 65.7386 616.93 66.5656C617.641 66.7675 618.404 66.7767 619.149 66.6533Z" fill="#20342B"/>
</svg>
