<svg width="84" height="83" viewBox="0 0 84 83" fill="none" xmlns="http://www.w3.org/2000/svg">
<circle cx="42.0435" cy="41.9119" r="40.5881" stroke="white"/>
<path d="M63.35 41.9119C63.35 53.193 60.9222 63.3813 57.0214 70.7312C53.1089 78.1031 47.7894 82.5 42.0435 82.5C36.2976 82.5 30.9781 78.1031 27.0656 70.7312C23.1648 63.3813 20.7369 53.193 20.7369 41.9119C20.7369 30.6308 23.1648 20.4425 27.0656 13.0926C30.9781 5.72058 36.2976 1.32373 42.0435 1.32373C47.7894 1.32373 53.1089 5.72058 57.0214 13.0926C60.9222 20.4425 63.35 30.6308 63.35 41.9119Z" stroke="white"/>
<path d="M41.3547 1.74194V82.3114" stroke="white"/>
<path d="M81.6395 42.0266L1.07006 42.0266" stroke="white"/>
<path d="M73.4907 65.0957H9.21878" stroke="white"/>
<path d="M73.4907 19.1871L9.21878 19.1871" stroke="white"/>
</svg>
