<svg width="1280" height="832" viewBox="0 0 1280 832" fill="none" xmlns="http://www.w3.org/2000/svg">
<g clip-path="url(#clip0_24_1259)">
<path d="M1299.52 430.253C1302.18 439.487 1301.13 445.187 1297.4 453.698C1292.96 463.874 1285.63 466.263 1275.39 466.686C1266.55 467.067 1260.82 462.409 1252.58 460.764C1250.26 460.282 1248.32 460.843 1246.65 461.927C1241.54 462.79 1236.31 464.979 1234.33 469.114C1230.37 477.303 1232.21 488.664 1232.17 497.516C1232.15 510.122 1233.76 521.904 1236.17 534.248C1238.61 546.735 1241.03 559.22 1242.08 571.885C1242.4 575.738 1243.54 581.2 1245.61 584.472C1248.08 588.426 1233.04 589.69 1231.56 590.032C1220.12 592.64 1208.33 594.246 1196.64 595.552C1182.87 597.076 1169.24 600.147 1155.45 601.773C1145.06 602.998 1134.32 603.078 1124.2 600.247C1116.07 597.999 1110.74 591.275 1114.93 582.885C1117.32 578.108 1119.11 572.287 1120.12 567.047C1123.9 547.457 1116.57 528.971 1098.4 520.539C1081.83 512.852 1060.02 521.121 1049.1 534.791C1043.04 542.379 1040.84 550.267 1040.4 559.781C1040.18 564.82 1041.23 569.337 1042.7 574.133C1044.66 580.497 1049.5 589.709 1046.5 595.893C1041.51 606.13 1022.82 602.115 1014.19 602.697C1001.27 603.54 988.308 602.075 975.329 602.516C971.663 602.636 975.408 589.55 975.804 586.498C976.577 580.356 977.191 574.233 978.123 568.112C980.125 555.186 982.82 542.479 983.157 529.352C983.452 517.108 983.572 505.605 982.483 493.401C981.907 486.939 980.857 479.009 973.089 478.186C969.979 477.845 967.086 479.451 964.391 480.776C958.208 483.807 951.155 485.633 944.338 486.156C929.794 487.259 916.122 477.203 910.772 463.935C906.096 452.313 911.326 435.974 918.856 426.68C927.794 415.621 943.466 421.702 955.673 419.615C972.812 416.684 971.841 397.013 972.12 383.664C972.277 376.257 971.148 369.353 970.436 362.247C971.227 361.886 971.783 361.162 971.663 360.12C971.326 357.369 970.436 354.88 970.436 352.09C970.276 351.127 970.099 350.164 969.919 349.199C969.861 348.879 969.762 348.638 969.663 348.418C969.702 348.437 969.741 348.437 969.781 348.458C972.951 349.159 976.736 347.995 979.946 347.916C984.86 347.794 989.557 348.175 994.489 347.715C1005.65 346.63 1016.8 345.567 1027.98 344.564C1039.49 343.538 1054.09 337.196 1060.31 350.907C1063.6 358.173 1056.15 366.021 1053.68 372.544C1050.82 380.011 1050.05 385.631 1051.76 393.58C1054.91 408.212 1063.11 419.935 1077.63 423.588C1091.66 427.103 1107.95 419.273 1116.43 407.831C1124.54 396.852 1123.07 378.445 1119.94 366C1118.59 360.641 1119.03 352.071 1123.72 348.397C1127.69 345.286 1135.1 345.487 1139.83 345.226C1148.65 344.744 1158.76 344.964 1167.4 343.138C1186.91 338.983 1206.49 339.806 1226.23 340.83C1229.55 362.429 1210.55 387.237 1222.62 407.773C1226.84 414.938 1232.37 418.411 1240.69 417.586C1241.84 417.488 1242.91 417.245 1243.92 416.904C1243.94 416.462 1243.96 416.002 1243.98 415.539C1248.74 415.52 1253.83 414.275 1257.87 413.171C1266.61 410.762 1273.76 408.574 1282.86 410.802C1291.58 412.931 1297.22 422.223 1299.52 430.253Z" fill="#243C46"/>
<path d="M78.2545 -35.8987C74.5663 -37.1696 69.1923 -37.9712 65.9747 -40.1823C65.7394 -40.3578 65.2689 -39.654 64.7206 -38.6565C63.6017 -39.1257 62.268 -39.0094 61.4047 -37.7366C60.4433 -36.2903 59.6208 -34.7645 58.9336 -33.1999C58.7187 -33.3551 58.5223 -33.5121 58.3445 -33.7282C57.9129 -32.8675 57.5016 -31.9863 57.0904 -31.1071C50.9107 -17.944 46.8316 -3.15541 43.7325 10.4565C42.1227 17.5387 41.0057 29.7634 43.9863 36.9009C47.8505 46.1535 59.9135 47.4834 68.7607 46.7002C74.1939 46.2311 81.6481 43.8648 86.9627 45.5864C92.2792 47.308 97.6735 50.1822 101.695 54.1333C104.97 57.3419 105.617 62.8964 106.421 67.1412C107.617 73.3219 107.912 79.6984 106.658 85.9179C104.303 97.4961 99.0462 106.963 87.3166 111.091C80.4903 113.517 73.39 114.572 66.1914 113.144C59.4245 111.814 54.3432 108.001 47.8708 106.084C37.6121 103.071 33.4348 119.677 32.4345 127.52C31.4342 135.443 32.0214 143.149 31.7862 151.09C31.336 166.424 27.4311 181.916 29.7077 197.25C36.043 197.994 42.0838 196.76 48.4006 197.27C56.442 197.915 64.6817 198.737 72.7027 199.734C82.0205 200.889 91.1807 202.747 94.4373 212.41C97.0455 220.194 96.3194 229.465 92.9665 236.878C90.5917 242.12 84.7472 245.269 82.7466 250.687C80.7645 256.105 79.7068 262.09 80.9812 267.724C81.374 269.425 81.9816 271.088 82.8244 272.691C88.9245 284.192 99.8316 289.317 112.66 287.712C127.116 285.913 134.726 273.337 140.218 260.974C142.808 255.108 145.181 248.966 145.75 242.512C146.142 238.051 144.297 232.164 145.809 227.862C153.204 206.776 186.627 217.163 202.025 220.331C214.853 222.952 227.29 225.807 240.372 226.785C247.374 227.313 255.397 229.818 259.222 221.856C261.419 217.24 263.676 212.624 265.774 207.969C271.109 196.116 273.836 182.914 276.189 170.179C277.308 164.097 278.21 157.955 279.701 151.951C281.053 146.436 281.133 140.763 282.565 135.325C283.074 133.389 285.938 126.974 281.387 126.7C278.995 126.543 276.719 126.68 274.325 126.757C268.814 126.974 263.224 127.227 257.692 126.974C248.767 126.582 240.883 124.762 234.546 117.976C223.406 106.084 215.559 80.1676 226.171 65.7522C227.485 63.9715 228.878 62.2905 230.349 60.726C241.569 48.8134 257.183 43.5526 273.503 49.87C290.293 56.3629 293.961 36.138 294.785 23.9133C295.274 16.7351 295.354 9.71397 295.176 2.53579C295.021 -3.01871 296.688 -8.28136 295.667 -13.8746C295.706 -13.6788 264.694 -14.1684 260.752 -14.9904C249.279 -17.3363 237.96 -15.7717 226.466 -17.4545C220.797 -18.295 205.496 -18.6275 204.379 -26.6664C203.731 -31.3805 208.36 -36.3291 209.205 -40.8473C210.342 -46.7546 210.676 -52.9353 210.989 -58.9405C211.617 -70.2453 211.872 -84.6608 206.106 -94.9496C199.867 -106.097 185.392 -109.971 173.231 -107.076C171.68 -106.703 170.17 -106.234 168.718 -105.649C157.009 -100.935 144.553 -89.8828 143.827 -76.4851C143.219 -65.1988 148.162 -55.5749 148.495 -44.4271C149.084 -24.7694 125.958 -22.7744 111.148 -26.1197C100.184 -28.5838 88.8856 -32.2209 78.2545 -35.8987Z" fill="#243C46"/>
<path d="M1221.2 13.1538C1222.28 9.83641 1222.91 5.01893 1224.85 2.10771C1225 1.89464 1224.36 1.48479 1223.46 1.0099C1223.86 0.00221766 1223.74 -1.18856 1222.58 -1.94079C1221.27 -2.77812 1219.89 -3.49 1218.48 -4.08036C1218.61 -4.2749 1218.75 -4.45289 1218.94 -4.61524C1218.16 -4.98789 1217.37 -5.342 1216.57 -5.69614C1204.67 -11.0186 1191.35 -14.4377 1179.1 -16.9987C1172.72 -18.3288 1161.74 -19.1389 1155.39 -16.3637C1147.15 -12.7658 1146.15 -1.959 1146.98 5.93969C1147.49 10.7906 1149.72 17.4192 1148.26 22.1979C1146.8 26.9782 1144.31 31.8459 1140.83 35.5028C1138 38.4808 1133.03 39.1446 1129.23 39.929C1123.71 41.0944 1118 41.4561 1112.4 40.4308C1101.98 38.5042 1093.41 33.9495 1089.53 23.5252C1087.25 17.4589 1086.2 11.1264 1087.36 4.66771C1088.45 -1.4035 1091.79 -6.00574 1093.41 -11.8227C1095.96 -21.0421 1081 -24.5209 1073.95 -25.2943C1066.83 -26.0665 1059.93 -25.4225 1052.81 -25.5103C1039.05 -25.6761 1025.1 -28.9287 1011.39 -26.6564C1010.82 -20.9801 1012.02 -15.5978 1011.66 -9.9417C1011.2 -2.74149 1010.59 4.63869 1009.82 11.8261C1008.93 20.1754 1007.4 28.3948 998.788 31.4558C991.848 33.9081 983.524 33.4019 976.825 30.5183C972.088 28.4757 969.174 23.2985 964.285 21.5932C959.397 19.9046 954.014 19.0511 948.981 20.2777C947.462 20.6551 945.981 21.224 944.556 22.0024C934.337 27.6343 929.909 37.466 931.545 48.9116C933.381 61.81 944.775 68.4203 955.945 73.1406C961.246 75.3657 966.79 77.3927 972.586 77.8016C976.592 78.0839 981.842 76.3433 985.723 77.6285C1004.74 83.9153 995.945 113.961 993.341 127.778C991.188 139.289 988.819 150.453 988.144 162.166C987.778 168.435 985.656 175.647 992.853 178.945C997.026 180.838 1001.2 182.784 1005.41 184.589C1016.12 189.176 1028 191.411 1039.45 193.318C1044.92 194.225 1050.45 194.936 1055.85 196.177C1060.82 197.301 1065.91 197.285 1070.8 198.481C1072.55 198.907 1078.35 201.369 1078.52 197.295C1078.62 195.154 1078.47 193.12 1078.36 190.982C1078.08 186.057 1077.77 181.062 1077.91 176.112C1078.12 168.126 1079.63 161.048 1085.62 155.277C1096.11 145.132 1119.23 137.716 1132.32 146.983C1133.94 148.13 1135.47 149.35 1136.89 150.641C1147.75 160.489 1152.71 174.37 1147.29 189.06C1141.73 204.173 1159.92 207.14 1170.89 207.689C1177.34 208.015 1183.64 207.978 1190.07 207.709C1195.05 207.484 1199.79 208.893 1204.79 207.894C1204.62 207.932 1204.58 180.195 1205.26 176.658C1207.18 166.362 1205.61 156.266 1206.94 145.962C1207.6 140.881 1207.67 127.194 1214.86 126.071C1219.07 125.419 1223.58 129.482 1227.65 130.167C1232.96 131.093 1238.51 131.296 1243.9 131.483C1254.05 131.87 1266.98 131.876 1276.11 126.561C1286.01 120.811 1289.26 107.808 1286.48 96.9787C1286.12 95.5981 1285.68 94.2554 1285.13 92.9658C1280.72 82.5687 1270.62 71.6019 1258.6 71.1594C1248.47 70.7902 1239.91 75.3579 1229.92 75.8281C1212.31 76.6582 1210.16 56.011 1212.93 42.7168C1214.97 32.8747 1218.06 22.7164 1221.2 13.1538Z" fill="#243C46"/>
<path d="M288.708 509.225C286.994 514.892 282.975 518.99 280.465 524.203C277.238 530.949 273.833 537.42 269.982 543.823C263.391 554.774 250.424 571.794 238.001 557.834C224.364 542.496 204.53 541.308 186.801 550.191C170.186 558.547 165.103 586.265 169.734 602.55C172.358 611.835 178.767 617.246 186.832 621.835C191.815 624.684 197.073 627.081 202.278 629.494C204.523 630.553 206.669 631.492 208.819 632.777C212.869 635.172 207.191 639.746 205.793 641.318C201.907 645.69 199.142 650.911 195.258 655.375C191.032 660.234 187.284 665.501 183.365 670.61C175.166 681.31 166.383 692.257 155.818 700.714C151.672 704.037 147.418 707.259 143.181 710.489C135.873 716.061 129.662 709.949 123.453 706.151C111.867 699.073 101.733 690.541 91.1438 682.05C78.4444 671.839 52.5439 646.421 35.7124 662.47C32.2758 665.743 31.183 672.071 28.703 676.02C25.1144 681.733 20.0268 686.313 14.8446 690.501C3.9001 699.382 -9.07249 707.451 -23.279 702.279C-35.8743 697.706 -43.5021 687.801 -43.6695 674.26C-43.691 671.893 -43.3214 669.655 -42.6341 667.513C-40.933 662.23 -37.3559 657.609 -33.2783 653.838C-28.878 649.753 -21.9916 649.596 -17.3035 645.842C-10.6816 640.582 -5.61049 632.333 -4.33992 623.876C-2.73802 613.391 -10.3057 607.341 -18.3716 601.859C-25.2971 597.145 -32.5075 592.49 -39.6192 588.093C-45.205 584.637 -51.3622 582.925 -56.8358 579.251C-51.6549 563.964 -40.6998 551.449 -33.0224 537.442C-29.0355 530.193 -25.9187 522.773 -21.2178 515.911C-16.5717 509.114 -4.83326 495.698 3.1809 503.328C8.25992 508.172 11.1184 514.097 16.7291 518.527C22.6916 523.252 29.7705 525.62 37.2091 526.616C49.9701 528.322 59.3309 522.04 66.9822 512.413C71.0916 507.241 73.847 501.192 75.6961 494.908C76.9508 490.584 78.9913 485.13 77.4934 480.609C75.6594 475.047 72.0667 469.844 67.961 465.727C63.8929 461.629 55.8764 460.291 50.6418 458.159C42.1277 454.714 31.6223 447.754 32.4407 437.371C33.0967 429.356 39.9134 418.545 44.7775 412.75C54.7065 400.858 66.3094 388.24 79.2151 378.694C79.2765 378.978 79.4002 379.225 79.5264 379.471C80.8844 378.336 82.3674 377.311 83.9597 376.434C85.3414 375.653 86.6554 376.166 87.4363 377.138C88.4156 376.473 89.1837 376.043 89.3174 376.317C91.2359 379.886 95.8125 383.168 98.6301 386.099C106.691 394.53 115.367 403.23 124.312 410.694C136.385 420.792 158.684 429.879 167.472 411.382C172.457 400.892 172.467 389.637 178.385 379.463C185.415 367.389 202.151 363.031 215.191 364.194C216.808 364.338 218.424 364.616 220.012 364.993C232.604 368.057 244.118 378.486 244.598 391.775C245.033 404.035 237.937 417.267 232.009 427.457C228.851 432.865 225.609 438.436 221.773 443.383C218.832 447.163 212.212 449.562 210.589 454.246C207.805 462.226 221.743 469.754 226.573 473.211C236.377 480.201 247.577 484.108 257.031 491.695C260.277 494.319 288.651 509.425 288.708 509.225Z" fill="#243C46"/>
</g>
<defs>
<clipPath id="clip0_24_1259">
<rect width="1280" height="832" fill="white"/>
</clipPath>
</defs>
</svg>
