<svg width="57" height="88" viewBox="0 0 57 88" fill="none" xmlns="http://www.w3.org/2000/svg">
<g clip-path="url(#clip0_28_606)">
<path d="M30.1119 82.8511C30.1119 83.9409 30.1179 85.0311 30.11 86.1214C30.1026 87.2 29.3765 87.9238 28.2892 87.9549C27.2256 87.9851 26.4272 87.2703 26.392 86.1832C26.3328 84.3758 26.2869 82.5676 26.2957 80.7598C26.299 80.127 26.054 79.8376 25.4775 79.5753C21.2469 77.6485 17.069 75.6176 13.3372 72.8444C4.44299 66.2344 0.0114113 57.4442 0.306387 46.5794C0.5407 37.9547 3.37793 30.1011 8.76343 23.1958C11.6507 19.4941 14.6532 15.8776 17.5585 12.1886C20.3522 8.64194 22.8681 4.91098 25.1376 1.02407C26.2226 -0.833746 27.9197 -0.958146 29.3571 0.676122C31.1033 2.66239 33.1959 4.30207 35.164 6.06434C39.1741 9.65513 42.9718 13.4271 45.9414 17.9108C50.7083 25.1086 54.0808 32.8698 55.8521 41.2723C56.7046 45.317 56.9634 49.3819 56.2225 53.4703C55.1408 59.4386 52.0137 64.2882 47.5492 68.3982C43.909 71.7492 39.5488 74.0028 35.1149 76.1504C33.5275 76.9193 31.9785 77.7644 30.3967 78.5455C30.0211 78.7307 29.9109 78.9385 29.9243 79.345C29.9628 80.5128 29.9378 81.6824 29.9378 82.8511C29.9956 82.8511 30.054 82.8511 30.1119 82.8511Z" fill="#143C3C"/>
<path d="M28.8954 59.2434C28.6356 58.3217 28.8593 57.615 29.6048 56.9083C35.5242 51.2988 40.9741 45.2967 45.5344 38.5658C45.9544 37.9456 46.3763 37.3264 46.8009 36.7089C47.207 36.1194 47.2316 35.5623 46.6245 35.09C46.072 34.6595 45.3075 34.7591 44.8282 35.3906C44.1642 36.265 43.5687 37.1889 42.944 38.0917C39.1626 43.5547 34.7213 48.4841 30.0345 53.2152C29.6946 53.5586 29.3561 53.903 29.0149 54.2451C28.9986 54.2608 28.9625 54.2581 28.9227 54.2667C28.6856 54.0549 28.8037 53.7732 28.806 53.5289C28.856 48.7708 28.9236 44.0126 28.9658 39.2545C28.9713 38.6316 29.1584 38.1404 29.5872 37.6757C32.267 34.77 34.8454 31.7799 37.1885 28.6088C38.43 26.9276 39.5918 25.1906 40.781 23.4729C41.3293 22.681 41.2552 21.996 40.6036 21.5939C39.9526 21.1924 39.1575 21.4285 38.668 22.2128C36.7935 25.2158 34.6518 28.0341 32.418 30.7875C31.3728 32.0761 30.286 33.3326 29.2089 34.6154C28.8861 34.3805 29.044 34.0966 29.0496 33.8618C29.2195 26.6869 29.3974 19.5121 29.5849 12.3377C29.6006 11.7383 29.5015 11.2173 28.9204 10.9063C28.3494 10.6007 27.8169 10.7035 27.3274 11.1024C27.2686 11.1501 27.1843 11.1682 27.1116 11.2002C26.6337 11.0514 26.5439 10.6647 26.5421 10.2573C26.5346 8.76047 26.4661 7.26277 26.5837 5.76686C27.4469 4.15964 27.4538 4.15243 28.7666 5.35357C31.7683 8.10018 34.8949 10.7192 37.7155 13.6516C42.9597 19.1024 46.6161 25.4903 49.3686 32.4042C51.1297 36.8279 52.4439 41.3706 52.9079 46.112C53.1125 48.2056 53.0959 50.3023 52.6791 52.3796C52.5777 52.5968 52.473 52.778 52.185 52.8406C50.1313 53.2869 48.1804 54.0657 46.1623 54.6309C45.9053 54.7025 45.5886 54.9026 45.4622 54.451C46.292 53.7718 47.1255 53.0957 47.9512 52.4116C48.542 51.9221 48.6509 51.2348 48.2318 50.7345C47.7794 50.1954 47.0023 50.1116 46.4133 50.6056C44.5953 52.1303 42.7963 53.6772 40.9935 55.2195C40.5865 55.5679 40.211 55.9537 39.7206 56.1993C37.2482 56.8303 34.8004 57.5352 32.3883 58.3618C31.4409 58.6868 30.4666 58.9419 29.514 59.2583C29.3089 59.3263 29.0973 59.4034 28.8954 59.2434Z" fill="#44C9CB"/>
<path d="M26.5837 5.76683C26.8741 5.98182 26.7754 6.29326 26.7778 6.56909C26.787 7.77609 26.793 8.98264 26.7736 10.1892C26.7671 10.5768 26.8435 10.9121 27.1116 11.2001C26.819 11.6734 26.8129 12.2025 26.7916 12.7294C26.6402 16.4991 26.4888 20.2688 26.3351 24.0385C26.3314 24.1373 26.3045 24.2355 26.2624 24.496C25.3145 23.3539 24.4508 22.3141 23.5886 21.2734C23.4173 21.067 23.2631 20.8466 23.0815 20.6492C22.5898 20.1129 21.7627 20.0254 21.2464 20.4441C20.7227 20.8692 20.6564 21.6511 21.1487 22.233C22.2758 23.5644 23.3325 24.9706 24.5958 26.169C25.8549 27.3639 26.2179 28.6403 26.1225 30.33C25.796 36.1121 25.6386 41.9033 25.4131 47.6908C25.4061 47.8648 25.4941 48.0649 25.2195 48.2831C24.1471 46.9237 23.0496 45.5883 22.0142 44.2087C19.051 40.2595 16.6981 35.9891 14.9912 31.3855C14.9264 31.2107 14.8574 31.0371 14.7819 30.8663C14.4504 30.1182 13.7854 29.8085 13.076 30.069C12.4305 30.3061 12.1582 30.9831 12.4448 31.7425C13.4816 34.486 14.6611 37.1659 16.1063 39.7354C18.4383 43.8819 21.3844 47.589 24.5814 51.1225C24.7935 51.3573 25.0727 51.5498 25.1603 51.877C25.257 52.9551 25.257 54.0332 25.1603 55.1117C25.1556 55.8495 25.1515 56.5874 25.1473 57.3252C24.919 57.5514 25.2029 57.9066 24.8907 58.1653C24.2874 57.0516 23.0686 57.08 22.0568 56.7839C20.7625 56.4048 19.4622 56.0163 18.129 55.7653C17.696 55.6837 17.2946 55.5358 16.9621 55.2415C14.7917 53.3878 12.7921 51.3609 10.7356 49.3918C10.3666 49.0384 10.022 48.6594 9.63492 48.3263C9.10377 47.8689 8.31748 47.8999 7.86136 48.3606C7.36958 48.8573 7.37329 49.5103 7.91739 50.0525C9.22973 51.3605 10.5587 52.6522 11.8808 53.9507C11.7891 54.3739 11.5136 54.2085 11.2834 54.1134C9.57518 53.4081 7.80579 52.864 6.06789 52.2367C5.47979 52.0244 4.88567 51.6868 4.58792 52.581C4.27998 52.3849 4.51522 52.0767 4.32397 51.8986C3.71735 49.0461 3.91045 46.1841 4.24618 43.3262C5.12277 35.8714 8.25034 29.3772 13.0542 23.5626C16.5939 19.2782 20.1989 15.0379 23.3774 10.4826C24.4657 8.92314 25.5159 7.33935 26.5837 5.76683Z" fill="#95DF89"/>
<path d="M4.32397 51.8986C4.53745 51.9865 4.4277 52.2358 4.64118 52.4377C4.55227 51.6354 4.77454 51.5142 5.51452 51.8063C7.23853 52.4864 9.00329 53.0777 10.7819 53.6091C11.145 53.7177 11.3571 54.3717 11.8808 53.9507C14.3328 56.2169 16.7824 58.4858 19.2381 60.7479C21.1399 62.5007 23.0436 64.2521 24.9616 65.9873C25.3075 66.3001 25.4562 66.6305 25.4821 67.0902C25.6372 69.8202 25.8248 72.5483 26.0017 75.2769C26.0211 75.5753 26.2235 76.0106 25.5715 75.6947C20.9723 73.4673 16.4629 71.1096 12.693 67.6248C8.18922 63.4602 5.47794 58.3668 4.33833 52.4517C4.30406 52.2727 4.32722 52.083 4.32397 51.8986Z" fill="#43AF32"/>
<path d="M45.4622 54.451C45.8488 54.8603 46.0919 54.3636 46.3883 54.2892C48.0359 53.8755 49.653 53.3626 51.2431 52.7713C51.7085 52.5982 52.285 52.8055 52.6791 52.3796C52.2809 55.3836 51.1505 58.1176 49.4686 60.6501C46.3406 65.36 41.9327 68.6245 36.9204 71.2165C34.6555 72.3879 32.3175 73.425 30.1267 74.7298C29.6752 74.9984 29.5659 74.8465 29.5502 74.4039C29.5344 73.9541 29.4858 73.5034 29.4251 73.0563C29.2561 71.8051 29.4923 70.7707 30.3906 69.7125C35.025 64.2553 39.9197 59.0537 45.4622 54.451Z" fill="#109EA0"/>
<path d="M28.8954 59.2434C31.1112 58.5196 33.3177 57.7669 35.5469 57.0836C36.6704 56.7393 37.8401 56.5401 38.9491 56.1353C39.207 56.0407 39.477 56.0235 39.7206 56.1993C39.6664 56.4891 39.4057 56.6212 39.2177 56.801C35.7155 60.1471 32.3559 63.618 29.3617 67.4111C29.3173 67.4675 29.246 67.504 29.1098 67.6104C28.926 64.7763 28.826 62.0126 28.8954 59.2434Z" fill="#109EA0"/>
<path d="M16.9621 55.2416C19.4168 55.8852 21.8665 56.5478 24.3305 57.1567C24.8403 57.2824 24.7769 57.643 24.8644 58C25.0593 57.7728 24.8709 57.4609 25.1469 57.3253C25.1473 59.1448 25.1473 60.9638 25.1473 62.8406C24.807 62.5372 24.4513 62.229 24.1054 61.9103C21.709 59.7032 19.2418 57.5677 16.9621 55.2416Z" fill="#43AF32"/>
<path d="M25.1603 55.1118C25.1603 54.0332 25.1603 52.9551 25.1603 51.877C25.339 52.9551 25.2904 54.0332 25.1603 55.1118Z" fill="#73CC74"/>
</g>
<defs>
<clipPath id="clip0_28_606">
<rect width="57" height="88" fill="white"/>
</clipPath>
</defs>
</svg>
