<svg width="56" height="56" viewBox="0 0 56 56" fill="none" xmlns="http://www.w3.org/2000/svg">
<path d="M47.2834 19.5544C47.7958 19.8147 48.2442 20.0424 48.6925 20.2702C50.55 21.2461 52.2473 22.4824 53.5283 24.2066C55.2897 26.5164 55.4819 29.1191 54.0407 31.6891C53.3042 33.023 52.2793 34.064 51.0944 34.9749C48.7566 36.7317 46.1305 37.8378 43.3763 38.7162C39.3412 39.985 35.2099 40.6682 31.0146 40.8959C26.467 41.1562 21.9515 40.9284 17.4359 40.2127C14.1693 39.7247 10.9348 38.9439 7.89239 37.5125C6.70746 36.9594 5.52252 36.2437 4.49772 35.3979C1.83962 33.1531 1.26317 29.6721 2.9605 26.5815C3.79316 25.0525 4.97809 23.7837 6.29113 22.6776C9.4296 20.0424 13.0485 18.3833 16.8915 17.1796C22.1756 15.5204 27.5559 14.8372 33.0642 15.0324C36.7151 15.1625 40.366 15.5204 43.8887 16.5614C44.9456 16.8542 45.9384 17.3097 46.9632 17.7001C47.2194 17.7977 47.4435 17.9603 47.6677 18.123C48.2442 18.5785 48.2121 18.9689 47.5716 19.3918C47.5076 19.4568 47.4115 19.4894 47.2834 19.5544ZM31.5911 16.659C31.5911 16.6265 31.5911 16.594 31.5911 16.5614C31.3989 16.5614 31.1747 16.5289 30.9826 16.5289C26.5311 16.5614 22.1436 17.2121 17.8522 18.5134C14.1373 19.6195 10.5825 21.1811 7.54011 23.6861C6.32315 24.6946 5.20227 25.8007 4.40164 27.1996C2.92848 29.8022 3.40886 32.6326 5.71467 34.4544C6.57936 35.1376 7.54011 35.6907 8.53289 36.1461C11.223 37.4149 14.0733 38.0981 16.9555 38.6186C21.1188 39.3669 25.3141 39.5621 29.5094 39.4645C34.4413 39.3343 39.3091 38.5535 43.9848 36.9269C46.1946 36.1461 48.3082 35.2027 50.1977 33.8038C51.3506 32.9254 52.3434 31.8843 52.9839 30.5505C53.6885 29.054 53.7525 27.525 52.9199 26.061C52.5996 25.5079 52.1833 24.9549 51.7669 24.4994C50.3899 23.0029 48.7245 21.9619 46.8671 21.1485C44.5613 20.14 42.1914 19.3918 39.7255 18.9038C36.4589 18.2206 33.1603 17.8953 29.8617 18.5785C29.7016 18.611 29.4774 18.6761 29.3493 18.611C29.1251 18.4809 28.8369 18.3182 28.7728 18.123C28.7088 17.9278 28.9009 17.6025 29.0611 17.4398C29.2532 17.2772 29.5414 17.2121 29.7976 17.147C30.4061 16.9193 30.9826 16.7892 31.5911 16.659ZM41.8391 17.7001C43.4084 18.2206 44.9456 18.7086 46.5148 19.2291C45.0737 18.2857 43.5044 17.8953 41.8391 17.7001Z" fill="#F4AA19"/>
</svg>
