<svg width="1440" height="700" viewBox="0 0 1440 700" fill="none" xmlns="http://www.w3.org/2000/svg">
<path d="M38.4631 -121.772C66.8009 -155.796 156.373 -207.31 287.959 -141.176C452.441 -58.507 449.441 -50.7047 491.521 -80.7191C696.13 -226.659 392.704 -228.315 567.015 -100.418C682.645 -15.5785 675.052 -137.622 819.1 -105.846C963.148 -74.0689 1029.7 5.45193 1100.39 -21.3619C1198.13 -58.4383 1193.15 -134.016 1161.35 -136.132C1099.9 -140.219 1089.66 -35.0676 1227.05 -12.9372" stroke="#B9E4FF" stroke-width="4" stroke-linecap="round"/>
<path opacity="0.8" d="M335.771 195.422C300.438 209.794 260.865 238.732 189.293 105.259C130.673 -4.06219 10.6817 82.5843 -1.22812 66.7137" stroke="#11D3A4" stroke-width="4" stroke-linecap="round"/>
<path opacity="0.8" d="M1299.9 879.939C1226.04 709.351 1080.47 562.794 943 640" stroke="#008BF7" stroke-width="4" stroke-linecap="round"/>
<path opacity="0.8" d="M450.17 87.0336C370.289 -13.419 342.262 79.6496 278.285 1.23252C199.869 -94.8833 170.257 -79.1863 164.5 -98.1749" stroke="#FFAFEA" stroke-width="4" stroke-linecap="round"/>
<path opacity="0.8" d="M1480.98 611.781C1456.51 634.208 1390.06 653.464 1320.04 551.069C1250.03 448.673 1192.84 423.65 1173 423.938" stroke="#FF5D2F" stroke-width="4" stroke-linecap="round"/>
<path d="M151 639.764C198.565 637.921 313.665 645.102 393.538 688.569C493.38 742.903 674.593 783.672 708.8 775.924C743.007 768.177 800.249 794.447 824.111 830.405" stroke="#FFED53" stroke-width="4" stroke-linecap="round"/>
<path opacity="0.98" d="M-157.888 174.365C-96.1569 132.491 44.4347 106.296 112.951 336.505C198.597 624.267 382.502 439.081 242.483 426.634C130.468 416.677 7.58224 544.79 -39.8585 610.092" stroke="#FFA648" stroke-width="4" stroke-linecap="round"/>
<path opacity="0.98" d="M1011.99 -186.614C1073.72 -228.488 1214.31 -254.683 1282.83 -24.4737C1368.47 263.288 1552.38 78.1022 1412.36 65.6554C1300.34 55.698 1177.46 183.812 1130.02 249.113" stroke="#FFA648" stroke-width="4" stroke-linecap="round"/>
<path opacity="0.98" d="M424.219 552.533C355.84 522.724 212.829 522.829 187.814 761.712C156.546 1060.32 -58.2775 912.107 77.0651 874.124C185.339 843.738 329.688 947.069 388.328 1002.53" stroke="#FFAFEA" stroke-width="4" stroke-linecap="round"/>
<path d="M1693.1 462.121C1685.31 536.306 1620.95 72.2137 1464.87 290.974C1421.58 351.648 1229.08 429.685 1188.52 242.426C1164.71 132.518 1192.14 59.8153 1172.81 -18.5524" stroke="#BBA6FF" stroke-width="4" stroke-linecap="round"/>
</svg>
