<svg width="234" height="58" viewBox="0 0 234 58" fill="none" xmlns="http://www.w3.org/2000/svg">
<g clip-path="url(#clip0_10_721)">
<path d="M0 4C0 1.79086 1.79086 0 4 0H26C28.2091 0 30 1.79086 30 4V26C30 28.2091 28.2091 30 26 30H4C1.79086 30 0 28.2091 0 26V4Z" fill="#D391C5"/>
<path d="M34 4C34 1.79086 35.7909 0 38 0H60C62.2091 0 64 1.79086 64 4V26C64 28.2091 62.2091 30 60 30H38C35.7909 30 34 28.2091 34 26V4Z" fill="#D391C5"/>
<path d="M68 4C68 1.79086 69.7909 0 72 0H94C96.2091 0 98 1.79086 98 4V26C98 28.2091 96.2091 30 94 30H72C69.7909 30 68 28.2091 68 26V4Z" fill="#D391C5"/>
<path d="M102 4C102 1.79086 103.791 0 106 0H128C130.209 0 132 1.79086 132 4V26C132 28.2091 130.209 30 128 30H106C103.791 30 102 28.2091 102 26V4Z" fill="#D391C5"/>
<path d="M136 4C136 1.79086 137.791 0 140 0H162C164.209 0 166 1.79086 166 4V26C166 28.2091 164.209 30 162 30H140C137.791 30 136 28.2091 136 26V4Z" fill="#D391C5"/>
<path d="M170 4C170 1.79086 171.791 0 174 0H196C198.209 0 200 1.79086 200 4V26C200 28.2091 198.209 30 196 30H174C171.791 30 170 28.2091 170 26V4Z" fill="#D391C5"/>
<path d="M204 4C204 1.79086 205.791 0 208 0H230C232.209 0 234 1.79086 234 4V26C234 28.2091 232.209 30 230 30H208C205.791 30 204 28.2091 204 26V4Z" fill="#D391C5"/>
<path d="M8.00998 23.44C7.88998 22.6933 7.80332 21.78 7.74998 20.7C7.69665 19.62 7.66998 18.4533 7.66998 17.2C7.66998 15.9067 7.68998 14.58 7.72998 13.22C7.78332 11.86 7.84332 10.5533 7.90998 9.3C7.98998 8.03333 8.07665 6.91333 8.16998 5.94L11.65 6C11.5033 6.93333 11.3833 7.97333 11.29 9.12C11.21 10.2533 11.1433 11.4333 11.09 12.66C12.0366 12.5267 13.0633 12.4267 14.17 12.36C15.2766 12.2933 16.3433 12.26 17.37 12.26C17.8633 12.26 18.3367 12.2733 18.79 12.3C18.7767 11.3 18.7566 10.3667 18.73 9.5C18.7033 8.63333 18.67 7.9 18.63 7.3C18.59 6.7 18.5433 6.28666 18.49 6.06L21.93 5.84C22.05 6.96 22.1433 8.3 22.21 9.86C22.29 11.42 22.33 13.0733 22.33 14.82C22.33 16.2333 22.3033 17.6733 22.25 19.14C22.1967 20.5933 22.1033 21.9933 21.97 23.34H18.63C18.6833 22.9133 18.7233 22.3333 18.75 21.6C18.7766 20.8533 18.7967 20.0133 18.81 19.08C18.8233 18.1333 18.83 17.1467 18.83 16.12C18.83 15.9333 18.83 15.74 18.83 15.54C18.5766 15.54 18.3167 15.54 18.05 15.54C17.7967 15.5267 17.5367 15.52 17.27 15.52C16.2167 15.52 15.15 15.56 14.07 15.64C13.0033 15.7067 11.9833 15.8067 11.01 15.94C11.01 16.3667 11.01 16.7933 11.01 17.22C11.01 18.3933 11.0166 19.4933 11.03 20.52C11.0566 21.5467 11.0966 22.48 11.15 23.32L8.00998 23.44Z" fill="#24192F"/>
<path d="M44.1383 23.42L40.7183 22.78C41.3583 20.1933 42.025 17.8533 42.7183 15.76C43.425 13.6667 44.1517 11.8733 44.8983 10.38C45.645 8.88666 46.405 7.74 47.1783 6.94C47.965 6.12666 48.7517 5.72 49.5383 5.72C51.125 5.72 52.585 7.19333 53.9183 10.14C55.2517 13.0733 56.385 17.3267 57.3183 22.9L53.7783 23.38C53.6183 22.5 53.445 21.6 53.2583 20.68C53.0717 19.7467 52.8783 18.84 52.6783 17.96C52.3583 17.9467 52.0117 17.94 51.6383 17.94C50.985 17.94 50.2917 17.9533 49.5583 17.98C48.8383 18.0067 48.125 18.0533 47.4183 18.12C46.725 18.1733 46.0783 18.2333 45.4783 18.3C45.225 19.1533 44.9783 20.02 44.7383 20.9C44.5117 21.7667 44.3117 22.6067 44.1383 23.42ZM47.8183 11.74C47.525 12.3667 47.1317 13.38 46.6383 14.78C47.2117 14.7133 47.8183 14.6667 48.4583 14.64C49.0983 14.6 49.725 14.58 50.3383 14.58C50.8583 14.58 51.3583 14.5933 51.8383 14.62C51.6517 13.94 51.4717 13.3333 51.2983 12.8C51.1383 12.2667 50.9917 11.8467 50.8583 11.54C50.5783 10.82 50.3317 10.3133 50.1183 10.02C49.905 9.71333 49.685 9.56 49.4583 9.56C49.2183 9.56 48.9783 9.72 48.7383 10.04C48.4983 10.3467 48.1917 10.9133 47.8183 11.74Z" fill="#24192F"/>
<path d="M75.2896 23.46C75.2896 21.38 75.3163 19.5067 75.3696 17.84C75.4363 16.16 75.5163 14.6333 75.6096 13.26C75.7163 11.8733 75.8296 10.5867 75.9496 9.4C76.0829 8.2 76.2096 7.05333 76.3296 5.96L79.7696 6.1C79.7163 6.51333 79.6563 6.96 79.5896 7.44C80.0429 8.05333 80.5363 8.75333 81.0696 9.54C81.6163 10.3267 82.1696 11.16 82.7296 12.04C83.3029 12.9067 83.8629 13.78 84.4096 14.66C84.9563 15.5267 85.4763 16.36 85.9696 17.16C86.4629 17.9467 86.8963 18.6533 87.2696 19.28C87.3629 18.36 87.4096 17.0667 87.4096 15.4C87.4096 14.5467 87.3963 13.6667 87.3696 12.76C87.3429 11.8533 87.3096 10.9867 87.2696 10.16C87.2296 9.32 87.1763 8.57333 87.1096 7.92C87.0429 7.25333 86.9696 6.73333 86.8896 6.36L90.6496 5.9C90.6763 6.55333 90.6896 7.41333 90.6896 8.48C90.7029 9.53333 90.7096 10.6533 90.7096 11.84C90.7096 12.8933 90.7029 13.9533 90.6896 15.02C90.6763 16.0733 90.6496 17.0467 90.6096 17.94C90.5696 18.8333 90.5096 19.5733 90.4296 20.16C90.2829 21.3067 89.9896 22.1533 89.5496 22.7C89.1096 23.2467 88.4896 23.52 87.6896 23.52C87.0363 23.52 86.4363 23.2933 85.8896 22.84C85.3563 22.3867 84.7763 21.64 84.1496 20.6C83.7229 19.88 83.2229 19.0533 82.6496 18.12C82.0896 17.1733 81.5029 16.2067 80.8896 15.22C80.2896 14.2333 79.7096 13.2933 79.1496 12.4C79.0429 13.96 78.9629 15.52 78.9096 17.08C78.8563 18.6267 78.8296 20.0267 78.8296 21.28C78.8296 21.68 78.8296 22.0533 78.8296 22.4C78.8296 22.76 78.8363 23.0933 78.8496 23.4L75.2896 23.46Z" fill="#24192F"/>
<path d="M116.031 22.94C114.644 22.94 113.477 22.6933 112.531 22.2C111.584 21.72 110.824 21.08 110.251 20.28C109.691 19.48 109.284 18.6067 109.031 17.66C108.777 16.7133 108.651 15.7733 108.651 14.84C108.651 13.7333 108.831 12.64 109.191 11.56C109.551 10.48 110.091 9.5 110.811 8.62C111.544 7.74 112.451 7.03333 113.531 6.5C114.624 5.96666 115.897 5.7 117.351 5.7C118.577 5.7 119.651 5.88 120.571 6.24C121.491 6.58666 122.277 7.01333 122.931 7.52C123.597 8.01333 124.131 8.48 124.531 8.92L122.031 11.62C121.657 11.18 121.257 10.7667 120.831 10.38C120.417 9.99333 119.924 9.68 119.351 9.44C118.777 9.2 118.071 9.08 117.231 9.08C116.324 9.08 115.544 9.24666 114.891 9.58C114.237 9.9 113.704 10.3333 113.291 10.88C112.877 11.4267 112.571 12.04 112.371 12.72C112.184 13.4 112.091 14.1 112.091 14.82C112.091 15.6733 112.231 16.46 112.511 17.18C112.804 17.9 113.237 18.48 113.811 18.92C114.397 19.36 115.124 19.58 115.991 19.58C117.057 19.58 117.937 19.3333 118.631 18.84C119.324 18.3467 119.804 17.64 120.071 16.72C119.497 16.76 118.944 16.8133 118.411 16.88C117.891 16.9333 117.424 16.9933 117.011 17.06L116.671 13.82C117.457 13.6467 118.364 13.52 119.391 13.44C120.431 13.3467 121.424 13.3 122.371 13.3C123.677 13.3 124.657 13.38 125.311 13.54L125.231 16.82C124.951 16.74 124.504 16.68 123.891 16.64C123.891 16.9333 123.891 17.24 123.891 17.56C123.904 17.88 123.911 18.2067 123.911 18.54C123.911 19.46 123.897 20.3667 123.871 21.26C123.844 22.1533 123.817 22.8667 123.791 23.4L120.371 23.32C120.384 23.1467 120.404 22.88 120.431 22.52C120.471 22.16 120.511 21.7533 120.551 21.3C120.097 21.78 119.504 22.1733 118.771 22.48C118.051 22.7867 117.137 22.94 116.031 22.94Z" fill="#24192F"/>
<path d="M142.126 23.46C142.086 22.14 142.066 20.8733 142.066 19.66C142.066 17.4733 142.132 15.4933 142.266 13.72C142.399 11.9467 142.592 10.44 142.846 9.2C142.966 8.62666 143.132 8.07333 143.346 7.54C143.572 7.00666 143.886 6.57333 144.286 6.24C144.699 5.89333 145.239 5.72 145.906 5.72C146.559 5.72 147.112 5.89333 147.566 6.24C148.019 6.57333 148.386 6.98 148.666 7.46C148.959 7.94 149.172 8.4 149.306 8.84C149.652 9.88 149.946 10.92 150.186 11.96C150.426 13 150.639 13.9933 150.826 14.94C150.959 14.2467 151.112 13.52 151.286 12.76C151.459 11.9867 151.632 11.26 151.806 10.58C151.979 9.88666 152.139 9.31333 152.286 8.86C152.966 6.76666 154.012 5.72 155.426 5.72C156.212 5.72 156.879 6.00666 157.426 6.58C157.972 7.14 158.372 7.95333 158.626 9.02C158.746 9.5 158.866 10.2 158.986 11.12C159.119 12.04 159.239 13.1333 159.346 14.4C159.466 15.6533 159.566 17.04 159.646 18.56C159.739 20.08 159.812 21.6933 159.866 23.4L156.346 23.32C156.346 22.6133 156.326 21.7933 156.286 20.86C156.259 19.9267 156.212 18.96 156.146 17.96C156.092 16.9467 156.026 15.96 155.946 15C155.879 14.04 155.806 13.1733 155.726 12.4C155.659 11.6267 155.592 11.0133 155.526 10.56C155.459 10.0933 155.399 9.86 155.346 9.86C155.332 9.86 155.259 10.1 155.126 10.58C155.006 11.0467 154.852 11.6733 154.666 12.46C154.492 13.2467 154.299 14.1133 154.086 15.06C153.872 16.0067 153.659 16.96 153.446 17.92C153.246 18.8667 153.066 19.7467 152.906 20.56C152.746 21.36 152.619 22.0133 152.526 22.52L149.386 22.6C149.226 21.8533 149.032 21.0333 148.806 20.14C148.592 19.2333 148.366 18.3133 148.126 17.38C147.899 16.4333 147.672 15.5267 147.446 14.66C147.219 13.78 147.006 12.9933 146.806 12.3C146.619 11.6067 146.466 11.06 146.346 10.66C146.226 10.2467 146.152 10.04 146.126 10.04C146.072 10.04 146.012 10.3333 145.946 10.92C145.892 11.4933 145.839 12.2733 145.786 13.26C145.732 14.2467 145.686 15.36 145.646 16.6C145.619 17.84 145.606 19.12 145.606 20.44C145.606 21.0667 145.606 21.64 145.606 22.16C145.619 22.68 145.632 23.1067 145.646 23.44L142.126 23.46Z" fill="#24192F"/>
<path d="M180.138 23.42L176.718 22.78C177.358 20.1933 178.025 17.8533 178.718 15.76C179.425 13.6667 180.152 11.8733 180.898 10.38C181.645 8.88666 182.405 7.74 183.178 6.94C183.965 6.12666 184.752 5.72 185.538 5.72C187.125 5.72 188.585 7.19333 189.918 10.14C191.252 13.0733 192.385 17.3267 193.318 22.9L189.778 23.38C189.618 22.5 189.445 21.6 189.258 20.68C189.072 19.7467 188.878 18.84 188.678 17.96C188.358 17.9467 188.012 17.94 187.638 17.94C186.985 17.94 186.292 17.9533 185.558 17.98C184.838 18.0067 184.125 18.0533 183.418 18.12C182.725 18.1733 182.078 18.2333 181.478 18.3C181.225 19.1533 180.978 20.02 180.738 20.9C180.512 21.7667 180.312 22.6067 180.138 23.42ZM183.818 11.74C183.525 12.3667 183.132 13.38 182.638 14.78C183.212 14.7133 183.818 14.6667 184.458 14.64C185.098 14.6 185.725 14.58 186.338 14.58C186.858 14.58 187.358 14.5933 187.838 14.62C187.652 13.94 187.472 13.3333 187.298 12.8C187.138 12.2667 186.992 11.8467 186.858 11.54C186.578 10.82 186.332 10.3133 186.118 10.02C185.905 9.71333 185.685 9.56 185.458 9.56C185.218 9.56 184.978 9.72 184.738 10.04C184.498 10.3467 184.192 10.9133 183.818 11.74Z" fill="#24192F"/>
<path d="M211.29 23.46C211.29 21.38 211.316 19.5067 211.37 17.84C211.436 16.16 211.516 14.6333 211.61 13.26C211.716 11.8733 211.83 10.5867 211.95 9.4C212.083 8.2 212.21 7.05333 212.33 5.96L215.77 6.1C215.716 6.51333 215.656 6.96 215.59 7.44C216.043 8.05333 216.536 8.75333 217.07 9.54C217.616 10.3267 218.17 11.16 218.73 12.04C219.303 12.9067 219.863 13.78 220.41 14.66C220.956 15.5267 221.476 16.36 221.97 17.16C222.463 17.9467 222.896 18.6533 223.27 19.28C223.363 18.36 223.41 17.0667 223.41 15.4C223.41 14.5467 223.396 13.6667 223.37 12.76C223.343 11.8533 223.31 10.9867 223.27 10.16C223.23 9.32 223.176 8.57333 223.11 7.92C223.043 7.25333 222.97 6.73333 222.89 6.36L226.65 5.9C226.676 6.55333 226.69 7.41333 226.69 8.48C226.703 9.53333 226.71 10.6533 226.71 11.84C226.71 12.8933 226.703 13.9533 226.69 15.02C226.676 16.0733 226.65 17.0467 226.61 17.94C226.57 18.8333 226.51 19.5733 226.43 20.16C226.283 21.3067 225.99 22.1533 225.55 22.7C225.11 23.2467 224.49 23.52 223.69 23.52C223.036 23.52 222.436 23.2933 221.89 22.84C221.356 22.3867 220.776 21.64 220.15 20.6C219.723 19.88 219.223 19.0533 218.65 18.12C218.09 17.1733 217.503 16.2067 216.89 15.22C216.29 14.2333 215.71 13.2933 215.15 12.4C215.043 13.96 214.963 15.52 214.91 17.08C214.856 18.6267 214.83 20.0267 214.83 21.28C214.83 21.68 214.83 22.0533 214.83 22.4C214.83 22.76 214.836 23.0933 214.85 23.4L211.29 23.46Z" fill="#24192F"/>
<path d="M146.344 55.738C144.841 55.738 143.679 55.3007 142.859 54.426C142.067 53.5513 141.67 52.212 141.67 50.408C141.67 49.424 141.848 48.3443 142.203 47.169C142.586 45.9937 143.078 44.8457 143.679 43.725C144.308 42.6043 144.991 41.634 145.729 40.814C146.467 39.9667 147.205 39.379 147.943 39.051C148.217 38.9143 148.504 38.8187 148.804 38.764C149.132 38.682 149.447 38.641 149.747 38.641C150.075 38.641 150.431 38.6683 150.813 38.723C151.223 38.7503 151.606 38.8323 151.961 38.969C152.59 39.1603 153.137 39.5293 153.601 40.076C154.093 40.6227 154.339 41.4153 154.339 42.454C154.339 42.7273 154.312 43.028 154.257 43.356C154.203 43.6567 154.107 43.9573 153.97 44.258C153.615 45.16 153.068 46.021 152.33 46.841C151.62 47.661 150.868 48.235 150.075 48.563C149.857 48.6723 149.638 48.7543 149.419 48.809C149.228 48.8363 149.023 48.85 148.804 48.85C148.23 48.85 147.711 48.768 147.246 48.604C146.809 48.44 146.399 48.2213 146.016 47.948L145.688 47.661L145.483 48.071C145.292 48.5903 145.155 49.0277 145.073 49.383C145.019 49.7383 144.991 49.998 144.991 50.162C144.991 50.49 145.005 50.8317 145.032 51.187C145.06 51.515 145.142 51.7883 145.278 52.007C145.388 52.1437 145.524 52.253 145.688 52.335C145.88 52.417 146.112 52.458 146.385 52.458C146.549 52.458 146.7 52.458 146.836 52.458C147 52.4307 147.137 52.4033 147.246 52.376C147.738 52.2667 148.135 52.089 148.435 51.843C148.763 51.5697 149.105 51.3373 149.46 51.146L149.624 51.064L149.583 50.941C150.048 50.695 150.362 50.5447 150.526 50.49C150.69 50.408 150.813 50.3397 150.895 50.285C151.005 50.1757 151.128 50.121 151.264 50.121C151.647 50.0663 152.016 50.1757 152.371 50.449C152.754 50.695 152.945 51.0093 152.945 51.392C152.945 51.556 152.822 51.8157 152.576 52.171C152.358 52.5263 152.071 52.8817 151.715 53.237C151.387 53.565 151.046 53.8247 150.69 54.016C150.608 54.0433 150.526 54.0843 150.444 54.139C150.362 54.1663 150.28 54.2073 150.198 54.262H150.239C149.993 54.59 149.747 54.754 149.501 54.754H149.173C149.064 54.9453 148.709 55.1503 148.107 55.369C147.506 55.615 146.918 55.738 146.344 55.738ZM148.476 45.857C148.722 45.857 148.941 45.816 149.132 45.734C149.351 45.652 149.556 45.5563 149.747 45.447C150.403 44.9823 150.827 44.381 151.018 43.643C151.21 42.905 151.141 42.3447 150.813 41.962C150.759 41.88 150.69 41.8253 150.608 41.798C150.526 41.7433 150.431 41.716 150.321 41.716C150.021 41.716 149.679 41.8117 149.296 42.003C148.941 42.1943 148.586 42.4677 148.23 42.823C147.875 43.1783 147.547 43.602 147.246 44.094L146.713 44.955C146.768 44.9277 146.809 44.914 146.836 44.914C146.891 44.8867 146.932 44.873 146.959 44.873C147.205 44.873 147.369 44.955 147.451 45.119C147.533 45.283 147.629 45.447 147.738 45.611C147.875 45.775 148.121 45.857 148.476 45.857Z" fill="#ECE8FB"/>
<path d="M137.967 54.016C137.775 53.9613 137.475 53.7837 137.065 53.483C136.655 53.1823 136.286 52.7313 135.958 52.13C135.657 51.5287 135.52 50.7497 135.548 49.793C135.575 48.973 135.63 48.399 135.712 48.071C135.821 47.7157 135.78 47.5243 135.589 47.497C135.452 47.4697 135.179 47.5927 134.769 47.866C134.359 48.1393 133.826 48.5767 133.17 49.178C132.514 49.7793 131.721 50.572 130.792 51.556C130.464 51.8293 130.095 52.171 129.685 52.581C129.302 52.9637 128.906 53.2507 128.496 53.442C128.113 53.6333 127.771 53.5923 127.471 53.319L127.061 52.95C126.869 52.786 126.705 52.5673 126.569 52.294C126.432 52.0207 126.391 51.7883 126.446 51.597L127.594 48.399C127.922 47.6883 128.14 47.169 128.25 46.841C128.386 46.513 128.441 46.308 128.414 46.226C128.414 46.144 128.345 46.1167 128.209 46.144C128.045 46.1713 127.812 46.3217 127.512 46.595C127.211 46.841 127.006 47.046 126.897 47.21C126.787 47.21 126.637 47.3193 126.446 47.538C126.282 47.7567 126.118 47.948 125.954 48.112C125.79 48.276 125.503 48.5903 125.093 49.055C124.683 49.4923 124.245 49.957 123.781 50.449C123.425 50.777 123.015 51.2143 122.551 51.761C122.086 52.3077 121.676 52.7997 121.321 53.237C120.965 53.6743 120.747 53.893 120.665 53.893C120.173 53.8657 119.722 53.7017 119.312 53.401C118.929 53.1003 118.669 52.7313 118.533 52.294C118.369 51.9933 118.355 51.4467 118.492 50.654C118.628 49.834 118.888 48.5357 119.271 46.759C119.38 46.349 119.476 45.9937 119.558 45.693C119.667 45.3923 119.776 45.0917 119.886 44.791C119.995 44.4903 120.118 44.1487 120.255 43.766C120.419 43.3833 120.624 42.9187 120.87 42.372C121.006 41.9893 121.061 41.634 121.034 41.306C121.006 40.9507 120.979 40.6637 120.952 40.445C120.952 40.035 121.075 39.707 121.321 39.461C121.594 39.215 121.895 39.051 122.223 38.969C122.551 38.8597 122.81 38.8323 123.002 38.887C123.767 38.969 124.286 39.2423 124.56 39.707C124.833 40.1717 124.983 40.6227 125.011 41.06C125.038 41.47 124.983 41.839 124.847 42.167C124.71 42.495 124.601 42.7683 124.519 42.987L124.068 44.094C123.794 44.7227 123.589 45.1873 123.453 45.488C123.343 45.7613 123.275 45.9527 123.248 46.062C123.248 46.144 123.248 46.226 123.248 46.308C123.275 46.39 123.398 46.349 123.617 46.185C123.835 46.021 124.095 45.8023 124.396 45.529C124.724 45.2283 125.024 44.9687 125.298 44.75C125.79 44.34 126.309 43.93 126.856 43.52C127.43 43.0827 127.99 42.7 128.537 42.372C129.083 42.044 129.534 41.8253 129.89 41.716C130.354 41.798 130.778 42.0303 131.161 42.413C131.571 42.7957 131.83 43.1237 131.94 43.397C132.076 43.807 132.09 44.176 131.981 44.504C131.899 44.832 131.83 45.1327 131.776 45.406C131.748 45.5153 131.694 45.7203 131.612 46.021C131.53 46.3217 131.448 46.6087 131.366 46.882C131.284 47.128 131.243 47.251 131.243 47.251C131.243 47.251 131.325 47.169 131.489 47.005C131.653 46.841 131.871 46.6497 132.145 46.431C132.418 46.185 132.691 45.9663 132.965 45.775C134.331 44.7363 135.411 44.0803 136.204 43.807C137.024 43.5063 137.721 43.7387 138.295 44.504C138.623 44.8047 138.828 45.2147 138.91 45.734C139.019 46.2533 139.074 46.9503 139.074 47.825C139.101 48.1803 139.128 48.5767 139.156 49.014C139.21 49.4513 139.265 49.834 139.32 50.162C139.402 50.49 139.47 50.695 139.525 50.777C139.607 50.8863 139.757 50.9957 139.976 51.105C140.194 51.187 140.399 51.2553 140.591 51.31C140.973 51.5013 141.178 51.8567 141.206 52.376C141.26 52.868 141.069 53.2507 140.632 53.524C140.222 53.77 139.784 53.9203 139.32 53.975C138.882 54.0297 138.431 54.0433 137.967 54.016Z" fill="#ECE8FB"/>
<path d="M101.547 54.139C101.438 53.9203 101.192 53.7017 100.809 53.483C100.454 53.2643 100.276 53.1003 100.276 52.991C100.276 52.8817 100.208 52.7177 100.071 52.499C99.9615 52.253 99.8522 52.0753 99.7428 51.966C99.6062 51.802 99.6472 51.4057 99.8658 50.777C100.085 50.121 100.413 49.3283 100.85 48.399C101.287 47.4697 101.766 46.5267 102.285 45.57C102.504 45.3513 102.722 45.0643 102.941 44.709C103.16 44.3537 103.324 44.1213 103.433 44.012C103.433 43.9027 103.474 43.807 103.556 43.725C103.638 43.6157 103.734 43.561 103.843 43.561L104.171 42.905C104.226 42.7957 104.39 42.577 104.663 42.249C104.964 41.921 105.319 41.5657 105.729 41.183C106.139 40.773 106.549 40.3903 106.959 40.035C107.396 39.6797 107.752 39.42 108.025 39.256C108.599 38.8733 109.187 38.6957 109.788 38.723C110.417 38.7503 110.95 38.9417 111.387 39.297C111.469 39.379 111.647 39.543 111.92 39.789C112.221 40.035 112.549 40.3083 112.904 40.609C113.287 40.9097 113.615 41.183 113.888 41.429L115.405 42.782L114.708 44.832C114.353 45.9253 114.257 46.882 114.421 47.702C114.585 48.522 114.845 49.2327 115.2 49.834C115.337 50.1347 115.514 50.367 115.733 50.531C115.979 50.695 116.293 50.8043 116.676 50.859C116.895 50.8863 117.1 50.9683 117.291 51.105C117.482 51.2417 117.578 51.4603 117.578 51.761C117.578 52.417 117.455 52.8953 117.209 53.196C116.99 53.4693 116.744 53.6333 116.471 53.688C115.569 53.7973 114.708 53.7017 113.888 53.401C113.068 53.1003 112.33 52.3213 111.674 51.064C111.565 50.9 111.414 50.5993 111.223 50.162C111.059 49.6973 110.963 49.3967 110.936 49.26C110.827 49.3967 110.676 49.5743 110.485 49.793C110.321 49.9843 110.157 50.162 109.993 50.326C108.052 52.294 106.385 53.5787 104.991 54.18C103.624 54.754 102.476 54.7403 101.547 54.139ZM103.802 50.736C103.993 50.7633 104.294 50.6677 104.704 50.449C105.114 50.203 105.661 49.8067 106.344 49.26C107.273 48.4673 108.039 47.8113 108.64 47.292C109.241 46.7727 109.829 46.103 110.403 45.283L111.305 43.807C111.032 43.1783 110.786 42.7683 110.567 42.577C110.348 42.3857 110.13 42.29 109.911 42.29C109.556 42.29 109.132 42.5223 108.64 42.987C108.148 43.4243 107.588 44.0803 106.959 44.955C106.358 45.8023 105.674 46.8683 104.909 48.153C104.554 48.7543 104.28 49.342 104.089 49.916C103.898 50.4627 103.802 50.736 103.802 50.736Z" fill="#ECE8FB"/>
<path d="M82.7221 56.886C81.9841 56.3393 81.4101 55.5603 81.0001 54.549C80.6174 53.5103 80.4398 52.5537 80.4671 51.679C80.4398 49.9843 80.5764 48.235 80.8771 46.431C81.2051 44.627 81.6288 42.946 82.1481 41.388C82.5034 40.404 82.8861 39.4063 83.2961 38.395C83.7061 37.3837 84.1298 36.427 84.5671 35.525C85.0044 34.5957 85.4281 33.8167 85.8381 33.188C86.6854 31.7393 87.5464 30.5777 88.4211 29.703C89.3231 28.8283 90.0064 28.2543 90.4711 27.981C91.2364 27.5983 92.1521 27.3113 93.2181 27.12C94.2841 26.9013 95.3228 26.9013 96.3341 27.12C97.0448 27.3113 97.7418 27.5847 98.4251 27.94C99.1358 28.2953 99.7508 28.7327 100.27 29.252C100.571 29.5253 100.803 29.8123 100.967 30.113C101.131 30.4137 101.213 30.728 101.213 31.056C101.213 31.466 101.022 31.8623 100.639 32.245C100.256 32.6277 99.8328 32.8873 99.3681 33.024C98.9034 33.1607 98.5481 33.0787 98.3021 32.778C97.9468 32.2313 97.6051 31.8213 97.2771 31.548C96.9491 31.2473 96.6074 31.0287 96.2521 30.892C95.9514 30.7007 95.5414 30.605 95.0221 30.605C94.5301 30.605 93.9971 30.7007 93.4231 30.892C92.8491 31.056 92.3024 31.3567 91.7831 31.794C91.5918 31.958 91.3321 32.1903 91.0041 32.491C90.7034 32.7917 90.3754 33.1607 90.0201 33.598C89.6921 34.008 89.3914 34.459 89.1181 34.951C88.3528 36.2083 87.6968 37.493 87.1501 38.805C86.6308 40.0897 86.1661 41.4973 85.7561 43.028C85.5648 43.6567 85.3598 44.4357 85.1411 45.365C84.9224 46.267 84.7174 47.169 84.5261 48.071C84.3621 48.973 84.2528 49.7657 84.1981 50.449C84.1161 51.4057 84.1434 52.1573 84.2801 52.704C84.4168 53.2507 84.7038 53.6197 85.1411 53.811C85.5784 53.975 86.1934 53.9613 86.9861 53.77C87.6968 53.606 88.4074 53.3327 89.1181 52.95C89.8561 52.54 90.5668 52.0343 91.2501 51.433C91.9334 50.8043 92.5484 50.0663 93.0951 49.219C93.5871 48.2897 93.9834 47.4423 94.2841 46.677C94.6121 45.9117 94.7761 45.3103 94.7761 44.873C94.8034 44.4083 94.5711 44.1897 94.0791 44.217C92.9584 44.2443 92.0564 44.2033 91.3731 44.094C90.7171 43.9847 90.2661 43.7113 90.0201 43.274C89.6648 43.192 89.4734 42.8913 89.4461 42.372C89.4461 41.8527 89.7058 41.429 90.2251 41.101C90.6898 40.855 91.3321 40.7047 92.1521 40.65C92.9721 40.5953 93.8058 40.6227 94.6531 40.732C95.5278 40.814 96.2248 41.0053 96.7441 41.306C97.3454 41.6067 97.7554 42.0577 97.9741 42.659C98.2201 43.233 98.3431 43.848 98.3431 44.504C98.3704 45.16 98.3294 45.775 98.2201 46.349C97.9741 47.3057 97.6324 48.235 97.1951 49.137C96.7851 50.039 96.2248 50.9547 95.5141 51.884C95.1041 52.458 94.5438 53.0593 93.8331 53.688C93.1224 54.3167 92.3708 54.877 91.5781 55.369C90.8128 55.8883 90.0884 56.2983 89.4051 56.599C88.3118 57.091 87.1638 57.4463 85.9611 57.665C84.7858 57.8837 83.7061 57.624 82.7221 56.886Z" fill="#ECE8FB"/>
</g>
<defs>
<clipPath id="clip0_10_721">
<rect width="234" height="58" fill="white"/>
</clipPath>
</defs>
</svg>
